<svg fill="none" height="165" viewBox="0 0 154 165" width="154" xmlns="http://www.w3.org/2000/svg"><path d="m135.3 164.54-29.35-29.2-.42.07v-.3l-62.41-61.74 15.41-14.85-9.06-51.93-42.89 53.2c-7.279999 7.36-8.68 19.39-3.4 28.21l26.8 44.49c4.1 6.82 10.54 11.2 19.53 10.88 19.03-.67 27.4-.67 27.4-.67l58.37 21.81.02.02z" fill="#18b6f6"/><path d="m149.8 82.72c4.23-8.72 5.74-16.35 1.57-24l-5.93-10.92-3.08-5.6-1.2-2.2-.1.14-16.15-28c-1.996-3.48035-4.884-6.36571-8.366-8.35892-3.482-1.99322-7.432-3.022243-11.444-2.981095l-14.16.400005-42.25.11c-3.9226.02821-7.7707 1.07422-11.1677 3.03569-3.3971 1.96147-6.2268 4.77121-8.2123 8.15432l-25.66999 50.98 45.93999-57.15001 60.27 66.27001-10.8 10.93 6.45 51.84.09-.1v.14h-.1l.14.13 5.02 4.9 24.3 23.74c1.03.98 2.68-.2 2-1.42l-15.02-29.57" fill="#ac7ef4"/></svg>