<svg fill="none" height="473" viewBox="0 0 411 473" width="411" xmlns="http://www.w3.org/2000/svg"><g fill="#121212"><path clip-rule="evenodd" d="m392.946 364.768c4.255 54.65 4.255 80.268 4.255 108.232h-126.445c0-6.091.109-11.663.219-17.313.342-17.564.699-35.88-2.147-72.868-3.761-54.152-27.08-66.185-69.957-66.185h-37.988-160.883v-98.525h204.889c54.16 0 81.241-16.476 81.241-60.098 0-38.357-27.081-61.6012-81.241-61.6012h-204.889v-96.4098h227.456c122.613 0 183.544 57.9117 183.544 150.42 0 69.193-42.877 114.319-100.799 121.84 48.895 9.777 77.48 37.605 82.745 92.508z" fill-rule="evenodd"/><path d="m0 473v-73.447h133.697c22.332 0 27.181 16.563 27.181 26.441v47.006z"/></g></svg>