<svg fill="none" height="256" viewBox="0 0 931 256" width="931" xmlns="http://www.w3.org/2000/svg" xmlns:xlink="http://www.w3.org/1999/xlink"><linearGradient id="a" gradientUnits="userSpaceOnUse" x1="78" x2="236" y1=".000002" y2="256"><stop offset="0" stop-color="#9e7aff"/><stop offset=".333333" stop-color="#fe8bbb"/><stop offset=".666667" stop-color="#ffbd7a"/><stop offset="1" stop-color="#f8eac3"/></linearGradient><path d="m128 0c70.692 0 128 57.3075 128 128 0 70.692-57.308 128-128 128-70.6925 0-128-57.308-128-128 0-70.6925 57.3075-128 128-128zm55.68 62c-2.501 1.734-5.382 4.4434-8.643 8.1279-3.153 3.6847-6.578 8.0197-10.274 13.0049-3.696 4.8769-7.501 10.2963-11.415 16.2568-3.805 5.9604-7.556 12.1374-11.253 18.5314-3.696 6.286-7.229 12.68-10.6 19.182-3.261 6.395-6.142 12.572-8.643 18.532 1.087-7.911 2.555-16.147 4.403-24.709 1.957-8.67 3.969-16.852 6.034-24.547 2.175-7.6943 4.295-14.5757 6.36-20.6446 2.066-6.0689 3.86-10.6208 5.382-13.6553-.218-.7586-1.305-1.68-3.262-2.7637-1.848-1.192-4.022-2.3304-6.523-3.414-2.392-1.0838-4.892-2.005-7.501-2.7637-2.501-.7586-4.512-1.1377-6.034-1.1377-3.805 2.1675-7.665 5.3105-11.579 9.4287-3.805 4.1182-7.719 8.9954-11.7414 14.6309-4.0225 5.6354-8.1536 11.9209-12.3935 18.8564-4.1312 6.936-8.3712 14.36-12.7198 22.271-3.8051 6.936-7.2847 13.439-10.4375 19.508-3.1527 5.96-5.8158 11.379-7.9902 16.256-2.1743 4.877-3.8598 9.103-5.0557 12.68-1.1958 3.576-1.7939 6.339-1.7939 8.29 0 2.168.9786 4.01 2.9355 5.527 2.0657 1.518 5.7077 3.035 10.9258 4.552.5436-6.286 1.9573-13.113 4.2403-20.483 2.3917-7.369 5.2181-14.793 8.4795-22.271 3.2616-7.586 6.8498-15.01 10.7636-22.271 4.0225-7.369 7.9907-14.088 11.9043-20.157 4.023-6.178 7.828-11.4879 11.416-15.9313 3.587-4.5516 6.686-7.8568 9.295-9.916-.544 2.7091-1.087 5.2557-1.631 7.6397-.435 2.2759-.87 4.1732-1.304 5.6904-4.132 15.3892-7.121 29.6942-8.97 42.9162-1.739 13.221-2.609 25.901-2.609 38.039v4.714c0 1.626.055 3.197.163 4.715.326.65 1.142 1.409 2.446 2.276 1.414.867 3.044 1.625 4.893 2.275 1.957.759 3.914 1.355 5.87 1.789 2.066.542 3.86.812 5.382.812h1.305c.217 0 .434-.054.652-.162.435-6.394 1.685-13.384 3.751-20.971 2.174-7.694 4.783-15.389 7.827-23.083 3.153-7.803 6.632-15.444 10.437-22.921 3.914-7.478 7.828-14.252 11.742-20.321 4.022-6.177 7.936-11.379 11.741-15.6056 3.914-4.3348 7.393-7.2611 10.437-8.7783-.543 2.8177-1.087 5.527-1.63 8.1279-.544 2.6009-1.033 4.6606-1.468 6.1778-4.131 15.3892-7.121 29.6942-8.969 42.9162-1.74 13.221-2.61 25.901-2.61 38.039v4.714c0 1.626.055 3.197.163 4.715.653.975 1.794 1.842 3.425 2.601 1.631.867 3.425 1.625 5.382 2.276 2.065.65 4.131 1.138 6.197 1.463 2.174.433 4.022.65 5.544.65-.217-2.926-.326-5.744-.326-8.453v-7.803c0-7.586.435-16.148 1.305-25.685.978-9.645 2.337-19.345 4.077-29.099 1.848-9.753 4.076-19.073 6.686-27.9602 2.609-8.8865 5.653-16.4184 9.132-22.5957-.217-.7586-1.305-1.68-3.262-2.7637-1.848-1.1921-4.022-2.3303-6.523-3.414-2.391-1.0838-4.892-2.005-7.501-2.7637-2.501-.7586-4.512-1.1377-6.034-1.1377z" fill="url(#a)"/><g fill="#000"><path d="m323 54.9677h30.72l32.446 79.1593h1.381l32.446-79.1593h30.72v117.8183h-24.162v-76.6855h-.978l-30.49 76.1105h-16.453l-30.49-76.3982h-.978v76.9732h-24.162z"/><path d="m487.874 174.454c-5.638 0-10.662-.978-15.073-2.934-4.41-1.994-7.9-4.928-10.47-8.802-2.531-3.912-3.797-8.782-3.797-14.612 0-4.909.901-9.032 2.704-12.368 1.802-3.337 4.257-6.022 7.364-8.054 3.106-2.033 6.634-3.567 10.585-4.603 3.988-1.035 8.169-1.764 12.541-2.186 5.139-.537 9.281-1.035 12.426-1.496 3.145-.498 5.427-1.227 6.846-2.186 1.419-.958 2.129-2.377 2.129-4.257v-.345c0-3.643-1.151-6.462-3.452-8.457-2.263-1.994-5.485-2.991-9.665-2.991-4.41 0-7.92.978-10.528 2.934-2.608 1.918-4.333 4.334-5.177 7.249l-22.666-1.841c1.15-5.37 3.413-10.0103 6.788-13.9223 3.375-3.9503 7.728-6.9801 13.059-9.0895 5.369-2.1477 11.582-3.2215 18.639-3.2215 4.909 0 9.607.5752 14.095 1.7258 4.525 1.1506 8.533 2.934 12.023 5.3501 3.528 2.4162 6.309 5.5228 8.342 9.3197 2.032 3.7587 3.049 8.2647 3.049 13.5187v59.6h-23.242v-12.254h-.69c-1.419 2.762-3.318 5.197-5.696 7.306-2.377 2.071-5.235 3.701-8.571 4.89-3.337 1.151-7.191 1.726-11.563 1.726zm7.018-16.913c3.605 0 6.788-.71 9.55-2.129 2.761-1.457 4.928-3.413 6.5-5.868 1.573-2.454 2.359-5.235 2.359-8.341v-9.377c-.767.498-1.822.958-3.164 1.38-1.304.384-2.781.748-4.43 1.093-1.649.307-3.298.595-4.947.863-1.649.23-3.145.441-4.487.633-2.877.422-5.389 1.093-7.537 2.014-2.147.92-3.816 2.166-5.005 3.739-1.188 1.534-1.783 3.452-1.783 5.753 0 3.336 1.208 5.887 3.624 7.651 2.455 1.726 5.561 2.589 9.32 2.589z"/><path d="m588.358 207.763c-7.939 0-14.746-1.093-20.422-3.279-5.638-2.148-10.125-5.082-13.462-8.802-3.336-3.72-5.503-7.9-6.501-12.541l22.667-3.049c.69 1.764 1.783 3.413 3.279 4.947 1.496 1.535 3.471 2.762 5.925 3.682 2.493.959 5.523 1.438 9.09 1.438 5.331 0 9.722-1.304 13.174-3.911 3.49-2.57 5.235-6.885 5.235-12.944v-16.166h-1.036c-1.074 2.455-2.684 4.775-4.832 6.961s-4.909 3.97-8.284 5.35c-3.375 1.381-7.402 2.071-12.081 2.071-6.635 0-12.676-1.534-18.122-4.602-5.407-3.107-9.722-7.843-12.944-14.21-3.183-6.404-4.774-14.497-4.774-24.277 0-10.009 1.63-18.37 4.89-25.082 3.26-6.7116 7.593-11.7357 13.001-15.0724 5.446-3.3366 11.41-5.0049 17.891-5.0049 4.948 0 9.09.8437 12.426 2.5312 3.337 1.6492 6.022 3.7202 8.054 6.2131 2.071 2.4545 3.663 4.8707 4.775 7.2485h.921v-14.8423h24.334v89.2268c0 7.517-1.841 13.807-5.522 18.869-3.682 5.063-8.783 8.859-15.303 11.391-6.482 2.569-13.941 3.854-22.379 3.854zm.518-54.652c3.95 0 7.287-.978 10.01-2.934 2.761-1.994 4.871-4.832 6.328-8.514 1.496-3.72 2.244-8.169 2.244-13.347 0-5.177-.729-9.664-2.186-13.461-1.458-3.835-3.567-6.808-6.328-8.917-2.762-2.11-6.118-3.164-10.068-3.164-4.027 0-7.421 1.093-10.182 3.279-2.762 2.148-4.852 5.139-6.271 8.974-1.419 3.836-2.129 8.265-2.129 13.289 0 5.101.71 9.512 2.129 13.232 1.457 3.682 3.548 6.539 6.271 8.572 2.761 1.994 6.155 2.991 10.182 2.991z"/><path d="m642.964 172.786v-88.3638h24.507v88.3638zm12.311-99.7544c-3.643 0-6.769-1.2081-9.377-3.6243-2.569-2.4545-3.854-5.3885-3.854-8.8018 0-3.375 1.285-6.2706 3.854-8.6868 2.608-2.4546 5.734-3.6819 9.377-3.6819 3.644 0 6.75 1.2273 9.32 3.6819 2.608 2.4162 3.912 5.3118 3.912 8.6868 0 3.4133-1.304 6.3473-3.912 8.8018-2.57 2.4162-5.676 3.6243-9.32 3.6243z"/><path d="m718.928 174.512c-9.051 0-16.837-1.918-23.357-5.753-6.481-3.874-11.467-9.243-14.957-16.108-3.452-6.865-5.178-14.766-5.178-23.702 0-9.051 1.745-16.99 5.235-23.817 3.529-6.8646 8.534-12.2148 15.015-16.05 6.482-3.8736 14.191-5.8103 23.127-5.8103 7.709 0 14.459 1.3998 20.25 4.1995s10.374 6.7308 13.749 11.7933 5.235 11.0075 5.58 17.8335h-23.126c-.652-4.41-2.378-7.958-5.178-10.642-2.761-2.723-6.385-4.085-10.873-4.085-3.796 0-7.114 1.036-9.952 3.107-2.8 2.032-4.986 5.005-6.558 8.917-1.573 3.911-2.359 8.648-2.359 14.209 0 5.638.767 10.432 2.301 14.382 1.573 3.95 3.778 6.961 6.616 9.032s6.156 3.107 9.952 3.107c2.8 0 5.312-.576 7.537-1.726 2.262-1.151 4.123-2.819 5.58-5.005 1.496-2.225 2.474-4.89 2.934-7.997h23.126c-.383 6.75-2.224 12.695-5.522 17.834-3.26 5.101-7.767 9.09-13.52 11.966-5.752 2.877-12.56 4.315-20.422 4.315z"/><path d="m868.611 54.9677h24.91v76.5123c0 8.591-2.052 16.108-6.156 22.552-4.065 6.443-9.761 11.467-17.086 15.072-7.325 3.567-15.858 5.35-25.6 5.35-9.78 0-18.332-1.783-25.658-5.35-7.325-3.605-13.02-8.629-17.085-15.072-4.066-6.444-6.099-13.961-6.099-22.552v-76.5123h24.91v74.3843c0 4.487.978 8.476 2.934 11.966 1.995 3.49 4.794 6.232 8.399 8.226 3.605 1.995 7.805 2.992 12.599 2.992 4.833 0 9.032-.997 12.599-2.992 3.605-1.994 6.385-4.736 8.341-8.226 1.995-3.49 2.992-7.479 2.992-11.966z"/><path d="m930.825 54.9677v117.8183h-24.91v-117.8183z"/></g></svg>