<svg width="152" height="152" viewBox="0 0 152 152" fill="none" xmlns="http://www.w3.org/2000/svg">
<path d="M95.3474 4.00451L80.4029 0L67.8085 47.0024L56.4384 4.56832L41.493 8.57283L53.7781 54.4196L23.1793 23.8211L12.2388 34.7616L45.802 68.3249L4.00448 57.1251L0 72.0698L45.6688 84.307C45.1458 82.0516 44.8693 79.7019 44.8693 77.2875C44.8693 60.1974 58.7235 46.3429 75.8139 46.3429C92.904 46.3429 106.758 60.1974 106.758 77.2875C106.758 79.6863 106.485 82.0217 105.969 84.2637L147.473 95.3845L151.477 80.4397L105.627 68.154L147.427 56.9539L143.422 42.0092L97.5738 54.2939L128.173 23.6955L117.232 12.755L84.1344 45.8525L95.3474 4.00451Z" fill="currentColor"/>
<path d="M105.924 84.4372C104.643 89.8541 101.938 94.7208 98.2261 98.6196L128.294 128.688L139.235 117.748L105.924 84.4372Z" fill="currentColor"/>
<path d="M97.9216 98.9349C94.165 102.772 89.418 105.635 84.0944 107.11L95.0357 147.943L109.98 143.939L97.9216 98.9349Z" fill="currentColor"/>
<path d="M83.5387 107.259C81.0687 107.894 78.4799 108.231 75.8121 108.231C72.9538 108.231 70.1861 107.844 67.5584 107.118L56.6072 147.989L71.552 151.993L83.5387 107.259Z" fill="currentColor"/>
<path d="M67.0283 106.968C61.7861 105.419 57.1232 102.52 53.4435 98.6716L23.3014 128.814L34.2418 139.754L67.0283 106.968Z" fill="currentColor"/>
<path d="M53.197 98.4053C49.5804 94.5332 46.9462 89.7317 45.6922 84.3983L4.05213 95.5556L8.05658 110.5L53.197 98.4053Z" fill="currentColor"/>
</svg>
