<svg fill="none" height="193" viewBox="0 0 193 193" width="193" xmlns="http://www.w3.org/2000/svg" xmlns:xlink="http://www.w3.org/1999/xlink"><clipPath id="a"><path d="m.333344.333374h192v192h-192z"/></clipPath><g clip-path="url(#a)"><path clip-rule="evenodd" d="m31.0533 96.9487c0-30.96 21.2785-56.9179 49.92-63.8696v-31.51575c-45.7178 7.39901-80.639956 47.28765-80.639956 95.38535 0 48.0973 34.922156 87.9863 80.639956 95.3843v-31.515c-28.6415-6.952-49.92-32.91-49.92-63.8693zm161.2797 0c0 48.0973-34.922 87.9863-80.64 95.3843v-31.515c28.642-6.952 49.92-32.91 49.92-63.8693 0-30.96-21.278-56.9179-49.92-63.8696v-31.51575c45.718 7.39901 80.64 47.28765 80.64 95.38535z" fill="#000" fill-rule="evenodd"/></g></svg>