<svg fill="none" height="118" viewBox="0 0 791 118" width="791" xmlns="http://www.w3.org/2000/svg"><g fill="#000"><path d="m73.4415 3.08447-11.5112-3.08447-9.7007 36.2036-8.7579-32.68485-11.5116 3.08447 9.4625 35.31358-23.5687-23.5686-8.42691 8.4269 25.85191 25.8521-32.19444-8.6265-3.08446 11.5112 35.1764 9.4256c-.4027-1.7371-.6158-3.5471-.6158-5.4068 0-13.1637 10.6713-23.8349 23.835-23.8349s23.8349 10.6712 23.8349 23.8349c0 1.8477-.2104 3.6466-.6082 5.3734l31.9687 8.566 3.084-11.5113-35.3158-9.463 32.1968-8.6271-3.085-11.5112-35.3147 9.4624 23.5686-23.5684-8.4269-8.42693-25.4933 25.49343z"/><path d="m81.5886 65.0381c-.9869 4.1725-3.0705 7.9209-5.9294 10.9241l23.16 23.1603 8.4268-8.4269z"/><path d="m75.4254 76.2044c-2.8935 2.9552-6.55 5.1606-10.6505 6.297l8.4275 31.4516 11.5113-3.084z"/><path d="m64.345 82.6165c-1.9025.4891-3.8965.749-5.9514.749-2.2016 0-4.3335-.2985-6.3574-.8573l-8.4351 31.4808 11.5112 3.084z"/><path d="m51.6292 82.3922c-4.0379-1.193-7.6294-3.4264-10.4637-6.3902l-23.217 23.2171 8.4269 8.4269z"/><path d="m40.9741 75.7968c-2.7857-2.9824-4.8149-6.6808-5.7807-10.7889l-32.07328 8.5941 3.08444 11.5112z"/><path d="m230.886 72.7605c0 23.184-12.144 36.9835-33.81 36.9835s-33.81-13.7995-33.81-36.9835v-63.342h16.422v64.722c0 12.834 5.796 20.424 17.388 20.424s17.388-7.59 17.388-20.424v-64.722h16.422zm6.294 20.562h24.84v-61.548c0-5.52-2.484-8.004-7.728-8.004h-17.112v-14.21401h17.112c15.456 0 23.736 7.59001 23.736 22.21801v61.548h22.08v14.2135h-62.928zm84.678-78.246h16.008v19.32h26.772v14.214h-26.772v34.914c0 6.072 3.312 9.798 9.384 9.798h17.112v14.2135h-19.182c-16.146 0-23.322-8.2795-23.322-22.3555v-36.57h-19.734v-14.214h19.734zm80.814 19.32 1.104 13.662c2.484-9.384 8.418-13.662 18.078-13.662h15.318v14.214h-14.076c-10.626 0-15.042 5.106-15.042 16.422v28.29h22.494v14.2135h-56.994v-14.2135h18.492v-44.712h-18.492v-14.214zm38.31 22.08c2.898-14.766 15.042-23.736 31.05-23.736 18.078 0 29.532 10.488 29.532 30.636v24.978c0 3.588 1.38 4.968 4.416 4.968h3.312v14.2135h-4.002c-8.832 0-14.076-4.692-15.456-11.1775-2.898 7.0375-11.868 12.8335-23.184 12.8335-14.904 0-26.91-7.866-26.91-20.8375 0-15.042 10.902-20.424 28.704-23.598l17.112-3.312c-.276-9.522-5.658-14.352-13.938-14.352-7.314 0-12.558 4.278-13.938 10.35zm15.732 31.05c.138 4.416 4.002 7.866 12.144 7.866 9.66 0 16.836-6.762 16.836-17.94v-2.622l-13.386 2.346c-9.246 1.518-15.732 2.76-15.594 10.35zm102.48-25.944c-1.242-8.832-7.866-14.49-15.732-14.49-11.178 0-17.664 8.97-17.664 23.874 0 14.766 6.486 23.874 17.664 23.874 8.28 0 14.904-5.796 16.146-15.18l16.974.828c-2.07 17.388-16.008 28.7035-33.12 28.7035-20.976 0-34.5-14.9035-34.5-38.2255s13.524-38.226 34.5-38.226c16.56 0 30.774 11.04 32.706 27.876zm64.392-27.186v58.926h21.252v14.2135h-62.514v-14.2135h25.254v-44.712h-25.254v-14.214zm-16.836-9.522v-15.31801h16.698v15.31801zm59.838-9.798h16.008v19.32h26.772v14.214h-26.772v34.914c0 6.072 3.312 9.798 9.384 9.798h17.112v14.2135h-19.182c-16.146 0-23.322-8.2795-23.322-22.3555v-36.57h-19.734v-14.214h19.734zm48.384 55.89c0-23.322 13.524-38.226 34.638-38.226 16.974 0 32.568 11.04 33.396 37.536v4.83h-50.922c1.104 12.42 7.314 19.734 17.526 19.734 6.624 0 12.558-4.002 15.318-10.764l16.974 1.656c-4.14 14.214-16.974 23.4595-32.292 23.4595-21.114 0-34.638-14.9035-34.638-38.2255zm17.526-7.314h33.12c-1.932-11.73-8.556-16.56-16.008-16.56-9.246 0-15.318 6.21-17.112 16.56z"/></g></svg>