<svg fill="none" height="32" viewBox="0 0 32 32" width="32" xmlns="http://www.w3.org/2000/svg"><g fill="#000"><path d="m20.0741.843095-3.1464-.843095-2.6516 9.89571-2.3938-8.933913-3.14652.843093 2.58642 9.65241-6.44211-6.4421-2.30337 2.30338 7.06626 7.06632-8.799891-2.358-.843089 3.1464 9.61494 2.5764c-.11011-.4749-.16832-.9696-.16832-1.4779 0-3.5981 2.91678-6.51493 6.51498-6.51493 3.5981 0 6.5149 2.91683 6.5149 6.51493 0 .5051-.0576.9967-.1663 1.4688l8.7381 2.3413.843-3.1464-9.653-2.5866 8.8005-2.358-.8432-3.14645-9.6528 2.58635 6.4422-6.44204-2.3035-2.30337-6.9682 6.96823z"/><path d="m22.3007 17.7771c-.2698 1.1405-.8393 2.1651-1.6207 2.9859l6.3304 6.3306 2.3033-2.3034z"/><path d="m20.6159 20.8294c-.7909.8078-1.7903 1.4106-2.9111 1.7212l2.3035 8.5968 3.1464-.843z"/><path d="m17.5878 22.5819c-.5201.1336-1.0651.2047-1.6267.2047-.6018 0-1.1845-.0816-1.7378-.2344l-2.3056 8.6049 3.1464.8429z"/><path d="m14.1117 22.5207c-1.1037-.3262-2.0854-.9366-2.8601-1.7467l-6.346 6.346 2.30336 2.3034z"/><path d="m11.1997 20.7179c-.7614-.8152-1.31605-1.8261-1.58006-2.949l-8.766736 2.349.843086 3.1465z"/></g></svg>