<svg height="137" viewBox="-.7921875 -.7921875 208.740675 27.990625" width="1024" xmlns="http://www.w3.org/2000/svg"><path d="m.9375 0-.9375 3.65625h8.6875l-3.1875 12.75-2.34375 9.40625h5.6875l2.34375-9.40625 3.1875-12.75h8.65625l.90625-3.65625zm173.625.28125c-.4625 1.9-.8875 3.3825-1.3125 4.65625h-2.125l.6875-.4375c1.185-.76875 1.76875-1.16375 1.78125-1.21875-.6325-1.42875-1.1675-2.415-1.65625-2.90625-.0138-.0888-.91625.4625-2.65625 1.59375l-.59375.375c.0125.0275.0838.13375.21875.3125.6125.79625 1.13 1.54625 1.53125 2.28125h-1.75l-.5625 2.625h3.9375l-.28125.53125-.28125.53125h-4.25l-.53125 2.625h2.9375c-1.25375 1.53-2.745 2.75875-4.46875 3.6875l2.75-13.125h-7.59375l-2.84375 13.5625c-.0763.355-.1625.6925-.25 1.03125-.66125 2.62375-1.645 4.9775-2.96875 7.0625.8025.70875 1.45625 1.46875 2 2.28125 1.59125-2.27 2.84125-5.17625 3.78125-8.75h1.65625l-.9375 4.4375c-.0738.6075-.69125.88125-1.8125.78125.23375 1.08625.33375 2.17375.25 3.3125 2.70625-.0175 4.0725-.6275 4.125-1.875l1.53125-7.25.0937-.5c.16875.16875.32625.335.46875.5.365.43.64875.8525.84375 1.28125.415-.205.9075-.52 1.46875-1l-1 3.25h9.09375l-.15625.84375c-.36 1.755-.86625 2.6075-1.5 2.5l.5-2.5h-9.75l-.5625 2.59375h7.9375c.45375.97875.6475 1.98125.5625 3.03125 2.5325-.0825 4.08375-.4725 4.6875-1.1875.18875-.20875.3875-.57125.59375-1.1875.41375-1.23875.89875-3.05 1.5-5.4375l.34375-1.375h-3.375l.1875-.8125.25-1.25c.6.525 1.1325.93375 1.59375 1.25.34125.23375.6425.4125.90625.53125.145-.18125.29375-.36.4375-.53125.87-1.05625 1.69625-1.93625 2.46875-2.65625-2.0375-.58-3.53-1.4125-4.46875-2.5h4.46875l.53125-2.625h-8.03125c.215-.315.415-.65375.5625-1.0625h6.625l.53125-2.625h-2.375c1.0375-1.01375 1.95-1.8475 2.78125-2.5l-2.7812-1.71875c-.89125 1.1375-1.8525 2.245-2.90625 3.3125l1.6875 1.03125h-2.40625l.34375-1.09375.4375-1.09375c.365-.92125.665-1.62125.875-2.0625.02-.18125-.0987-.2725-.46875-.3125-.70125-.11-1.8025-.1825-3.3125-.21875zm16.8125.21875c-.8475.28125-2.165.795-4 1.5625.5775 1.64625.99375 3.28875 1.28125 4.9375.64875-.24625 2.05625-.73 4.1875-1.5-.88875-3.2-1.3975-4.87375-1.46875-5zm3.09375 1.40625-.65625 3.03125h2.5l-1.1875 5.65625h-3.125l-.65625 3.03125h3.15625l-.59375 2.78125-1.90625 9.03125h3.5l1.875-9.03125.59375-2.78125h2.5l-.5 2.28125c-.0362.16875-.0625.33375-.0937.5-.64 3.35125-.31125 5.9725.96875 7.84375.78 1.10875 1.72125 1.5775 2.84375 1.40625 1.1625.06 2.32625-1.81625 3.46875-5.625-1.04-.4725-1.9975-.88875-2.84375-1.25-.5675 1.745-.92 2.31125-1.0625 1.6875-.22375-.89-.1775-2.24375.125-4.0625.0975-.5875.2225-1.21875.375-1.90625l2.65625-12.59375h-11.9375zm-51.90625.3125-1.1875 4.8125h-4.5625l-.875 3.5625h16.6875zm20.125 2.28125h1.65625l-.78125 3.71875h-1.625zm37.09375.4375h2.625l-1.1875 5.65625h-2.625zm-169.3125 1.03125c-3.4675 0-6.475.90625-9.03125 2.71875-2.5425 1.83875-4.19375 4.2475-4.9375 7.21875-.0437.17375-.09.33-.125.5-.57125 2.75875-.065 5.00875 1.53125 6.71875 1.70125 1.8 4.32625 2.6875 7.875 2.6875 6.04875 0 10.685-3.69 11.15625-4.09375l-2.625-.59375c-.6175.1425-3.98 1.11625-7.34375.8125-4.24375-.38125-5.20625-3.48875-4.96875-5.03125h17.03125l.15625-.5.125-.53125c.7725-3.0975.36375-5.53375-1.21875-7.28125-1.595-1.7625-4.1225-2.625-7.625-2.625zm50.46875 0c-3.64875 0-6.94875.94625-9.9375 2.875-2.99375 1.93-4.83 4.32125-5.53125 7.125-.0387.15375-.095.28625-.125.4375-.52375 2.6025.17 4.80375 2.0625 6.59375 2.0075 1.8775 4.84875 2.8125 8.53125 2.8125 2.23125 0 4.5725-.4625 7.03125-1.375l1.4375-5.71875c-1.635 1.25875-3.00625 2.095-4.09375 2.53125-1.1225.45-2.33625.6875-3.65625.6875-2.06875 0-3.63375-.555-4.6875-1.6875-.9325-1.02-1.26625-2.315-1-3.84375.03-.16875.0813-.32625.125-.5.43125-1.7225 1.46875-3.17 3.125-4.3125 1.6525-1.1425 3.52375-1.71875 5.59375-1.71875 1.31875 0 2.38625.22375 3.25.6875.88.44875 1.8025 1.29125 2.75 2.5l1.4375-5.78125c-1.86375-.88625-3.96625-1.3125-6.3125-1.3125zm20.59375 0c-3.46875 0-6.47625.90625-9.03125 2.71875-2.54375 1.83875-4.195 4.2475-4.9375 7.21875-.0437.17375-.0888.33-.125.5-.5725 2.75875-.0675 5.00875 1.53125 6.71875 1.69875 1.8 4.3275 2.6875 7.875 2.6875 6.04625 0 10.68625-3.69 11.15625-4.09375l-2.625-.59375c-.6175.1425-3.98 1.11625-7.34375.8125-4.2425-.38125-5.20875-3.48875-4.96875-5.03125h17.03125l.15625-.5.125-.53125c.775-3.0975.3925-5.53375-1.1875-7.28125-1.595-1.7625-4.1525-2.625-7.65625-2.625zm-44.3125.53125c-2.41 0-4.76625.745-7.0625 2.25l-5.09375-1.71875-2.34375 9.375-2.34375 9.40625h5.53125l2.25-9.0625c.0288-.11625.065-.23875.0937-.34375.575-2.16 1.34625-3.7 2.28125-4.59375 1.0025-.95 2.395-1.40625 4.21875-1.40625 1.6775 0 2.76375.34125 3.21875 1.0625.47375.705.46375 1.9925 0 3.84375l-.25 1.09375-2.375 9.40625h5.53125l2.34375-9.40625.53125-2.125c.66375-2.64875.48125-4.545-.5625-5.71875-1.20375-1.375-3.19875-2.0625-5.96875-2.0625zm70.59375 0c-2.41125 0-4.76375.745-7.0625 2.25l-5.09375-1.71875-2.34375 9.375-2.34375 9.40625h5.53125l2.25-9.0625c.03-.11625.0638-.23875.0937-.34375.5775-2.16 1.34375-3.7 2.28125-4.59375 1.00375-.95 2.3925-1.40625 4.21875-1.40625 1.67625 0 2.7625.34125 3.21875 1.0625.4725.705.46375 1.9925 0 3.84375l-.28125 1.09375-2.34375 9.40625h5.53125l2.34375-9.40625.53125-2.125c.66375-2.64875.48-4.545-.5625-5.71875-1.2025-1.375-3.20125-2.0625-5.96875-2.0625zm56.15625 1.96875-.65625 3.0625h3.09375l-1.03125 4.875-.65625 3.25c-.1425.68-.68625 1.38875-1.625 2.15625-.27625.2275-.44625.37375-.46875.4375.34375 1.07625.95625 2.12625 1.8125 3.09375.0663.0175.4325-.305 1.0625-.9375.94-.99625 3.325-3.1925 7.1875-6.59375-.0125-.0438-.225-.5-.625-1.34375l-.0312-.0625-.5625-1.25-.625.53125c-.3.26375-.59.50625-.84375.71875-.675.585-1.1875 1.01375-1.53125 1.28125l.28125-1.28125 1.65625-7.9375h-6.4375zm-154.375 1.40625c2.9325 0 4.5 1.1525 4.6875 3.46875h-11.03125c.3125-.54.675-1.0125 1.125-1.4375.44625-.4225.95-.79875 1.5-1.09375.565-.31 1.15625-.5325 1.78125-.6875.6275-.1675 1.27-.25 1.9375-.25zm71.0625 0c2.9325 0 4.5025 1.1525 4.6875 3.46875h-11.03125c.315-.54.67875-1.0125 1.125-1.4375.44875-.4225.95625-.79875 1.5-1.09375.57-.31 1.15625-.5325 1.78125-.6875.63-.1675 1.26875-.25 1.9375-.25zm60.71875.9375h1.625l-.71875 3.46875h-1.625zm11.96875.4375h.96875c.12875.37125.3075.74125.53125 1.09375h-2.375l.4375-.5625zm-33.0625.15625-1.25 5-2.375 9.40625h5.5l2.375-9.40625 1.25-5zm29.6875 3.40625h3.90625l-.3125 1.59375-.21875.90625h-2.6875c.1-.335.19-.635.28125-.90625.10375-.3125.1875-.57875.28125-.8125-.13125-.075-.21125-.125-.28125-.125h-1.625z" fill="#006cb6"/></svg>