<svg fill="none" viewBox="0 0 262 52" xmlns="http://www.w3.org/2000/svg"><path d="m59.8019 52-29.9-52-29.89999456 52zm30.1574-2.3672 24.9877-47.26915h-10.808l-17.2372 34.32845-17.2371-34.32845h-10.8083l24.9878 47.26915zm170.2907-47.26915v47.26925h-8.948v-47.26925zm-49.808 29.62635c0-3.6838.769-6.9239 2.307-9.7201s3.682-4.9489 6.432-6.4579c2.749-1.5091 5.965-2.2636 9.647-2.2636 3.262 0 6.198.7101 8.808 2.1304 2.609 1.4203 4.683 3.5286 6.221 6.3248s2.33 6.2138 2.377 10.2528v2.0638h-26.354c.186 2.9294 1.048 5.2374 2.586 6.924 1.585 1.6422 3.705 2.4633 6.362 2.4633 1.677 0 3.215-.4438 4.613-1.3315s2.447-2.0861 3.146-3.5952l9.158.6658c-1.119 3.3288-3.216 5.9919-6.292 7.9892s-6.618 2.9959-10.625 2.9959c-3.682 0-6.898-.7545-9.647-2.2636-2.75-1.509-4.894-3.6617-6.432-6.4579s-2.307-6.0363-2.307-9.7202zm26.564-3.3288c-.326-2.885-1.235-4.9932-2.726-6.3247-1.491-1.3759-3.309-2.0639-5.452-2.0639-2.47 0-4.474.7323-6.012 2.197s-2.494 3.5286-2.866 6.1916zm-41.659-6.3247c1.491 1.1983 2.423 2.8628 2.796 4.9932l9.228-.466c-.327-2.7075-1.282-5.0598-2.866-7.0571-1.585-1.9973-3.636-3.5286-6.152-4.5938-2.47-1.1096-5.196-1.6644-8.179-1.6644-3.682 0-6.897.7545-9.647 2.2636-2.75 1.509-4.893 3.6617-6.431 6.4579s-2.307 6.0363-2.307 9.7201c0 3.6839.769 6.924 2.307 9.7202s3.681 4.9489 6.431 6.4579c2.75 1.5091 5.965 2.2636 9.647 2.2636 3.076 0 5.872-.5548 8.389-1.6644 2.516-1.154 4.567-2.774 6.151-4.8601 1.585-2.086 2.54-4.5272 2.866-7.3234l-9.297-.3994c-.326 2.3523-1.235 4.1721-2.726 5.4592-1.492 1.2428-3.286 1.8642-5.383 1.8642-2.889 0-5.126-.9987-6.711-2.996-1.584-1.9973-2.377-4.8379-2.377-8.5218 0-3.6838.793-6.5244 2.377-8.5217 1.585-1.9973 3.822-2.996 6.711-2.996 2.004 0 3.728.6214 5.173 1.8642zm-45.392-7.9908h8.326l.241 6.7912c.591-1.9223 1.413-3.4151 2.466-4.4784 1.526-1.5419 3.654-2.3128 6.383-2.3128h3.4v7.2689h-3.469c-1.943 0-3.539.2643-4.788.7929-1.203.5287-2.128 1.3657-2.775 2.5111-.602 1.1454-.902 2.5992-.902 4.3613v20.3529h-8.882zm-38.407 7.9242c-1.538 2.7962-2.307 6.0363-2.307 9.7201 0 3.6839.769 6.924 2.307 9.7202s3.681 4.9489 6.431 6.4579c2.75 1.5091 5.965 2.2636 9.647 2.2636 4.008 0 7.55-.9986 10.626-2.9959 3.075-1.9973 5.173-4.6604 6.291-7.9892l-9.158-.6658c-.699 1.5091-1.747 2.7075-3.145 3.5952s-2.936 1.3315-4.614 1.3315c-2.656 0-4.777-.8211-6.361-2.4633-1.538-1.6866-2.4-3.9946-2.587-6.924h26.354v-2.0638c-.046-4.039-.838-7.4566-2.376-10.2528s-3.612-4.9045-6.222-6.3248-5.546-2.1304-8.808-2.1304c-3.682 0-6.897.7545-9.647 2.2636-2.75 1.509-4.893 3.6617-6.431 6.4579zm21.531.0666c1.491 1.3315 2.4 3.4397 2.726 6.3247h-17.057c.373-2.663 1.328-4.7269 2.866-6.1916s3.542-2.197 6.012-2.197c2.144 0 3.961.688 5.453 2.0639z" fill="#000"/></svg>