<svg fill="none" height="96" viewBox="0 0 96 96" width="96" xmlns="http://www.w3.org/2000/svg"><path d="m0 0h96v96h-96z" fill="#60a5fa"/><path d="m48.0447 25-11.1369 19.2932c4.2259-1.3031 8.772-1.4963 13.1788-.4566l3.7639.8886-3.5412 15.019-3.7692-.8886c-2.8955-.6832-5.9137-.0062-8.2479 1.8395-1.1677.9238-2.0876 2.0835-2.718 3.3845l-3.484-1.686c.8814-1.8209 2.17-3.4449 3.7978-4.7337 3.256-2.5778 7.5012-3.5247 11.5435-2.5707l1.7652-7.4853c-6.3232-1.491-12.9872-.0063-18.0817 4.0268-5.094 4.0327-8.0696 10.1803-8.0696 16.6783l50 .0009z" fill="#fff"/></svg>