<svg fill="none" height="96" viewBox="0 0 96 96" width="96" xmlns="http://www.w3.org/2000/svg"><path d="m0 0h96v96h-96z" fill="#000"/><path d="m69.5831 32.1928-19.648-10.7506c-.525-.29-1.1149-.4422-1.7147-.4422s-1.1898.1522-1.7148.4422l-19.648 10.7551c-.5611.307-1.0295.759-1.3562 1.3089-.3268.5498-.4999 1.1773-.5014 1.8169v21.3538c.0015.6396.1746 1.2671.5014 1.8169.3267.5499.7951 1.0019 1.3562 1.3089l19.648 10.7551c.525.29 1.115.4422 1.7148.4422s1.1897-.1522 1.7147-.4422l19.648-10.7551c.5611-.307 1.0295-.759 1.3563-1.3089.3267-.5498.4999-1.1773.5013-1.8169v-21.3516c-.0002-.6407-.1728-1.2696-.4996-1.8207-.3268-.5512-.7959-1.0042-1.358-1.3118zm-21.3627-7.6248 17.9377 9.824-17.9377 9.8241-17.9378-9.8241zm-19.648 12.9499 17.8618 9.7749v19.1545l-17.8618-9.7682zm21.4342 28.9294v-19.1456l17.8618-9.7838v19.1523z" fill="#fff"/></svg>