<svg xmlns="http://www.w3.org/2000/svg" width="100%" height="100%" viewBox="0 0 151 40" fill="none" preserveAspectRatio="xMidYMid meet" aria-hidden="true" role="img">
<g clip-path="url(#clip0_759_340)">
<path d="M51.4284 37.2161L46.0035 36.7233V26.9666C46.0239 26.0121 46.188 24.9845 47.2581 23.9163L47.254 23.9081L58.01 13.025H51.6793L45.5656 22.1629L45.4556 13.3433L43.2627 13.507L36.9591 16.3801V18.7469L40.7958 16.965V36.7829L33.4764 36.8302C33.4139 36.8302 33.3639 36.7801 33.3639 36.7191L33.3488 0L33.1916 0.0704055L28.9372 1.97678C28.9183 1.9849 28.902 1.99979 28.8897 2.01604L5.65535 36.7923C5.63771 36.8194 5.60924 36.837 5.57803 36.841L1.23278 37.4367L0 39.3512H12.2668L13.6217 37.4354L9.20316 36.7504C9.12449 36.7381 9.08381 36.6487 9.12586 36.5811L13.665 29.286C13.6773 29.267 13.6935 29.2521 13.7138 29.2426L21.4266 25.7941C22.1874 25.4543 23.012 25.2782 23.8447 25.2782H27.6502L27.6461 26.6065V26.6119L27.619 36.7246L23.9654 37.2607L22.5739 39.3512H41.2867H51.9735L51.4284 37.2174V37.2161ZM21.4008 23.4856L15.9841 25.9729C15.8824 26.0189 15.7834 25.9051 15.8445 25.8118L27.7166 7.49819L27.7193 10.7842L27.6569 19.8651L27.6515 22.9495L23.8799 22.9454C23.0241 22.9454 22.1766 23.1283 21.3994 23.4856H21.4008Z" fill="currentColor"></path>
<path d="M150.313 32.9646C147.532 34.1494 143.909 35.6061 142.27 35.6061C136.899 35.6061 133.774 31.4982 133.774 25.6425C133.774 25.5139 133.776 25.3865 133.779 25.2592H150.827L148.262 15.3537C146.563 13.8766 143.806 12.6174 141.229 12.6174C134.541 14.2597 128.236 18.3636 128.236 26.9557C128.236 29.4836 128.703 31.6635 129.543 33.4805L125.583 35.1986C125.583 35.1986 124.649 34.5731 124.649 32.381V0.380371L121.85 0.599711L115.335 3.58111L115.728 4.92694L119.435 4.73332V14.1378C118.172 13.5353 115.867 12.658 114.77 12.658C106.756 13.7547 101.322 18.6276 101.322 27.5596C101.322 29.8681 101.656 31.9221 102.317 33.666L98.3514 35.5181C97.8035 34.6421 97.3506 34.2792 97.3506 31.9261V21.3571C97.3506 14.4074 95.597 12.6553 88.6899 12.6553L78.768 17.1694V20.8277H83.4822L84.4138 16.8689C85.6194 16.376 87.4287 15.8831 88.9083 15.8831C91.8688 15.8831 92.1427 17.8531 92.1427 21.1365V22.7856L79.8094 28.3829C78.8615 29.6745 78.2201 30.8307 77.9882 32.224C75.6338 33.4506 70.4056 35.7809 68.4798 35.7809C63.1079 35.7809 59.807 31.4969 59.807 25.6411C59.807 19.7852 62.6577 15.5162 66.3845 15.5162C67.8098 15.5162 68.6317 15.7897 69.5635 16.3922L70.6891 20.8251H74.881V15.3524C73.1817 13.8752 69.8374 12.6161 67.2619 12.6161C60.5746 14.2584 54.2695 18.3622 54.2695 26.9544C54.2695 35.5466 59.4232 39.9795 66.4944 39.9795L78.0085 34.7315C78.6486 38.245 81.8506 40.0471 85.1624 39.9767L92.9104 36.4442L93.8787 39.9064L103.302 35.6562C105.035 38.4035 107.899 39.9781 111.863 39.9781L120.09 36.2276L121.085 39.9754L130.771 35.5439C132.954 38.4481 136.387 39.9767 140.461 39.9767L150.878 35.1715L150.313 32.9605V32.9646ZM140.351 15.5189C141.777 15.5189 142.599 15.7924 143.53 16.395L145.015 22.2711L134.002 22.8302C134.747 18.4124 137.243 15.5189 140.351 15.5189ZM92.1441 33.5834C90.0583 35.2596 87.7731 36.0272 86.2162 36.0272C85.2601 36.0272 83.0983 35.6089 83.0983 32.8184C83.0983 31.6689 83.3722 30.5749 84.1399 29.753L92.1427 26.0595V33.5834H92.1441ZM119.435 32.2537C117.415 34.3591 114.001 35.3489 112.518 35.3489C109.225 35.3489 106.81 32.2186 106.81 26.1366C106.81 19.6701 109.609 15.3997 114.001 15.3997C116.306 15.3997 118.227 16.2216 119.435 17.5919V32.2551V32.2537Z" fill="currentColor"></path>
</g>
<defs>
<clipPath id="clip0_759_340">
<rect width="151" height="40" fill="currentColor"></rect>
</clipPath>
</defs>
</svg>