<svg fill="none" height="90" viewBox="0 0 694 90" width="694" xmlns="http://www.w3.org/2000/svg"><g fill="#000"><path d="m248.261 22.1901h-17.795l21.502 66.3223h19.155l21.502-66.3223h-17.795l-13.465 49.9587z"/><path d="m0 0h18.413v88.5124h-18.413z"/><path d="m36.5788 0h18.4129v88.5124h-18.4129z"/><path d="m73.1551 0h54.4969v14.7521h-36.084v21.0743h33.613v14.7521h-33.613v23.1818h36.084v14.7521h-54.4969z"/><path d="m138.896 0h17.424v88.5124h-17.424z"/><path d="m166.824 55.2893c0-24.1736 11.987-34.5868 30.647-34.5868s29.288 10.2892 29.288 34.8347v3.9669h-42.758c.618 14.3802 4.943 19.2149 13.223 19.2149 6.549 0 10.627-3.843 11.369-10.5372h17.424c-1.112 14.6281-13.222 21.8182-28.793 21.8182-19.772 0-30.4-10.5372-30.4-34.7107zm42.758-7.3141c-.865-12.1488-5.067-16.1157-12.358-16.1157s-11.864 4.0909-13.099 16.1157z"/><path d="m295.962 55.2893c0-24.1736 11.987-34.5868 30.647-34.5868s29.288 10.2892 29.288 34.8347v3.9669h-42.758c.618 14.3802 4.943 19.2149 13.223 19.2149 6.549 0 10.627-3.843 11.369-10.5372h17.424c-1.112 14.6281-13.223 21.8182-28.793 21.8182-19.773 0-30.4-10.5372-30.4-34.7107zm42.757-7.3141c-.865-12.1488-5.066-16.1157-12.357-16.1157s-11.864 4.0909-13.099 16.1157z"/><path d="m438.443 0h18.413v73.7603h34.601v14.7521h-53.014z"/><path clip-rule="evenodd" d="m495.783 55.2893c0-25.2893 11.616-34.5868 26.569-34.5868 7.414 0 14.211 4.2149 16.93 8.6777v-7.1901h17.795v66.3223h-17.301v-7.8099c-2.595 5.2066-9.886 9.2975-17.919 9.2975-15.817 0-26.074-10.1653-26.074-34.7107zm31.141-21.5703c8.65 0 13.346 6.5703 13.346 21.5703s-4.696 21.6942-13.346 21.6942-13.593-6.6942-13.593-21.6942 4.943-21.5703 13.593-21.5703z" fill-rule="evenodd"/><path clip-rule="evenodd" d="m587.847 80.7025v7.8099h-17.3v-88.5124h17.424v29.3802c2.966-4.5868 9.886-8.6777 17.301-8.6777 14.582 0 26.198 9.2975 26.198 34.5868 0 25.2892-11.369 34.7107-26.569 34.7107-8.032 0-14.582-4.0909-17.054-9.2975zm12.482-46.8595c8.65 0 13.593 6.4463 13.593 21.4463s-4.943 21.6942-13.593 21.6942c-8.651 0-13.347-6.6942-13.347-21.6942s4.696-21.4463 13.347-21.4463z" fill-rule="evenodd"/><path d="m638.638 68.8017h17.424c.247 6.9421 3.954 10.2892 10.504 10.2892 6.549 0 10.257-2.9752 10.257-8.1818 0-4.7108-2.842-6.4463-9.021-7.9339l-5.314-1.3636c-15.076-3.843-22.615-7.9339-22.615-20.4546 0-12.5206 11.617-20.4545 26.446-20.4545s26.075 5.8264 26.569 19.5868h-17.425c-.37-6.0744-4.078-8.6777-9.391-8.6777-5.314 0-9.022 2.6033-9.022 7.562 0 4.5867 2.966 6.3223 8.157 7.5619l5.437 1.3637c14.335 3.595 23.356 7.1901 23.356 20.5785s-11.863 21.3223-27.928 21.3223c-17.425 0-27.064-6.5703-27.434-21.1983z"/><path d="m384.072 49.4628c0-10.4132 4.943-16.1157 12.605-16.1157 6.302 0 9.886 3.9669 9.886 12.5207v42.6446h17.424v-45.3719c0-15.3719-8.65-22.438-21.255-22.438-8.527 0-15.57 4.3388-18.66 10.0413v-8.5537h-17.671v66.3223h17.671z"/></g></svg>