<svg
  fill="none"
  viewBox="0 0 166 28"
  xmlns="http://www.w3.org/2000/svg"
>
  <path
    d="M0.763672 18.421V11.0396C0.763672 9.95391 1.28684 8.93453 2.16929 8.30075L11.7193 1.44191C12.3333 1.00091 13.0704 0.763672 13.8266 0.763672H13.8567C14.6419 0.763672 15.4014 1.00802 16.0341 1.46254C18.1364 2.97267 23.1112 6.54527 25.5559 8.30091C26.4384 8.93465 26.9615 9.95391 26.9615 11.0396V16.9606C26.9615 18.0463 26.4381 19.0655 25.5554 19.6989L16.0145 26.5445C15.3874 26.9945 14.6347 27.2366 13.8626 27.2366C13.0876 27.2366 12.3324 26.9941 11.7027 26.543C10.454 25.6487 8.44606 24.2068 8.44606 24.2068V15.0961C8.44606 14.9762 8.58184 14.9067 8.67923 14.9767L13.7766 18.6372C13.828 18.6741 13.8972 18.6741 13.9485 18.6372L20.2396 14.1195C20.3213 14.0608 20.3213 13.9394 20.2396 13.8807L13.9485 9.36305C13.8972 9.32616 13.828 9.32616 13.7766 9.36305L0.996839 18.5404C0.899451 18.6104 0.763672 18.5408 0.763672 18.421Z"
    fill="currentColor"
  />
  <path
    d="M58.9434 25.7926V9.05794H62.7943V11.8312H62.8418C63.1482 10.8698 63.6289 10.1408 64.2839 9.64428C64.9495 9.14774 65.8211 8.89946 66.8987 8.89946C67.1734 8.89946 67.4164 8.90475 67.6277 8.91531C67.8496 8.92588 68.0397 8.94172 68.1982 8.96285V12.5126C68.0609 12.4915 67.8126 12.4651 67.4534 12.4334C67.0942 12.4017 66.7138 12.3858 66.3124 12.3858C65.6891 12.3858 65.1186 12.5338 64.6009 12.8296C64.0938 13.1148 63.687 13.548 63.3806 14.129C63.0848 14.7101 62.9369 15.4391 62.9369 16.316V25.7926H58.9434Z"
    fill="currentColor"
  />
  <path
    d="M76.8279 26.1729C75.1904 26.1729 73.7483 25.8084 72.5017 25.0795C71.2656 24.3399 70.2989 23.3151 69.6016 22.0051C68.9149 20.6951 68.5716 19.1737 68.5716 17.4411C68.5716 15.7085 68.9149 14.1871 69.6016 12.8771C70.2989 11.5565 71.2656 10.5264 72.5017 9.78691C73.7483 9.04737 75.1904 8.6776 76.8279 8.6776C78.4761 8.6776 79.9181 9.04737 81.1542 9.78691C82.3903 10.5264 83.3517 11.5565 84.0384 12.8771C84.7357 14.1871 85.0843 15.7085 85.0843 17.4411C85.0843 19.1737 84.7357 20.6951 84.0384 22.0051C83.3517 23.3151 82.3903 24.3399 81.1542 25.0795C79.9181 25.8084 78.4761 26.1729 76.8279 26.1729ZM76.8279 22.8292C77.6837 22.8292 78.4232 22.6126 79.0466 22.1794C79.6804 21.7463 80.1664 21.1282 80.5045 20.3253C80.8531 19.5118 81.0275 18.5504 81.0275 17.4411C81.0275 16.3212 80.8531 15.3598 80.5045 14.5569C80.1664 13.7434 79.6804 13.1201 79.0466 12.6869C78.4232 12.2432 77.6837 12.0214 76.8279 12.0214C75.9722 12.0214 75.2274 12.2432 74.5935 12.6869C73.9596 13.1201 73.4683 13.7434 73.1197 14.5569C72.7816 15.3598 72.6126 16.3212 72.6126 17.4411C72.6126 18.561 72.7816 19.5224 73.1197 20.3253C73.4683 21.1282 73.9596 21.7463 74.5935 22.1794C75.2274 22.6126 75.9722 22.8292 76.8279 22.8292Z"
    fill="currentColor"
  />
  <path
    d="M104.42 26.1729C102.782 26.1729 101.34 25.8084 100.094 25.0795C98.8575 24.3399 97.8908 23.3151 97.1935 22.0051C96.5068 20.6951 96.1634 19.1737 96.1634 17.4411C96.1634 15.7085 96.5068 14.1871 97.1935 12.8771C97.8908 11.5565 98.8575 10.5264 100.094 9.78691C101.34 9.04737 102.782 8.6776 104.42 8.6776C106.068 8.6776 107.51 9.04737 108.746 9.78691C109.982 10.5264 110.944 11.5565 111.63 12.8771C112.328 14.1871 112.676 15.7085 112.676 17.4411C112.676 19.1737 112.328 20.6951 111.63 22.0051C110.944 23.3151 109.982 24.3399 108.746 25.0795C107.51 25.8084 106.068 26.1729 104.42 26.1729ZM104.42 22.8292C105.276 22.8292 106.015 22.6126 106.638 22.1794C107.272 21.7463 107.758 21.1282 108.096 20.3253C108.445 19.5118 108.619 18.5504 108.619 17.4411C108.619 16.3212 108.445 15.3598 108.096 14.5569C107.758 13.7434 107.272 13.1201 106.638 12.6869C106.015 12.2432 105.276 12.0214 104.42 12.0214C103.564 12.0214 102.819 12.2432 102.185 12.6869C101.551 13.1201 101.06 13.7434 100.712 14.5569C100.374 15.3598 100.204 16.3212 100.204 17.4411C100.204 18.561 100.374 19.5224 100.712 20.3253C101.06 21.1282 101.551 21.7463 102.185 22.1794C102.819 22.6126 103.564 22.8292 104.42 22.8292Z"
    fill="currentColor"
  />
  <path
    d="M156.203 26.1254C154.756 26.1254 153.483 25.7609 152.384 25.0319C151.296 24.3029 150.451 23.2834 149.849 21.9734C149.257 20.6634 148.961 19.142 148.961 17.4094C148.961 15.6979 149.262 14.1871 149.865 12.8771C150.467 11.5671 151.312 10.5476 152.4 9.8186C153.488 9.08963 154.745 8.72514 156.172 8.72514C156.901 8.72514 157.577 8.82551 158.2 9.02624C158.834 9.21641 159.405 9.51222 159.912 9.91369C160.419 10.3151 160.852 10.8223 161.211 11.435H161.243V2.18025H165.236V25.7926H161.306V23.2412H161.275C160.926 23.8856 160.493 24.4244 159.975 24.8576C159.468 25.2802 158.892 25.5971 158.248 25.8084C157.614 26.0197 156.932 26.1254 156.203 26.1254ZM157.138 22.7816C158.015 22.7816 158.776 22.565 159.42 22.1319C160.065 21.6882 160.567 21.0648 160.926 20.2619C161.285 19.4484 161.465 18.4976 161.465 17.4094C161.465 16.3212 161.285 15.3757 160.926 14.5728C160.567 13.7698 160.065 13.1465 159.42 12.7028C158.776 12.2591 158.015 12.0372 157.138 12.0372C156.325 12.0372 155.606 12.2485 154.983 12.6711C154.36 13.0831 153.874 13.6906 153.525 14.4935C153.177 15.2859 153.002 16.2578 153.002 17.4094C153.002 18.561 153.177 19.5382 153.525 20.3411C153.874 21.1441 154.36 21.7515 154.983 22.1636C155.606 22.5756 156.325 22.7816 157.138 22.7816Z"
    fill="currentColor"
  />
  <path
    clip-rule="evenodd"
    d="M40.013 25.7926V2.18025H49.03C50.7627 2.18025 52.2576 2.48663 53.5148 3.09939C54.7826 3.71215 55.7545 4.58374 56.4307 5.71418C57.1174 6.84461 57.4608 8.18106 57.4608 9.72352C57.4608 11.2765 57.1121 12.6183 56.4148 13.7487C55.7176 14.8791 54.7298 15.756 53.4514 16.3793C52.1836 16.9921 50.6834 17.2985 48.9508 17.2985H44.1967V25.7926H40.013ZM51.217 13.2416C50.5408 13.5585 49.7326 13.717 48.7923 13.717H44.1967V5.76172H48.7923C49.7326 5.76172 50.5408 5.92547 51.217 6.25298C51.9037 6.56993 52.4266 7.02421 52.7858 7.61584C53.1556 8.1969 53.3405 8.89946 53.3405 9.72352C53.3405 10.5476 53.1556 11.2607 52.7858 11.8629C52.4266 12.4545 51.9037 12.9141 51.217 13.2416Z"
    fill="currentColor"
    fill-rule="evenodd"
  />
  <path
    d="M95.8059 9.05794V12.2749H92.3988V25.7926H88.3894V12.2749H85.3785V9.05794H88.3894V6.61747C88.3894 5.65607 88.5849 4.84786 88.9758 4.19285C89.3667 3.52726 89.9372 3.02543 90.6873 2.68736C91.4479 2.34929 92.3777 2.18025 93.4764 2.18025H94.8868H95.8059V5.39723H95.1087H94.2687C93.5926 5.39723 93.1119 5.53986 92.8267 5.82511C92.5414 6.11036 92.3988 6.59634 92.3988 7.28305V9.05794H95.8059Z"
    fill="currentColor"
  />
  <path
    d="M120.434 26.1254C119.272 26.1254 118.242 25.8771 117.344 25.3806C116.446 24.8734 115.744 24.1286 115.236 23.1461C114.729 22.153 114.476 20.9433 114.476 19.5171V9.05794H118.469V18.8832C118.469 20.1087 118.765 21.0384 119.357 21.6723C119.959 22.3062 120.788 22.6231 121.845 22.6231C122.553 22.6231 123.181 22.4805 123.731 22.1953C124.28 21.91 124.713 21.4663 125.03 20.8641C125.347 20.2513 125.505 19.4695 125.505 18.5187V9.05794H129.515V25.7926H125.585V23.1893C125.16 23.8981 124.658 24.4859 124.079 24.9527C123.107 25.7345 121.892 26.1254 120.434 26.1254Z"
    fill="currentColor"
  />
  <path
    d="M136.1 16.3318V25.7926H132.107V9.05794H136.037V11.6491C136.458 10.9434 136.956 10.3564 137.527 9.89784C138.509 9.11604 139.724 8.72514 141.171 8.72514C142.344 8.72514 143.379 8.9787 144.277 9.48581C145.175 9.98236 145.878 10.7219 146.385 11.7044C146.892 12.6869 147.146 13.8966 147.146 15.3334V25.7926H143.136V15.9673C143.136 14.7418 142.841 13.8121 142.249 13.1782C141.668 12.5443 140.839 12.2274 139.761 12.2274C139.064 12.2274 138.44 12.37 137.891 12.6552C137.342 12.9405 136.903 13.3842 136.576 13.9864C136.259 14.5886 136.1 15.3704 136.1 16.3318Z"
    fill="currentColor"
  />
</svg>