<svg fill="none" height="96" viewBox="0 0 96 96" width="96" xmlns="http://www.w3.org/2000/svg" xmlns:xlink="http://www.w3.org/1999/xlink"><filter id="a" color-interpolation-filters="sRGB" filterUnits="userSpaceOnUse" height="132.113" width="132.113" x="-35.798" y="17.8944"><feFlood flood-opacity="0" result="BackgroundImageFix"/><feBlend in="SourceGraphic" in2="BackgroundImageFix" mode="normal" result="shape"/><feGaussianBlur result="effect1_foregroundBlur_94_95" stdDeviation="16.1309"/></filter><filter id="b" color-interpolation-filters="sRGB" filterUnits="userSpaceOnUse" height="114.58" width="114.58" x="22.727" y="47.395"><feFlood flood-opacity="0" result="BackgroundImageFix"/><feBlend in="SourceGraphic" in2="BackgroundImageFix" mode="normal" result="shape"/><feGaussianBlur result="effect1_foregroundBlur_94_95" stdDeviation="13.2004"/></filter><linearGradient id="c" gradientUnits="userSpaceOnUse" x1="48" x2="48" y1="0" y2="96"><stop offset="0" stop-color="#6c4dff"/><stop offset="1" stop-color="#583ed3"/></linearGradient><linearGradient id="d" gradientUnits="userSpaceOnUse" x1="39.9923" x2="84.9014" y1="26.587" y2="104.371"><stop offset="0" stop-color="#fff" stop-opacity=".8"/><stop offset=".437689" stop-color="#fff"/></linearGradient><clipPath id="e"><path d="m0 0h96v96h-96z"/></clipPath><clipPath id="f"><path d="m0 0h96v96h-96z"/></clipPath><g clip-path="url(#e)"><path d="m0 0h96v96h-96z" fill="url(#c)"/><g clip-path="url(#f)"><path d="m75.2842 0h-54.5684c-11.44103 0-20.7158 9.27477-20.7158 20.7158v54.5684c0 11.441 9.27477 20.7158 20.7158 20.7158h54.5684c11.441 0 20.7158-9.2748 20.7158-20.7158v-54.5684c0-11.44103-9.2748-20.7158-20.7158-20.7158z" fill="#000"/><path d="m75.2842 0h-54.5684c-11.44103 0-20.7158 9.27477-20.7158 20.7158v54.5684c0 11.441 9.27477 20.7158 20.7158 20.7158h54.5684c11.441 0 20.7158-9.2748 20.7158-20.7158v-54.5684c0-11.44103-9.2748-20.7158-20.7158-20.7158z" fill="url(#c)"/><g filter="url(#a)"><path d="m30.2583 117.745c18.6641 0 33.7944-15.13 33.7944-33.7944 0-18.6641-15.1303-33.7944-33.7944-33.7944-18.6642 0-33.79443 15.1303-33.79443 33.7944 0 18.6644 15.13023 33.7944 33.79443 33.7944z" fill="#28b894" fill-opacity=".4"/></g><g filter="url(#b)"><path d="m80.0168 135.574c17.0595 0 30.8892-13.83 30.8892-30.889 0-17.0597-13.8297-30.8891-30.8892-30.8891-17.0594 0-30.8889 13.8294-30.8889 30.8891 0 17.059 13.8295 30.889 30.8889 30.889z" fill="#28b894" opacity=".7"/></g><path d="m73.4211 7.50692c.9408-.8439.998-.87894 1.6877-.92034 1.1181-.08172 2.1423.45585 3.8856 2.04273 4.0734 3.70149 9.7467 11.31139 13.2732 17.81009l1.3615 2.5224 1.9265.958c1.8582.939 4.9044 2.8641 6.1774 3.8964.575.4758.657.4854 1.255.2526 2.702-1.0518 6.571.3423 9.984 3.6168 3.073 2.9448 6.017 7.9749 7.144 12.1743.165.6759.381 2.1297.461 3.2118.257 3.7989-.96 6.834-3.306 8.2077-.48.2766-.512.351-.498 1.5459.108 5.6898-1.426 11.3697-4.507 16.9083-3.478 6.2193.327 22.6544-8.055 28.7154-4.5012 3.275-25.1491-.52-29.9635 1.658-11.5335 5.193-20.781 7.183-28.8123 6.199-4.7901-.581-10.2105-2.451-13.4187-4.621-.8445-.584-.9798-.62-1.6248-.435-3.4347.986-7.9334-1.042-11.7548-5.284-1.5242-1.696-3.9826-5.859-4.78-8.086-1.8446-5.2137-1.4805-9.9189.9764-12.7287.6348-.7236.6557-.7533.5171-1.9695-.229-1.9923-.3317-4.9419-.2271-6.8445l.0837-1.7772-2.6709-4.7196c-4.13154-7.3515-6.75525-13.5252-7.7679-18.2415-.53439-2.5857-.50049-3.7335.15546-4.5825.3996-.5127 1.71042-1.0461 3.29034-1.338 3.9776-.6981 12.652-.0666 22.3013 1.6371l1.0017.1761 2.2035-1.9488c3.6567-3.2391 6.0855-5.0556 10.5636-7.848 4.6677-2.9205 9.936-5.3241 15.8682-7.2264l1.9047-.6092 1.0452-2.7482c3.7458-9.8882 7.5832-17.17781 10.3189-19.60418zm-31.3816 50.67528c-4.2327 2.4435-6.3483 3.6672-7.9038 5.0367-6.2994 5.5473-8.6537 14.3337-5.9718 22.2873.6624 1.9641 1.8837 4.0827 4.3278 8.3166 2.4438 4.2327 3.6675 6.3482 5.037 7.9032 5.547 6.3 14.3334 8.654 22.2873 5.972 1.9635-.662 4.0812-1.882 8.3139-4.326l34.3571-4.0627c4.234-2.4441-3.6494-13.6687-2.094-15.0382 6.3-5.5473 8.654-14.3337 5.972-22.2873-.662-1.9638-1.883-4.0812-4.326-8.3139-2.4448-4.2336-3.669-6.3507-5.0388-7.9062-5.547-6.2997-14.3335-8.6538-22.2874-5.9721-1.9638.6624-4.0827 1.8837-8.3163 4.3281z" fill="url(#d)"/><g fill="#fff"><path d="m48.554 72.7967c-2.301 1.3285-3.0894 4.2708-1.7609 6.5717l5.1809 8.9737c1.3285 2.301 4.2708 3.0893 6.5718 1.7609v-.0001c2.301-1.3284 3.0893-4.2707 1.7609-6.5717l-5.181-8.9736c-1.3284-2.301-4.2707-3.0894-6.5717-1.7609z"/><path d="m74.514 57.8084v.0001c-2.301 1.3284-3.0894 4.2707-1.7609 6.5717l5.1809 8.9736c1.3285 2.301 4.2707 3.0893 6.5717 1.7609 2.301-1.3285 3.0894-4.2708 1.7609-6.5718l-5.1809-8.9736c-1.3285-2.301-4.2707-3.0893-6.5717-1.7609z"/></g></g></g></svg>