<svg fill="#fa0c00" viewBox="0 0 54.424461 14.339843" xmlns="http://www.w3.org/2000/svg"><path d="m5.996094 0h-5.996094v14.339843zm0 0"/><path d="m10.214844 0h5.988281v14.339843zm0 0"/><path d="m8.105469 5.285156 3.816406 9.054687h-2.503906l-1.140625-2.882812h-2.792969zm0 0"/><path d="m25.985303 9.11922.707031 2.027344c.02344.05078.05859.07422.121094.07422h1.359375c.07422 0 .08594-.03516.07422-.109375l-2.808595-7.800782c-.01172-.0625-.02344-.074219-.08594-.074219h-1.6875c-.04687 0-.07422.035156-.07422.085937-.02344.410157-.05859.535157-.109375.65625l-2.503906 7.121094c-.01172.08594.01563.121094.08594.121094h1.214843c.07422 0 .109375-.02344.136719-.09766l.66797-2.003903zm-2.515625-1.324218c.367187-1.109375.851562-2.53125 1.046875-3.34375h.01172c.242188.851562.8125 2.539062 1.070313 3.34375zm0 0"/><path d="m31.857666 11.341877c.730469 0 1.507813-.132813 2.296875-.472657.0625-.02344.07422-.05078.07422-.109375-.02344-.21875-.05078-.535156-.05078-.777343v-7.34375c0-.046875 0-.070313-.05859-.070313h-1.324219c-.05078 0-.07422.023438-.07422.085938v2.488281c-.207036-.023438-.351567-.035156-.523442-.035156-2.136719 0-3.449219 1.410156-3.449219 3.171875 0 2.042968 1.347656 3.0625 3.109375 3.0625zm.863281-1.359375c-.21875.070312-.460937.097656-.707031.097656-.96875 0-1.761719-.546875-1.761719-1.875 0-1.175781.816407-1.871094 1.898438-1.871094.21875 0 .410156.023438.570312.085938zm0 0"/><path d="m38.453285 5.107502c-1.824219 0-2.953125 1.398437-2.953125 3.125 0 1.542968.898438 3.109375 2.925781 3.109375 1.714844 0 2.917969-1.261719 2.917969-3.148438 0-1.664062-1.019531-3.085937-2.890625-3.085937zm-.07422 1.226562c1.03125 0 1.46875.886719 1.46875 1.898438 0 1.25-.644531 1.871093-1.394531 1.871093-.925781 0-1.472656-.777343-1.472656-1.898437 0-1.152344.582031-1.871094 1.398437-1.871094zm0 0"/><path d="m42.712968 2.568439c-.05078 0-.08594.023438-.08594.085938v8.3125c0 .03516.03516.09766.08594.109375.582031.179687 1.191406.265625 1.820312.265625 1.800781 0 3.550781-1.117188 3.550781-3.367188 0-1.628906-1.117187-2.867187-2.867187-2.867187-.402344 0-.777344.0625-1.105469.171875l-.015625-2.613282c0-.085937-.02344-.097656-.109375-.097656zm3.875 5.554688c0 1.347656-.921875 1.980468-1.917969 1.980468-.207031 0-.390625-.01172-.558594-.0625v-3.546875c.191406-.074218.421875-.136718.847656-.136718.960938 0 1.628907.609375 1.628907 1.765625zm0 0"/><path d="m53.026024 8.560627c.59375 0 1.082031-.011719 1.25-.050782.0625-.011718.08594-.035156.09766-.085937.03516-.132813.05078-.410156.05078-.75 0-1.15625-.695312-2.566406-2.492187-2.566406-1.835938 0-2.855469 1.496093-2.855469 3.183593 0 1.496094.789063 3.050782 3 3.050782.828125 0 1.363281-.132813 1.824219-.351563.04687-.02344.07031-.0625.07031-.132812v-1.011719c0-.058594-.03516-.070313-.07031-.046875-.460938.195312-.960938.292969-1.507813.292969-1.238281 0-1.800781-.683594-1.835937-1.53125zm-2.46875-1.046875c.09766-.59375.472656-1.238282 1.3125-1.238282.925781 0 1.167969.777344 1.167969 1.128907v.097656c-.05078.011719-.207032.011719-.667969.011719zm0 0"/></svg>