<svg fill="none" height="209" viewBox="0 0 501 209" width="501" xmlns="http://www.w3.org/2000/svg"><g fill="#000"><path d="m121.841 108.198h-16.524l8.302-25.9048zm22.329 26.646-21.752-62.4315h-17.181l-21.6652 62.4315h13.3627l4.9805-15.443h23.496l5.062 15.443z"/><path d="m12.6648 144.81v62.43h12.4431v-62.43z"/><path d="m42.2928 161.996h-11.8726v45.242h12.457v-23.409c0-9.047 2.6504-13.281 8.3831-13.281 2.6568 0 4.8979 1.247 6.1399 3.235.8326 1.494 1.0808 2.992 1.0808 6.892v26.563h12.4505v-25.651c0-8.053-.4963-10.958-2.3227-13.865-2.7385-4.316-7.3904-6.718-13.1145-6.718-5.564 0-10.2954 2.402-13.2015 6.637z"/><path d="m113.603 176.44c.08-9.878-6.974-15.771-19.0945-15.771-11.7039 0-19.1749 5.645-19.1749 14.363 0 3.315 1.4096 6.637 3.8999 8.879 2.8244 2.577 5.8111 3.738 14.1136 5.484 6.141 1.322 8.3829 2.818 8.3829 5.643 0 2.652-2.7393 4.397-6.8863 4.397-5.2342 0-7.9727-2.491-7.8868-7.304h-12.704c.1675 10.545 7.5568 16.438 20.5049 16.438 12.2882 0 19.9262-5.646 19.9262-14.692 0-6.893-4.068-11.046-13.034-13.369l-8.9679-2.322c-3.4024-.914-4.899-2.161-4.899-4.154 0-2.739 2.3281-4.396 6.229-4.396 5.0602 0 7.1399 1.907 7.3879 6.804z"/><path d="m142.141 161.996h-7.303v-10.958h-12.456v10.958h-6.638v9.384h6.638v20.752c0 5.978.498 8.549 2.241 11.12 2.324 3.49 5.733 4.986 11.29 4.986 2.577 0 3.905-.166 6.228-.751v-9.295c-1.497.166-1.993.247-2.571.247-3.409 0-4.732-1.905-4.732-6.805v-20.254h7.303z"/><path d="m147.068 144.81v11.952h12.456v-11.952zm0 17.181v45.249h12.456v-45.249z"/><path d="m190.246 161.996h-7.302v-10.958h-12.457v10.958h-6.637v9.384h6.637v20.752c0 5.978.499 8.549 2.242 11.12 2.323 3.49 5.732 4.986 11.289 4.986 2.578 0 3.906-.166 6.228-.751v-9.295c-1.496.166-1.993.247-2.571.247-3.408 0-4.731-1.905-4.731-6.805v-20.254h7.302z"/><path d="m224.354 207.24h11.872v-45.241h-12.457v23.408c0 4.9-.408 7.39-1.657 9.383-1.497 2.49-3.986 3.898-6.725 3.898-2.656 0-4.899-1.159-6.141-3.233-.831-1.497-1.08-2.993-1.08-6.893v-26.563h-12.451v25.649c0 8.055.497 10.96 2.323 13.867 2.738 4.316 7.471 6.718 13.114 6.718 5.484 0 10.214-2.402 13.202-6.637z"/><path d="m266.848 161.996h-7.303v-10.958h-12.457v10.958h-6.637v9.384h6.637v20.752c0 5.978.498 8.549 2.242 11.12 2.323 3.49 5.732 4.986 11.289 4.986 2.578 0 3.905-.166 6.229-.751v-9.295c-1.497.166-1.993.247-2.571.247-3.409 0-4.732-1.905-4.732-6.805v-20.254h7.303z"/><path d="m301.602 179.346h-19.341c.992-6.141 4.395-9.296 9.877-9.296 5.478 0 9.215 3.732 9.464 9.296zm12.866 6.061c0-15.195-8.55-24.739-22.249-24.739-13.531 0-22.664 9.544-22.664 23.659 0 14.778 8.967 24.24 23.081 24.24 11.208 0 18.926-5.314 21.752-15.107h-13.202c-1.329 3.571-4.154 5.396-8.302 5.396-6.309 0-10.208-3.819-10.543-10.461h32.047c.08-1.33.08-2.492.08-2.988z"/><path d="m.970612.00161877v10.96038123h20.255688v51.4633h13.1145v-51.4633h20.175v-10.96038123z"/><path d="m57.9623 62.43h12.4495v-22.2486c0-9.7121 2.7438-14.3629 8.4701-14.3629 5.2299 0 7.2228 2.9072 7.2228 10.2954v26.3161h12.4495v-27.644c0-6.9746-.9948-10.5446-3.6517-13.6119-2.6579-3.0737-7.2207-5.0666-11.7049-5.0666-4.8131 0-9.5445 2.4087-12.7858 6.4762v-22.58374578h-12.4495z"/><path d="m134.049 34.5369h-19.343c.993-6.141 4.397-9.2952 9.879-9.2952 5.477 0 9.215 3.7323 9.464 9.2952zm12.865 6.0604c0-15.1944-8.55-24.7389-22.248-24.7389-13.53 0-22.664 9.5445-22.664 23.6581 0 14.7797 8.967 24.2425 23.079 24.2425 11.21 0 18.928-5.3147 21.752-15.1085h-13.2c-1.329 3.5701-4.154 5.3964-8.302 5.3964-6.309 0-10.209-3.8192-10.544-10.4619h32.046c.081-1.33.081-2.4914.081-2.9877z"/><path d="m147.033 134.844h12.451v-62.4312h-12.451z"/><path d="m193.803 114.253c0 8.134-3.65 12.785-10.046 12.785-3.982 0-6.806-2.24-6.806-5.309 0-3.49 3.074-5.234 10.873-6.476l4.321-.666c.162-.084.746-.166 1.658-.334zm11.704.832c.082-3.322.082-5.315.082-6.309 0-8.382-.994-11.9529-4.395-15.2747-3.323-3.4025-8.552-5.2289-15.109-5.2289-12.122 0-19.758 5.8122-20.341 15.5246h12.784c.248-4.4836 2.826-6.7257 7.805-6.7257 5.147 0 7.39 2.7385 7.47 9.1287-5.477.335-12.865 1.416-16.933 2.495-8.636 2.074-12.872 6.558-12.872 13.444 0 8.053 6.725 13.698 16.444 13.698 7.301 0 11.865-2.404 15.188-7.966v1.825c0 1.745.08 2.658.415 5.148h10.711c-.913-3.819-1.249-8.302-1.249-15.524z"/><path d="m223.579 89.5995h-11.873v45.2415h12.457v-23.409c0-9.048 2.651-13.2829 8.382-13.2829 2.657 0 4.899 1.2494 6.141 3.2349.832 1.498 1.081 2.994 1.081 6.894v26.563h12.451v-25.651c0-8.053-.498-10.9603-2.323-13.8653-2.739-4.3167-7.391-6.7179-13.116-6.7179-5.563 0-10.295 2.4012-13.2 6.6373z"/><path d="m291.052 134.843h13.114v-51.4698h20.174v-10.9604h-53.544v10.9604h20.256z"/><path d="m343.108 134.843h11.873v-45.2418h-12.457v23.4088c0 4.9-.408 7.39-1.658 9.383-1.495 2.49-3.986 3.898-6.725 3.898-2.657 0-4.899-1.159-6.14-3.235-.833-1.494-1.081-2.992-1.081-6.892v-26.5628h-12.45v25.6508c0 8.053.497 10.958 2.322 13.866 2.739 4.316 7.471 6.718 13.115 6.718 5.482 0 10.215-2.402 13.201-6.638z"/><path d="m361.28 134.843h12.45v-20.007c0-11.121 3.323-15.4432 11.792-15.4432 1.328 0 2.155.087 3.483.4158v-10.7918c-1.162-.4158-1.905-.4964-3.316-.4964-5.65 0-10.133 2.4893-12.536 6.9725v-5.8917h-11.873z"/><path d="m394.199 84.3673h12.45v-11.9542h-12.45zm12.45 5.2331h-12.45v45.2436h12.45z"/><path d="m425.495 89.5995h-11.873v45.2415h12.457v-23.409c0-9.048 2.651-13.2829 8.383-13.2829 2.656 0 4.898 1.2494 6.14 3.2349.831 1.498 1.081 2.994 1.081 6.894v26.563h12.45v-25.651c0-8.053-.496-10.9603-2.322-13.8653-2.739-4.3167-7.39-6.7179-13.116-6.7179-5.563 0-10.294 2.4012-13.2 6.6373z"/><path d="m488.96 111.268c0 7.222-3.651 12.034-9.048 12.034-5.395 0-8.878-4.894-8.878-12.45 0-7.39 3.65-12.4505 8.966-12.4505 5.476 0 8.96 4.9795 8.96 12.8665zm12.04 14.194v-35.8594h-11.207v5.6446c-3.403-4.7324-7.222-6.7253-12.617-6.7253-11.122 0-18.928 9.2963-18.928 22.4111 0 13.281 7.302 22.087 18.263 22.087 5.812 0 9.463-1.832 12.784-6.31v4.732c0 8.215-2.738 11.785-8.966 11.785-4.483 0-7.551-2.242-7.805-5.725h-12.369c.831 9.129 8.302 14.524 20.006 14.524 10.877 0 17.601-4.397 19.926-13.114.829-3.242.913-4.483.913-13.45z"/></g></svg>