<svg width="656" height="82" viewBox="0 0 656 82" fill="none" xmlns="http://www.w3.org/2000/svg">
<path d="M12.6274 74.4345C11.2736 74.4345 10.1332 74.2021 9.20658 73.7396C8.28248 73.277 7.58196 72.5722 7.11238 71.6423C6.6428 70.7123 6.40193 69.5744 6.40193 68.2382V54.4603C6.40193 52.7618 6.06159 51.5261 5.3883 50.7551C4.7102 49.9866 3.50774 49.5805 1.78366 49.5412C1.24714 49.5412 0.817277 49.3406 0.49184 48.932C0.161438 48.5281 0 48.0608 0 47.5394C0 46.9741 0.161438 46.5068 0.49184 46.1421C0.81984 45.7774 1.2545 45.5767 1.78366 45.5377C3.50774 45.496 4.7102 45.0923 5.3883 44.3238C6.06656 43.5554 6.40193 42.3392 6.40193 40.68V26.902C6.40193 24.8781 6.93845 23.3387 8.00429 22.2889C9.06997 21.2391 10.6128 20.7104 12.6274 20.7104H29.0684C29.6869 20.7104 30.1962 20.8939 30.6086 21.2562C31.0184 21.6209 31.2271 22.0882 31.2271 22.6486C31.2271 23.1773 31.0532 23.63 30.7055 24.0167C30.3576 24.4033 29.8956 24.5967 29.3168 24.5967H14.0508C13.1839 24.5967 12.5281 24.8194 12.0783 25.2648C11.6262 25.7101 11.4002 26.3979 11.4002 27.3327V41.1742C11.4002 42.388 11.1518 43.4893 10.6598 44.4805C10.1682 45.4741 9.50976 46.2523 8.68736 46.8224C7.86511 47.3878 6.9037 47.6716 5.79333 47.6716V47.4269C6.9037 47.4269 7.86511 47.7108 8.68736 48.2762C9.50976 48.8414 10.168 49.6221 10.6598 50.6181C11.1518 51.6092 11.4002 52.7104 11.4002 53.9242V67.8271C11.4002 68.7619 11.6262 69.4471 12.0783 69.8949C12.5305 70.3452 13.1889 70.563 14.0508 70.563H29.3166C29.8904 70.563 30.3525 70.7563 30.7053 71.1406C31.058 71.5272 31.2269 71.9825 31.2269 72.5086C31.2269 73.0347 31.0232 73.4851 30.6084 73.8717C30.196 74.2583 29.6842 74.4492 29.0682 74.4492H12.6274V74.4345ZM52.9318 74.4354C52.3133 74.4354 51.804 74.2421 51.3916 73.8579C50.9792 73.4713 50.7729 73.0161 50.7729 72.4948C50.7729 71.9735 50.9468 71.5134 51.2947 71.1268C51.6424 70.7402 52.1046 70.5493 52.6834 70.5493H67.949C68.8161 70.5493 69.4719 70.3314 69.9215 69.8812C70.3736 69.4358 70.5998 68.7481 70.5998 67.8133V53.9105C70.5998 52.6966 70.8482 51.5954 71.34 50.6044C71.8318 49.6107 72.4902 48.8325 73.3125 48.2624C74.1347 47.697 75.0961 47.4131 76.2067 47.4131V47.6578C75.0961 47.6578 74.1347 47.374 73.3125 46.8087C72.4902 46.2433 71.8318 45.4627 71.34 44.4667C70.8482 43.4755 70.5998 42.3742 70.5998 41.1604V27.3189C70.5998 26.3889 70.3736 25.7013 69.9215 25.251C69.4694 24.8056 68.8111 24.583 67.949 24.583H52.6834C52.1096 24.583 51.6473 24.3895 51.2947 24.0029C50.9468 23.6211 50.7729 23.1635 50.7729 22.6348C50.7729 22.0696 50.9766 21.6071 51.3916 21.2424C51.8014 20.8778 52.3133 20.6968 52.9318 20.6968H69.3725C71.3872 20.6968 72.9249 21.2253 73.9957 22.2751C75.0664 23.3251 75.5981 24.8644 75.5981 26.8883V40.6662C75.5981 42.3254 75.9384 43.544 76.6115 44.3101C77.2898 45.0785 78.4921 45.4846 80.2162 45.5239C80.7529 45.563 81.1826 45.7636 81.508 46.1283C81.8384 46.493 81.9998 46.9603 81.9998 47.5257C81.9998 48.0543 81.8384 48.5169 81.508 48.9182C81.1826 49.322 80.7453 49.5275 80.2162 49.5275C78.4921 49.5667 77.2922 49.9729 76.6115 50.7413C75.9334 51.5097 75.5981 52.7432 75.5981 54.4465V68.2244C75.5981 69.563 75.362 70.6937 74.8875 71.6285C74.4131 72.5634 73.7175 73.2583 72.7933 73.7258C71.8668 74.1883 70.7264 74.4207 69.3725 74.4207H52.9318V74.4354Z" fill="black"/>
<path d="M57.1573 52.8096C60.1508 52.8096 62.578 50.4186 62.578 47.4696C62.578 44.5208 60.1508 42.1299 57.1573 42.1299C54.1639 42.1299 51.7367 44.5208 51.7367 47.4696C51.7367 50.4186 54.1639 52.8096 57.1573 52.8096ZM26.7949 52.8096C29.7884 52.8096 32.2156 50.4186 32.2156 47.4696C32.2156 44.5208 29.7884 42.1299 26.7949 42.1299C23.8014 42.1299 21.3743 44.5208 21.3743 47.4696C21.3743 50.4186 23.8014 52.8096 26.7949 52.8096ZM39.1545 5.26046L38.7397 16.1727C38.7397 16.7845 38.1534 17.0904 36.9807 17.0904C35.8082 17.0904 35.2219 16.7845 35.2219 16.1727C35.1176 13.4539 35.0332 11.3443 34.9635 9.8491C34.9288 8.3196 34.894 7.23054 34.8593 6.58447C34.8245 5.9384 34.8071 5.54682 34.8071 5.41213V5.20905C34.8071 4.42845 35.5324 4.03687 36.9807 4.03687C38.4291 4.03687 39.1545 4.44558 39.1545 5.26046ZM47.9536 5.26046L47.5388 16.1727C47.5388 16.7845 46.9525 17.0904 45.78 17.0904C44.6073 17.0904 44.0212 16.7845 44.0212 16.1727C43.9167 13.4539 43.8323 11.3443 43.7628 9.8491C43.7279 8.3196 43.6932 7.23054 43.6584 6.58447C43.6237 5.9384 43.6062 5.54682 43.6062 5.41213V5.20905C43.6062 4.42845 44.3317 4.03687 45.78 4.03687C47.2283 4.03687 47.9536 4.44558 47.9536 5.26046Z" fill="black"/>
<g clip-path="url(#clip0_1_78)">
<path d="M618.443 43.1711C618.804 53.4753 626.205 58.4498 633.425 58.4498C640.645 58.4498 644.616 55.2519 646.692 50.5439H655.175C652.919 58.8051 645.248 65.5562 633.425 65.5562C618.082 65.5562 609.598 54.7189 609.598 40.595C609.598 25.494 619.887 15.8115 633.154 15.8115C647.955 15.8115 656.89 28.07 655.807 43.1711H618.443ZM618.533 36.2424H647.143C646.963 29.4913 641.818 22.7402 633.154 22.7402C625.844 22.7402 619.255 26.6487 618.533 36.2424Z" fill="black"/>
<path d="M596.059 0H604.272V64.4015H596.059V57.2063C593.081 62.2696 587.936 65.5563 580.175 65.5563C569.074 65.5563 559.417 56.4957 559.417 40.684C559.417 24.9611 569.074 15.8117 580.175 15.8117C587.936 15.8117 593.081 19.0984 596.059 24.1617V0ZM582.25 22.7404C573.857 22.7404 568.352 29.3138 568.352 40.684C568.352 52.0542 573.857 58.6276 582.25 58.6276C589.561 58.6276 596.42 53.2978 596.42 40.684C596.42 28.0702 589.561 22.7404 582.25 22.7404Z" fill="black"/>
<path d="M556.515 40.6838C556.515 58.0056 544.511 65.5562 533.23 65.5562C521.948 65.5562 509.945 58.0056 509.945 40.6838C509.945 23.3621 521.948 15.8115 533.23 15.8115C544.511 15.8115 556.515 23.3621 556.515 40.6838ZM533.23 58.4498C540.63 58.4498 547.76 52.9423 547.76 40.6838C547.76 27.9812 540.63 22.9179 533.23 22.9179C525.829 22.9179 518.699 27.6259 518.699 40.6838C518.699 53.3865 525.829 58.4498 533.23 58.4498Z" fill="black"/>
<path d="M507.144 32.6003H498.841C497.668 26.9152 492.614 22.9179 486.296 22.9179C478.986 22.9179 472.307 28.5142 472.307 40.5062C472.307 52.6758 479.076 58.4498 486.296 58.4498C493.155 58.4498 498.029 53.9195 499.202 48.8562H507.686C506.061 57.828 497.307 65.5562 486.026 65.5562C472.127 65.5562 463.372 55.1631 463.372 40.595C463.372 26.3823 472.488 15.8115 486.838 15.8115C498.571 15.8115 506.061 24.5168 507.144 32.6003Z" fill="black"/>
<path d="M426.866 4.61914H435.079V16.6111H444.285V23.0957H435.079V51.4324C435.079 56.4068 435.44 57.6505 440.133 57.6505H444.285V64.4015H438.328C429.032 64.4015 426.866 62.3584 426.866 52.4095V23.0957H419.195V16.6111H426.866V4.61914Z" fill="black"/>
<path d="M384.842 23.8062C387.64 19.2759 392.333 15.8115 400.546 15.8115C412.279 15.8115 416.52 23.2732 416.52 34.1993V64.4014H408.307V36.5977C408.307 29.2248 407.044 22.8291 397.658 22.8291C389.716 22.8291 384.842 28.2477 384.842 38.4631V64.4014H376.629V16.611H384.842V23.8062Z" fill="black"/>
<path d="M333.98 43.1711C334.341 53.4753 341.742 58.4498 348.962 58.4498C356.182 58.4498 360.153 55.2519 362.229 50.5439H370.713C368.457 58.8051 360.785 65.5562 348.962 65.5562C333.619 65.5562 325.136 54.7189 325.136 40.595C325.136 25.494 335.424 15.8115 348.691 15.8115C363.493 15.8115 372.428 28.07 371.345 43.1711H333.98ZM334.071 36.2424H362.68C362.5 29.4913 357.356 22.7402 348.691 22.7402C341.381 22.7402 334.793 26.6487 334.071 36.2424Z" fill="black"/>
<path d="M259.801 64.4014H251.588V16.611H259.801V23.8062C262.599 19.2759 267.111 15.8115 274.422 15.8115C281.822 15.8115 286.245 19.0094 288.411 24.2503C292.292 18.3876 297.978 15.8115 304.746 15.8115C316.028 15.8115 320.45 23.2732 320.45 34.1993V64.4014H312.237V36.5977C312.237 29.2248 310.793 22.8291 301.858 22.8291C294.819 22.8291 290.126 28.2477 290.126 38.4631V64.4014H281.913V36.5977C281.913 29.2248 280.469 22.8291 271.534 22.8291C264.494 22.8291 259.801 28.2477 259.801 38.4631V64.4014Z" fill="black"/>
<path d="M234.695 16.611H242.908V58.0056C242.908 67.7769 241.103 71.7742 238.305 74.7944C234.785 78.7918 228.738 81.1013 221.518 81.1013C210.507 81.1013 203.107 76.1269 201.572 66.4444H210.327C211.41 70.7083 214.027 73.995 221.608 73.995C226.031 73.995 229.37 72.7514 231.536 70.4418C233.341 68.5764 234.695 66.3556 234.695 59.871V55.3407C231.716 60.404 227.023 63.6019 219.262 63.6019C208.522 63.6019 198.684 55.0742 198.684 39.7067C198.684 24.428 208.522 15.8115 219.262 15.8115C227.023 15.8115 231.716 19.0982 234.695 24.1615V16.611ZM221.337 22.7402C213.305 22.7402 207.619 28.8695 207.619 39.7067C207.619 50.6328 213.305 56.762 221.337 56.762C228.648 56.762 235.056 51.8764 235.056 39.7067C235.056 27.6259 228.648 22.7402 221.337 22.7402Z" fill="black"/>
<path d="M185.069 57.5628C182.271 62.0931 177.849 65.5575 169.816 65.5575C158.535 65.5575 154.293 58.0958 154.293 47.1697V16.6123H162.506V44.7713C162.506 52.1442 163.769 58.5399 172.704 58.5399C180.466 58.5399 185.069 53.1213 185.069 42.9059V16.6123H193.282V64.4027H185.069V57.5628Z" fill="black"/>
<path d="M106 51.7875C106 40.5061 118.906 37.2194 138.852 34.9987V33.8439C138.852 25.1386 133.888 22.2072 127.841 22.2072C121.072 22.2072 117.101 25.8492 116.74 31.712H108.256C109.069 21.4077 118.274 15.6338 127.751 15.6338C141.108 15.6338 147.155 21.9407 147.065 35.354L146.974 46.3689C146.884 54.3635 147.335 59.871 148.238 64.4013H139.935C139.664 62.6247 139.393 60.6704 139.303 57.8279C136.325 62.7135 131.271 65.5561 122.697 65.5561C113.581 65.5561 106 60.5816 106 51.7875ZM139.483 41.3944C124.592 42.9045 115.115 45.0364 115.115 51.6098C115.115 56.1401 118.635 59.1603 124.502 59.1603C132.173 59.1603 139.483 55.696 139.483 44.4146V41.3944Z" fill="black"/>
</g>
<defs>
<clipPath id="clip0_1_78">
<rect width="550" height="82" fill="white" transform="translate(106)"/>
</clipPath>
</defs>
</svg>
