<svg fill="none" height="128" viewBox="0 0 441 128" width="441" xmlns="http://www.w3.org/2000/svg"><path d="m166.971 40.9172c11.605 0 23.824 4.606 31.392 13.5186.05.0585.043.146-.015.1963l-11.393 9.8584c-.058.0506-.147.0443-.198-.0137-2.315-2.6316-5.189-4.7385-8.422-6.1738-3.276-1.4538-6.84-2.1823-10.437-2.1328-13.41 0-22.35 9.1917-22.35 22.6298 0 6.7131 2.223 12.345 6.087 16.2891 2.127 2.0838 4.667 3.7192 7.464 4.8057 2.797 1.0862 5.792 1.6012 8.799 1.5112 3.562.032 7.094-.647 10.378-1.9956 3.244-1.3313 6.181-3.2875 8.635-5.752.052-.0523.136-.0559.192-.0078l11.645 10.0474c.06.051.066.141.013.2-6.497 7.175-17.999 12.866-32.397 12.866-11.139 0-20.793-3.91-27.569-10.565-6.776-6.6545-10.795-16.0787-10.795-27.271 0-22.6292 16.169-38.0106 38.971-38.0108zm105.326.0069c22.067.0002 36.337 15.5202 36.337 36.9492-.031 2.2261-.184 4.4493-.457 6.6592-.009.0703-.069.123-.14.123h-54.261c-.089 0-.156.0843-.136.1719 2.321 10.2866 10.27 16.5566 21.26 16.5566 3.579.075 7.126-.66 10.369-2.1513 3.198-1.471 6.015-3.6378 8.236-6.335.05-.0604.139-.0687.199-.0185l.447.373 11.163 9.7188c.057.049.065.136.018.194-6.316 7.834-16.808 13.599-31.355 13.599-21.772 0-38.196-15.077-38.196-37.9835 0-11.2379 3.87-20.6621 10.319-27.3164 3.403-3.4216 7.484-6.1219 11.989-7.9346s9.341-2.6995 14.208-2.6054zm-46.636-28.9483c.078 0 .141.063.141.1407v103.5085c0 .078-.063.141-.141.141h-16.684c-.078 0-.141-.063-.141-.141v-103.5085c0-.0776.063-.1405.141-.1407zm135.724 28.9434c.078-.0009.142.0624.142.1406v18.5518c0 .0817-.07.1466-.151.1406-1.944-.147-3.88-.291-5.072-.291-13.058.0001-20.725 9.1903-20.725 21.2539v34.9099c0 .078-.063.141-.141.141h-16.683c-.078 0-.141-.063-.141-.141v-73.5203c0-.0775.063-.1406.141-.1406h16.683c.078 0 .141.0631.141.1406v10.9366c0 .0567.047.1025.104.1025.032 0 .063-.0151.083-.041 5.851-7.8146 14.488-12.1621 23.613-12.1621zm26.947-28.9434c.078.0001.141.063.141.1407v63.165c0 .1281.157.1892.244.0947l30.691-33.4551c.027-.0289.064-.0459.104-.0459h20.063c.122 0 .187.145.105.2354l-26.752 29.5156c-.042.0465-.049.1157-.016.169l27.119 43.7558c.058.094-.009.215-.119.215h-19.033c-.049 0-.095-.025-.12-.067l-19.234-30.9116c-.025-.0411-.07-.0665-.119-.0665h-.18c-.039 0-.077.0164-.104.045l-12.612 13.5508c-.024.0259-.037.0602-.037.0957v17.2126c0 .078-.063.141-.141.141h-16.685c-.077 0-.14-.063-.14-.141v-103.5085c0-.0777.063-.1406.14-.1407zm-115.148 44.1768c-2.755-.0873-5.495.4113-8.036 1.4609-2.54 1.0504-4.82 2.6283-6.683 4.624-2.2 2.4942-3.756 5.471-4.538 8.6797-.022.088.045.1728.135.1729h37.036c.09 0 .157-.0856.135-.1738-2.156-8.8041-8.293-14.7637-18.049-14.7637z" fill="#131316"/><circle cx="64" cy="64" fill="#6c47ff" r="20"/><path d="m99.5716 10.788c1.9994 1.3392 2.1704 4.1564.4684 5.858l-14.6156 14.6158c-1.3209 1.321-3.3702 1.5296-5.0329.6779-4.9163-2.5187-10.488-3.9397-16.3915-3.9397-19.8823 0-36 16.1177-36 36 0 5.9035 1.421 11.4752 3.9397 16.3915.8517 1.6627.6431 3.712-.6779 5.0329l-14.6158 14.6156c-1.7016 1.702-4.5188 1.531-5.858-.4684-6.81389-10.1727-10.788-22.4081-10.788-35.5716 0-35.3462 28.6538-64 64-64 13.1635 0 25.3989 3.97411 35.5716 10.788z" fill="#bab1ff"/><path d="m100.04 111.354c1.702 1.702 1.531 4.519-.4683 5.858-10.1728 6.814-22.4081 10.788-35.5717 10.788s-25.3989-3.974-35.5717-10.788c-1.9994-1.339-2.1702-4.156-.4686-5.858l14.6158-14.6158c1.3209-1.321 3.3702-1.5297 5.0329-.6779 4.9163 2.5187 10.488 3.9397 16.3916 3.9397s11.4753-1.421 16.3916-3.9397c1.6627-.8518 3.7119-.6431 5.0329.6779z" fill="#6c47ff"/></svg>