<svg fill="none" height="367" viewBox="0 0 1682 367" width="1682" xmlns="http://www.w3.org/2000/svg"><g fill="#000"><path d="m1562.69 366.038h-56.52l39.83-89.898-79.66-179.0354h56.9l46.41 112.2324c1.63 3.923 7.19 3.916 8.8-.012l46.06-112.2204h57.28z"/><path d="m1391.02 286.761v-144.139h-38.31v-45.5179h38.31v-24.6553c0-22.5059 6.82-40.2072 20.48-53.1039 13.66-12.89658 30.98-19.3449 51.97-19.3449 12.89 0 23.89 1.39081 33 4.17243v45.89687c-6.07-2.2759-13.15-3.4138-21.25-3.4138-11.37 0-19.59 2.5287-24.65 7.5862-5.06 4.8047-7.59 13.0231-7.59 24.6554v18.207h53.49v45.5179h-53.49v144.139z"/><path d="m1306.22 66.0004c-8.85 0-16.56-3.1609-23.14-9.4828-6.57-6.5747-9.86-14.4139-9.86-23.5174s3.29-16.8162 9.86-23.13808c6.58-6.57474 14.29-9.86212 23.14-9.86212 9.36 0 17.19 3.28738 23.52 9.86212 6.57 6.32188 9.86 14.03458 9.86 23.13808s-3.29 16.9427-9.86 23.5174c-6.33 6.3219-14.16 9.4828-23.52 9.4828zm-25.79 220.7606v-189.6569h51.96v189.6569z"/><path d="m1189.94 286.761v-284.48488h51.97v284.48488z"/><path d="m1131.24 289.037c-21.24 0-38.69-5.816-52.35-17.449-13.4-11.885-20.1-28.954-20.1-51.207v-77.759h-38.31v-45.5176h38.31v-52.7245h51.96v52.7245h53.49v45.5176h-53.49v67.518c0 11.632 2.53 19.977 7.59 25.034 5.06 4.805 13.28 7.207 24.66 7.207 8.09 0 15.17-1.138 21.24-3.413v45.896c-9.11 2.782-20.11 4.173-33 4.173z"/><path d="m825.98 286.761v-189.6568h51.966v13.8628c0 2.344 3.19 3.381 4.742 1.624 11.585-13.1061 28.085-19.6593 49.499-19.6593 22.759 0 40.587 7.5863 53.484 22.7593 13.149 14.919 19.719 34.896 19.719 59.931v111.139h-51.961v-102.415c0-13.908-2.908-24.655-8.724-32.241-5.816-7.839-14.035-11.759-24.656-11.759-12.643 0-22.885 4.552-30.724 13.655-7.586 9.104-11.379 22.506-11.379 40.207v92.553z"/><path d="m761.287 66.0004c-8.851 0-16.564-3.1609-23.138-9.4828-6.575-6.5747-9.863-14.4139-9.863-23.5174s3.288-16.8162 9.863-23.13808c6.574-6.57474 14.287-9.86212 23.138-9.86212 9.356 0 17.195 3.28738 23.517 9.86212 6.575 6.32188 9.862 14.03458 9.862 23.13808s-3.287 16.9427-9.862 23.5174c-6.322 6.3219-14.161 9.4828-23.517 9.4828zm-25.794 220.7606v-189.6569h51.966v189.6569z"/><path d="m647.273 286.761v-101.277c0-30.092-9.862-45.138-29.586-45.138-11.38 0-20.483 4.299-27.311 12.897-6.575 8.597-10.115 21.368-10.621 38.31v95.208h-51.965v-101.277c0-30.092-9.863-45.138-29.587-45.138-11.632 0-20.862 4.552-27.69 13.655-6.827 9.104-10.241 22.506-10.241 40.207v92.553h-51.966v-189.6568h51.966v13.9988c0 2.332 3.135 3.359 4.667 1.601 11.481-13.1811 26.741-19.7723 45.782-19.7723 25.021 0 43.868 10.3303 56.538 30.9913 1 1.63 3.459 1.604 4.453-.029 5.478-9.003 13.09-16.163 22.837-21.479 11.126-6.3223 22.379-9.4833 33.759-9.4833 22.505 0 39.954 7.4603 52.345 22.3793 12.391 14.92 18.586 35.403 18.586 61.449v110.001z"/></g><path d="m331.569 124.833v-102.7432c0-11.0253-8.944-19.81355-19.805-19.81355h-102.695c-16.131 0-32.102 3.19562-46.955 9.26745-14.854 6.2317-28.429 15.1799-39.769 26.6845l-.798.799c-15.013 15.1797-25.7145 34.0344-31.1447 54.8067 9.7427-2.5566 19.8047-3.8349 29.8667-3.9946 26.831-.3196 53.184 8.3089 74.586 24.4477 19.325 14.381 34.018 34.194 42.004 57.044 8.305 23.169 9.263 48.415 3.035 72.223 20.603-5.432 39.609-16.138 54.782-31.158l.798-.799c11.34-11.345 20.443-24.927 26.672-39.787s9.264-30.839 9.264-46.977z" fill="#18e299"/><path d="m87.3369 123.098c.1591-31.5186 12.7291-61.7637 34.8451-84.3679l-85.443 85.4819c-.3182.319-.6366.478-.9548.796-20.8436 20.694-33.41315 48.392-35.481598 77.682-1.909332 27.38 5.250528 54.441 20.525298 77.046 1.4569 2.156 5.4102 2.865 7.6378.796l52.3475-52.213c16.3884-16.396 21.4808-40.751 13.6837-62.56-4.9325-13.53-7.3191-28.016-7.16-42.661z" fill="#0c8c5e"/><path d="m294.976 211.605c-16.388 16.078-36.914 27.221-59.19 32.156-22.434 4.934-45.664 3.502-67.303-4.139 0 0-.16 0-.319 0-21.798-7.8-46.142-2.706-62.53 13.531l-52.3489 52.212c-2.2276 2.229-1.9094 5.89.7955 7.641 22.5938 15.123 49.6434 22.445 77.0104 20.535 29.277-2.07 56.803-14.645 77.646-35.498l.796-.796 85.443-85.482z" fill="#0c8c5e"/></svg>