<svg fill="none" height="465" viewBox="0 0 2851 465" width="2851" xmlns="http://www.w3.org/2000/svg"><g fill="#040000"><path d="m1424.5 356.858v-189.99h52.43v22.41h.76c10.55-16.73 34.25-29.43 56.76-29.43 52.75 0 76.05 41.87 76.05 79.46v117.53h-51.4v-110.25c0-25.83-20.66-40.6-41.6-40.6-18.94 0-40.57 16.43-40.57 43.91v106.94h-52.43z"/><path d="m1840.5 356.858v-258.0001h52.43v90.7101h.76c10.55-16.7 34.25-29.38 56.76-29.38 52.75 0 76.05 41.8 76.05 79.33v117.34h-51.4v-110.06c0-25.78-20.66-40.53-41.6-40.53-18.94 0-40.57 16.4-40.57 43.83v106.76z"/><path d="m1089.5 208.348c26.75 0 48.5 21.76 48.5 48.5s-21.75 48.5-48.5 48.5-48.5-21.76-48.5-48.5 21.75-48.5 48.5-48.5zm0-51.5c-55.23 0-100.004 44.77-100.004 100s44.774 100 100.004 100 100-44.77 100-100-44.77-100-100-100z"/><path d="m1307.5 208.348c26.75 0 48.5 21.76 48.5 48.5s-21.75 48.5-48.5 48.5-48.5-21.76-48.5-48.5 21.75-48.5 48.5-48.5zm0-51.5c-55.23 0-100 44.77-100 100s44.77 100 100 100 100-44.77 100-100-44.77-100-100-100z"/><path d="m2143 208.348c26.88 0 48.75 21.76 48.75 48.5s-21.87 48.5-48.75 48.5-48.75-21.76-48.75-48.5 21.87-48.5 48.75-48.5zm0-51.5c-55.51 0-100.5 44.77-100.5 100s44.99 100 100.5 100 100.5-44.77 100.5-100-44.99-100-100.5-100z"/><path d="m2294.04 98.8579c-1.24 0-2.25 1.02-2.25 2.2501v64.81c0 1.24-1.01 2.25-2.24 2.25h-32.81c-1.23 0-2.24 1.02-2.24 2.25v44.98c0 1.24 1.01 2.25 2.24 2.25h32.81c1.24 0 2.24 1.01 2.24 2.25v134.74c0 1.24 1.02 2.24 2.25 2.24h44.92c1.24 0 2.25-1.02 2.25-2.24v-134.75c0-1.24 1.01-2.24 2.24-2.24h32.81c1.23 0 2.24-1.02 2.24-2.25v-44.98c0-1.24-1.01-2.25-2.24-2.25h-32.81c-1.24 0-2.24-1.01-2.24-2.24v-64.83c0-1.2401-1.02-2.2501-2.25-2.2501h-44.92z"/><path d="m2850.5 98.8579h-49v258.0001h49z"/><path d="m968.496 95.8579-.08.06v-.06l-144.42 104.6901-144.42-104.6901v.06l-.08-.06v261.0001h51.68v-159.86l92.82 67.29 92.82-67.29v159.85h51.68z"/><path d="m1789.28 250.708c-5.14-2.42-10.58-4.17-16.14-5.36-9.75-2.1-29.34-6.18-40.05-7.56 0 0-21.74-2.74-38.79-10.68 0 0-12.27-7.68.26-16.16 0 0 21.79-13.64 58.39 0 0 0 13.83 4.5 31.14 19.07l33.58-33.37s-31.71-41.57-92.74-38.66c0 0-24.3-.21-37.37 4-20.97 6.75-43.71 20.66-47.9 48.17 0 0-11.46 45.18 46.36 62.84 0 0 33.91 7.45 48.04 7.45 0 0 51.12 4.99 28.57 24.55 0 0-19.45 10.73-58.09.24 0 0-24.94-12.6-42.26-27.16l-34.78 36.94s37.12 42.82 109.46 41.82c0 0 65.11 1.64 79.32-39.47 0 0 19.97-44.53-27.01-66.66z"/><path d="m2644.5 95.8579-137 261.9901h58.06l45.28-86.59 23.1 43.65h67.04l22.46 42.95h58.06zm-30.47 169.3101 30.47-58.27 30.48 58.27z"/><path clip-rule="evenodd" d="m418.766 93.7779c-30.14-40.61-73.68-71.71-126.32-85.80997-52.64-14.1-105.91-8.940001-152.31 11.15997zm-377.9902 7.0701c20.6-30.0101 47.81-54.4201 79.0002-71.7001l205.26 55c-13.47 7.77-27.9 21.1601-39.07 35.8801l168.77 45.22c4.79 15.83 7.91 32.24 9.22 48.99zm415.9102 191.6c-2.38 8.9-5.25 17.54-8.57 25.89l-445.67016-119.41c1.3-8.9 3.14-17.81 5.52-26.71 5.59996-20.91 13.87996-40.38 24.37996-58.14l218.0902 58.44c-8.73 12.48-16.68 26.04-23.68 40.55l233.76 62.64c-1.07 5.59-2.35 11.17-3.84 16.76zm-443.2002 17.78c-10.80996-30.27-15.41996-63.01-12.739955-96.28l205.680155 55.11c-1.48 4.68-2.87 9.42-4.16 14.23-2.62 9.79-4.76 19.56-6.42 29.26l222.1 59.51c-10.34 13.73-22.12 26.17-35.05 37.15zm158.7202 146.46c-70.11-18.79-124.0902-67.71-151.7302-129.1l167.3702 44.85c-.27 15.61.7 30.82 2.83 45.41l121.61 32.58c-43.41 15.96-92 19.14-140.08 6.26z" fill-rule="evenodd"/></g></svg>