<svg fill="none" viewBox="0 0 4230 2000" xmlns="http://www.w3.org/2000/svg"><g fill="#0057ae"><path clip-rule="evenodd" d="m2964.28 984.688h-81.8c-16.5 0-25.5 9.1-25.5 25.802v285.3c-31.8-46.4-82.9-72.1-145.6-72.1-144.4 0-230.5 104.2-230.5 284.2 0 179.9 85.6 284 230 284 64 0 116.3-27 148.3-73.2l9 41c2.7 15.4 12.8 23.1 28.2 23.1h67.8c16.5 0 25.5-8.9 25.5-25.6v-746.7c.1-16.802-8.7-25.802-25.4-25.802zm-226.4 708.002c-71.4 0-118.8-60.3-118.8-169.5v-30.8c0-109 47.1-169.5 118.8-169.5 80.4 0 121.4 57.8 121.4 185.1s-40.9 184.7-121.4 184.7z" fill-rule="evenodd"/><path clip-rule="evenodd" d="m3127.67 1377.89c20.5-95 107.3-154.1 221.1-154.1 145.7 0 218.5 75.9 218.6 208.1v325.2c0 16.5-8.8 25.6-25.5 25.6h-67.8c-15.4 0-25.7-7.7-28.2-23.1l-7.7-41c-31.8 46.2-84.3 73.2-149.4 73.2-108.6 0-180-64.5-180-164.7 0-116.9 81.8-177.2 254.4-177.2h71.4v-20.6c0-70.7-29.5-106.7-85.6-106.7-44.8 0-70.3 19.3-83.1 60.5-5.2 16.8-14.2 23.1-28.2 23.1h-87c-17.8 0-26.8-11.5-23-28.3zm198.3 314.9c65.1 0 108.6-39.6 108.6-134.8v-18h-66.5c-80.6 0-121.3 27-121.4 82.2.1 43.7 32 70.6 79.3 70.6z" fill-rule="evenodd"/><path d="m164.691 1782.89c-15.3 0-24.3-6.4-29.3-21.8-60.2003-167-101.0003-332.9-135.40035107-499.9-3.89999893-16.7 3.80001107-28.3 21.60005107-28.3h83.1003c15.4 0 25.5 7.7 28.2 21.8 21.6 118.3 47.3 240.3 81.8 359.9l99.6-359.9c3.8-14.1 14-21.8 29.3-21.8h112.5c15.3 0 25.5 7.7 29.3 21.8l99.6 359.9c34.5-119.5 60.2-241.6 81.801-359.9 2.5-14.1 12.9-21.8 28.2-21.8h83.1c17.8 0 25.4 11.5 21.6 28.3-34.4 167-75.2 332.9-135.4 499.9-5.201 15.4-14 21.8-29.3 21.8h-93.601c-14 0-25.5-6.4-29.3-21.8l-112.4-395.9-112.4 395.9c-3.8 15.4-15.3 21.8-29.3 21.8z"/><path clip-rule="evenodd" d="m1131.79 1223.99c-155.905 0-264.505 113.1-264.505 284s108.6 284 264.505 284c155.9 0 264.5-114.4 264.5-284s-108.6-284-264.5-284zm126.4 299.3c0 113.1-49.8 177.4-126.4 177.4s-126.4-64.3-126.4-177.4v-30.8c0-113.1 49.8-177.4 126.4-177.4s126.4 64.3 126.4 177.4z" fill-rule="evenodd"/><path d="m3854.15 1771.11c-81.8-140-152.5-319.8-197.1-509.9-3.8-18.1 5.2-28.3 23.1-28.2h83.1c15.3 0 25.6 7.7 28.1 23.1 26.8 133.7 69 263.5 122.6 371.4 47.3-118.3 90.8-241.6 113.8-371.4 2.6-15.4 12.8-23.1 28.1-23.1h85.6c17.8 0 26.8 11.6 21.6 29.5-58.8 235.2-143.1 439.4-215.9 596.2-47.3 101.5-102.3 141.4-201.9 141.4-19.1 0-39.4-3.9-56.1-7.7-15.3-3.8-21.6-14.2-21.6-28.3v-61.7c0-18 10.4-24.5 28.2-19.3 15.3 3.8 30.6 6.3 44.6 6.3 58.8 0 79.3-38.5 113.8-118.3z"/><path d="m1641.77 1302.31c28.1-45.1 77.9-75.9 135.4-75.9 21.7 0 40.8 5.2 56.2 16.8 5.2 3.9 9 9.1 9 16.8v75.9c0 17.9-7.6 23.1-26.8 15.4-15.6-6.6-30.9-9.1-48.7-9.1-77.8 0-122.6 55.3-122.6 135.1l.1 280.2c0 16.5-8.8 25.4-25.5 25.4h-82c-16.5 0-25.5-8.8-25.5-25.6l-.1-498.7c0-16.5 8.8-25.6 25.5-25.6h67.8c16.7 0 25.7 9 28.2 23.1z"/><path d="m2408.46 1752.21c-56.1-115.6-109.8-195.3-185.2-268.6l176.4-218.5c12.8-18.1 6.5-32.2-14-32.2h-91.9c-12.8 0-24.3 5-32 14.1l-178.9 228.7v-465.1c0-16.804-9-25.804-25.7-25.804h-81.8c-16.5 0-25.5 9.1-25.5 25.804v746.7c0 16.6 8.8 25.6 25.5 25.6h81.8c16.5 0 25.5-8.9 25.5-25.6l.2-251.8c79.2 77 134.1 159.2 180 262 5.2 9.1 17.8 15.4 30.6 15.4h100.9c20.4.1 24.3-10.1 14.1-30.7z"/></g><path d="m1172.82 521.973c250.6-251 584-389.2 938.8-389.2 354.1 0 687.1 137.9 937.5 388.3 143.2 143.2 249.5 313.299 314.4 498.997 2.8 8 10.2 13.3 18.7 13.3h98.4c13.4 0 23.1-13 18.9-25.8-70.1-216.498-191-414.797-356.5-580.397-275.4-275.5-641.7-427.1329609-1031.2-427.1329609-390.2 0-757.2 152.0329609-1032.9 428.1329609-165.2 165.4-285.701 363.399-355.601 579.397-4.1 12.8 5.5 25.8 19 25.8h98.401c8.5 0 15.9-5.4 18.7-13.3 64.6-185.198 170.6-355.097 313.4-498.097z" fill="#fc5b05"/></svg>