<svg fill="none" height="96" viewBox="0 0 96 96" width="96" xmlns="http://www.w3.org/2000/svg"><path d="m0 0h96v96h-96z" fill="#1a2b34"/><path d="m62.4 32.3999h-2.4c-.6627 0-1.2.5373-1.2 1.2s.5373 1.2 1.2 1.2h2.4c.6628 0 1.2-.5373 1.2-1.2s-.5372-1.2-1.2-1.2z" fill="#56b3b4"/><path d="m36 70.7998h-12c-.6627 0-1.2.5373-1.2 1.2s.5373 1.2 1.2 1.2h12c.6628 0 1.2-.5373 1.2-1.2s-.5372-1.2-1.2-1.2z" fill="#ea5e5e"/><path d="m60.0001 51.6001h-7.2c-.6627 0-1.2.5373-1.2 1.2s.5373 1.2 1.2 1.2h7.2c.6627 0 1.2-.5373 1.2-1.2s-.5373-1.2-1.2-1.2z" fill="#bf85bf"/><path d="m48 51.6001h-9.6c-.6628 0-1.2.5373-1.2 1.2s.5372 1.2 1.2 1.2h9.6c.6627 0 1.2-.5373 1.2-1.2s-.5373-1.2-1.2-1.2z" fill="#ea5e5e"/><path d="m33.6 51.6001h-9.6c-.6627 0-1.2.5373-1.2 1.2s.5373 1.2 1.2 1.2h9.6c.6628 0 1.2-.5373 1.2-1.2s-.5372-1.2-1.2-1.2z" fill="#56b3b4"/><path d="m36 61.2002h-12c-.6627 0-1.2.5373-1.2 1.2s.5373 1.2 1.2 1.2h12c.6628 0 1.2-.5373 1.2-1.2s-.5372-1.2-1.2-1.2z" fill="#bf85bf"/><path d="m36 42h-12c-.6627 0-1.2.5373-1.2 1.2s.5373 1.2 1.2 1.2h12c.6628 0 1.2-.5373 1.2-1.2s-.5372-1.2-1.2-1.2z" fill="#bf85bf"/><path d="m60 27.6001h-24c-.6627 0-1.2.5373-1.2 1.2s.5373 1.2 1.2 1.2h24c.6628 0 1.2-.5373 1.2-1.2s-.5372-1.2-1.2-1.2z" fill="#f7ba3e"/><path d="m31.2 27.6001h-7.2c-.6627 0-1.2.5373-1.2 1.2s.5373 1.2 1.2 1.2h7.2c.6628 0 1.2-.5373 1.2-1.2s-.5372-1.2-1.2-1.2z" fill="#ea5e5e"/><path d="m35.9999 66h-2.4c-.6627 0-1.2.5373-1.2 1.2s.5373 1.2 1.2 1.2h2.4c.6627 0 1.2-.5373 1.2-1.2s-.5373-1.2-1.2-1.2z" fill="#f7ba3e"/><path d="m35.9999 37.2002h-2.4c-.6627 0-1.2.5373-1.2 1.2s.5373 1.2 1.2 1.2h2.4c.6627 0 1.2-.5373 1.2-1.2s-.5373-1.2-1.2-1.2z" fill="#56b3b4"/><path d="m28.8 66h-4.8c-.6627 0-1.2.5373-1.2 1.2s.5373 1.2 1.2 1.2h4.8c.6628 0 1.2-.5373 1.2-1.2s-.5372-1.2-1.2-1.2z" fill="#56b3b4"/><path d="m28.8 37.2002h-4.8c-.6627 0-1.2.5373-1.2 1.2s.5373 1.2 1.2 1.2h4.8c.6628 0 1.2-.5373 1.2-1.2s-.5372-1.2-1.2-1.2z" fill="#f7ba3e"/><path d="m57.6 66h-2.4c-.6627 0-1.2.5373-1.2 1.2s.5373 1.2 1.2 1.2h2.4c.6627 0 1.2-.5373 1.2-1.2s-.5373-1.2-1.2-1.2z" fill="#4d616e" opacity=".5"/><path d="m50.4001 66h-9.6c-.6627 0-1.2.5373-1.2 1.2s.5373 1.2 1.2 1.2h9.6c.6627 0 1.2-.5373 1.2-1.2s-.5373-1.2-1.2-1.2z" fill="#4d616e" opacity=".5"/><path d="m72 66h-9.6c-.6628 0-1.2.5373-1.2 1.2s.5372 1.2 1.2 1.2h9.6c.6627 0 1.2-.5373 1.2-1.2s-.5373-1.2-1.2-1.2z" fill="#4d616e" opacity=".5"/><path d="m62.4 46.7998h-19.2c-.6627 0-1.2.5373-1.2 1.2s.5373 1.2 1.2 1.2h19.2c.6627 0 1.2-.5373 1.2-1.2s-.5373-1.2-1.2-1.2z" fill="#56b3b4"/><path d="m38.4 46.7998h-7.2c-.6627 0-1.2.5373-1.2 1.2s.5373 1.2 1.2 1.2h7.2c.6627 0 1.2-.5373 1.2-1.2s-.5373-1.2-1.2-1.2z" fill="#f7ba3e"/><path d="m26.4 46.7998h-2.4c-.6627 0-1.2.5373-1.2 1.2s.5373 1.2 1.2 1.2h2.4c.6628 0 1.2-.5373 1.2-1.2s-.5372-1.2-1.2-1.2z" fill="#ea5e5e"/><path d="m55.1999 32.3999h-9.6c-.6627 0-1.2.5373-1.2 1.2s.5373 1.2 1.2 1.2h9.6c.6627 0 1.2-.5373 1.2-1.2s-.5373-1.2-1.2-1.2z" fill="#bf85bf"/><path d="m40.8 32.3999h-16.8c-.6627 0-1.2.5373-1.2 1.2s.5373 1.2 1.2 1.2h16.8c.6628 0 1.2-.5373 1.2-1.2s-.5372-1.2-1.2-1.2z" fill="#56b3b4"/><path d="m52.8 56.3999h-21.6c-.6627 0-1.2.5373-1.2 1.2s.5373 1.2 1.2 1.2h21.6c.6627 0 1.2-.5373 1.2-1.2s-.5373-1.2-1.2-1.2z" fill="#f7ba3e"/><path d="m26.4 56.3999h-2.4c-.6627 0-1.2.5373-1.2 1.2s.5373 1.2 1.2 1.2h2.4c.6628 0 1.2-.5373 1.2-1.2s-.5372-1.2-1.2-1.2z" fill="#bf85bf"/><path d="m64.8001 37.2002h-12c-.6627 0-1.2.5373-1.2 1.2s.5373 1.2 1.2 1.2h12c.6627 0 1.2-.5373 1.2-1.2s-.5373-1.2-1.2-1.2z" fill="#ea5e5e"/><path d="m64.8001 42h-12c-.6627 0-1.2.5373-1.2 1.2s.5373 1.2 1.2 1.2h12c.6627 0 1.2-.5373 1.2-1.2s-.5373-1.2-1.2-1.2z" fill="#f7ba3e"/><path d="m52.8001 22.7998h-28.8001c-.6627 0-1.2.5373-1.2 1.2s.5373 1.2 1.2 1.2h28.8001c.6627 0 1.1999-.5373 1.1999-1.2s-.5372-1.2-1.1999-1.2z" fill="#56b3b4"/><g fill="#4d616e"><path d="m71.9999 22.7998h-14.4c-.6627 0-1.2.5373-1.2 1.2s.5373 1.2 1.2 1.2h14.4c.6627 0 1.2-.5373 1.2-1.2s-.5373-1.2-1.2-1.2z" opacity=".5"/><path d="m62.3999 56.3999h-4.8c-.6627 0-1.2.5373-1.2 1.2s.5373 1.2 1.2 1.2h4.8c.6627 0 1.2-.5373 1.2-1.2s-.5373-1.2-1.2-1.2z" opacity=".5"/><path d="m72 56.3999h-4.8c-.6627 0-1.2.5373-1.2 1.2s.5373 1.2 1.2 1.2h4.8c.6627 0 1.2-.5373 1.2-1.2s-.5373-1.2-1.2-1.2z" opacity=".5"/><path d="m72.0001 51.6001h-7.2c-.6627 0-1.2.5373-1.2 1.2s.5373 1.2 1.2 1.2h7.2c.6627 0 1.2-.5373 1.2-1.2s-.5373-1.2-1.2-1.2z" opacity=".5"/><path d="m72.0001 27.6001h-7.2c-.6627 0-1.2.5373-1.2 1.2s.5373 1.2 1.2 1.2h7.2c.6627 0 1.2-.5373 1.2-1.2s-.5373-1.2-1.2-1.2z" opacity=".5"/><path d="m72 46.7998h-4.8c-.6627 0-1.2.5373-1.2 1.2s.5373 1.2 1.2 1.2h4.8c.6627 0 1.2-.5373 1.2-1.2s-.5373-1.2-1.2-1.2z" opacity=".5"/><path d="m72 32.3999h-4.8c-.6627 0-1.2.5373-1.2 1.2s.5373 1.2 1.2 1.2h4.8c.6627 0 1.2-.5373 1.2-1.2s-.5373-1.2-1.2-1.2z" opacity=".5"/><path d="m71.9999 37.2002h-2.4c-.6627 0-1.2.5373-1.2 1.2s.5373 1.2 1.2 1.2h2.4c.6627 0 1.2-.5373 1.2-1.2s-.5373-1.2-1.2-1.2z" opacity=".5"/><path d="m71.9999 42h-2.4c-.6627 0-1.2.5373-1.2 1.2s.5373 1.2 1.2 1.2h2.4c.6627 0 1.2-.5373 1.2-1.2s-.5373-1.2-1.2-1.2z" opacity=".5"/><path d="m72 61.2002h-21.6c-.6628 0-1.2.5373-1.2 1.2s.5372 1.2 1.2 1.2h21.6c.6627 0 1.2-.5373 1.2-1.2s-.5373-1.2-1.2-1.2z" opacity=".5"/><path d="m45.6001 61.2002h-4.8c-.6627 0-1.2.5373-1.2 1.2s.5373 1.2 1.2 1.2h4.8c.6627 0 1.2-.5373 1.2-1.2s-.5373-1.2-1.2-1.2z" opacity=".5"/><path d="m72 70.7998h-12c-.6627 0-1.2.5373-1.2 1.2s.5373 1.2 1.2 1.2h12c.6628 0 1.2-.5373 1.2-1.2s-.5372-1.2-1.2-1.2z" opacity=".5"/><path d="m55.2001 70.7998h-14.4c-.6627 0-1.2.5373-1.2 1.2s.5373 1.2 1.2 1.2h14.4c.6627 0 1.2-.5373 1.2-1.2s-.5373-1.2-1.2-1.2z" opacity=".5"/><path d="m48.0001 37.2002h-7.2c-.6627 0-1.2.5373-1.2 1.2s.5373 1.2 1.2 1.2h7.2c.6627 0 1.2-.5373 1.2-1.2s-.5373-1.2-1.2-1.2z" opacity=".5"/><path d="m48.0001 42h-7.2c-.6627 0-1.2.5373-1.2 1.2s.5373 1.2 1.2 1.2h7.2c.6627 0 1.2-.5373 1.2-1.2s-.5373-1.2-1.2-1.2z" opacity=".5"/></g></svg>