<svg fill="none" height="96" viewBox="0 0 96 96" width="96" xmlns="http://www.w3.org/2000/svg"><path d="m0 0h96v96h-96z" fill="#66c76f"/><g fill="#fff"><path d="m31.397 35.4775h-9.4272v25.0452h9.4272v.5628h-9.99v-26.1709h9.99z"/><path d="m74.593 61.0855h-9.99v-.5628h9.4271v-25.0452h-9.4271v-.5629h9.99z"/><path clip-rule="evenodd" d="m61.5075 44.3418c2.0205 0 3.6583 1.6379 3.6583 3.6583s-1.6378 3.6583-3.6583 3.6583c-2.0204 0-3.6583-1.6379-3.6583-3.6583s1.6379-3.6583 3.6583-3.6583zm0 .5628c-1.7095 0-3.0954 1.3859-3.0954 3.0955s1.3859 3.0955 3.0954 3.0955z" fill-rule="evenodd"/><path d="m37.1669 47.7569c.0865.0504.1396.1431.1396.2432s-.0531.1928-.1396.2432l-5.0653 2.9548-.2836-.4865 4.6482-2.7115-4.6482-2.7116.2836-.4864z"/><path clip-rule="evenodd" d="m65.1658 33.5076h10.8342v28.9849h-10.8342v5.7689h-34.0502v-5.7689h-11.1156v-28.9849h11.1156v-5.7688h34.0502zm-44.603 28.4221h10.5528v-.5628h34.0502v.5628h10.2714v-27.8593h-10.2714v.5628h-34.0502v-.5628h-10.5528z" fill-rule="evenodd"/></g></svg>