<svg fill="none" height="96" viewBox="0 0 96 96" width="96" xmlns="http://www.w3.org/2000/svg" xmlns:xlink="http://www.w3.org/1999/xlink"><linearGradient id="a" gradientUnits="userSpaceOnUse" x1="70.8385" x2="36.9472" y1="3.79453" y2="76.0888"><stop offset="0" stop-color="#2fabff"/><stop offset=".3" stop-color="#5570ff"/><stop offset=".6" stop-color="#7b36ff"/><stop offset=".8" stop-color="#6a2cdc"/><stop offset="1" stop-color="#5921b8"/></linearGradient><path d="m0 0h96v96h-96z" fill="url(#a)"/><path d="m44.1416 23.9165c2.1196-1.222 4.7369-1.222 6.8564 0l15.7129 9.0732c2.1195 1.222 3.4277 3.4819 3.4278 5.9366v18.1465c0 2.444-1.3082 4.7154-3.4278 5.9375l-15.7129 9.0732c-2.1195 1.222-4.7368 1.2219-6.8564 0l-15.7139-9.0732c-2.1194-1.2221-3.4277-3.4828-3.4277-5.9375v-18.1465c.0001-2.4438 1.3085-4.7145 3.4277-5.9366zm6.251 6.6182c-1.6979-.9841-3.7855-.9841-5.4942 0l-11.1494 6.4345c-1.6977.9841-2.7469 2.7898-2.747 4.7579v12.8691c0 1.9574 1.0492 3.7747 2.747 4.7588l11.1494 6.4346c1.6979.984 3.7855.984 5.4942 0l11.1494-6.4346c1.6977-.9842 2.7461-2.7907 2.7461-4.7588v-12.8691c-.0002-1.9572-1.0485-3.7738-2.7461-4.7579zm-3.7744 3.0498c.8542-.4865 1.8918-.4865 2.7461 0l10.6201 6.1318c.8543.4867 1.373 1.3948 1.373 2.3789v12.2637c0 .0425-.0029.0848-.0049.1269l-10.9062-6.3173v-1.1631c0-.2487-.1295-.4767-.3457-.5957l-2.2822-1.3194c-.2163-.1188-.4763-.1189-.6817 0l-2.2812 1.3194c-.2163.1189-.3467.3469-.3467.5957v2.6386c.0001.2486.1305.4759.3467.5948l2.2812 1.3193c.2163.1189.4762.1189.6817 0l1.1816-.6836 10.5527 6.1113-10.1884 5.8838c-.8542.4864-1.892.4865-2.7461 0l-10.6202-6.1318c-.8541-.4866-1.3729-1.3949-1.373-2.3789v-12.2637c0-.984.5189-1.8814 1.373-2.3789z" fill="#fff"/></svg>