<svg fill="none" height="96" viewBox="0 0 96 96" width="96" xmlns="http://www.w3.org/2000/svg" xmlns:xlink="http://www.w3.org/1999/xlink"><filter id="a" color-interpolation-filters="sRGB" filterUnits="userSpaceOnUse" height="38.8388" width="43.8083" x="13.7393" y="-4.52633"><feFlood flood-opacity="0" result="BackgroundImageFix"/><feBlend in="SourceGraphic" in2="BackgroundImageFix" mode="normal" result="shape"/><feGaussianBlur result="effect1_foregroundBlur_46_195" stdDeviation="2.46678"/></filter><filter id="b" color-interpolation-filters="sRGB" filterUnits="userSpaceOnUse" height="85.1648" width="85.9029" x="30.3893" y="-8.00844"><feFlood flood-opacity="0" result="BackgroundImageFix"/><feBlend in="SourceGraphic" in2="BackgroundImageFix" mode="normal" result="shape"/><feGaussianBlur result="effect1_foregroundBlur_46_195" stdDeviation="11.9256"/></filter><filter id="c" color-interpolation-filters="sRGB" filterUnits="userSpaceOnUse" height="80.6419" width="90.4427" x="-27.338" y="-1.59853"><feFlood flood-opacity="0" result="BackgroundImageFix"/><feBlend in="SourceGraphic" in2="BackgroundImageFix" mode="normal" result="shape"/><feGaussianBlur result="effect1_foregroundBlur_46_195" stdDeviation="10.1379"/></filter><filter id="d" color-interpolation-filters="sRGB" filterUnits="userSpaceOnUse" height="80.6419" width="90.4427" x="-27.338" y="-1.59853"><feFlood flood-opacity="0" result="BackgroundImageFix"/><feBlend in="SourceGraphic" in2="BackgroundImageFix" mode="normal" result="shape"/><feGaussianBlur result="effect1_foregroundBlur_46_195" stdDeviation="10.1379"/></filter><filter id="e" color-interpolation-filters="sRGB" filterUnits="userSpaceOnUse" height="80.8143" width="80.8965" x="-21.1752" y="-.907127"><feFlood flood-opacity="0" result="BackgroundImageFix"/><feBlend in="SourceGraphic" in2="BackgroundImageFix" mode="normal" result="shape"/><feGaussianBlur result="effect1_foregroundBlur_46_195" stdDeviation="10.1379"/></filter><filter id="f" color-interpolation-filters="sRGB" filterUnits="userSpaceOnUse" height="75.2747" width="74.0511" x="23.1668" y="41.1319"><feFlood flood-opacity="0" result="BackgroundImageFix"/><feBlend in="SourceGraphic" in2="BackgroundImageFix" mode="normal" result="shape"/><feGaussianBlur result="effect1_foregroundBlur_46_195" stdDeviation="9.63399"/></filter><filter id="g" color-interpolation-filters="sRGB" filterUnits="userSpaceOnUse" height="77.9011" width="79.4518" x="7.43546" y="-26.0404"><feFlood flood-opacity="0" result="BackgroundImageFix"/><feBlend in="SourceGraphic" in2="BackgroundImageFix" mode="normal" result="shape"/><feGaussianBlur result="effect1_foregroundBlur_46_195" stdDeviation="8.73112"/></filter><filter id="h" color-interpolation-filters="sRGB" filterUnits="userSpaceOnUse" height="102.739" width="99.6258" x="-5.4114" y="20.7741"><feFlood flood-opacity="0" result="BackgroundImageFix"/><feBlend in="SourceGraphic" in2="BackgroundImageFix" mode="normal" result="shape"/><feGaussianBlur result="effect1_foregroundBlur_46_195" stdDeviation="7.79725"/></filter><filter id="i" color-interpolation-filters="sRGB" filterUnits="userSpaceOnUse" height="53.119" width="55.4169" x="44.1556" y="23.0711"><feFlood flood-opacity="0" result="BackgroundImageFix"/><feBlend in="SourceGraphic" in2="BackgroundImageFix" mode="normal" result="shape"/><feGaussianBlur result="effect1_foregroundBlur_46_195" stdDeviation="6.97714"/></filter><filter id="j" color-interpolation-filters="sRGB" filterUnits="userSpaceOnUse" height="66.265" width="73.9976" x="33.8812" y="-5.73966"><feFlood flood-opacity="0" result="BackgroundImageFix"/><feBlend in="SourceGraphic" in2="BackgroundImageFix" mode="normal" result="shape"/><feGaussianBlur result="effect1_foregroundBlur_46_195" stdDeviation="5.89302"/></filter><filter id="k" color-interpolation-filters="sRGB" filterUnits="userSpaceOnUse" height="57.7491" width="49.0104" x="2.55048" y="2.19111"><feFlood flood-opacity="0" result="BackgroundImageFix"/><feBlend in="SourceGraphic" in2="BackgroundImageFix" mode="normal" result="shape"/><feGaussianBlur result="effect1_foregroundBlur_46_195" stdDeviation="7.29361"/></filter><clipPath id="l"><path d="m0 0h96v96h-96z"/></clipPath><mask id="m" height="49" maskUnits="userSpaceOnUse" width="53" x="21" y="24"><path d="m69.034 71.7144c2.9591 2.2192 7.3977.7397 3.3289-3.329-12.206-11.8361-9.6168-44.3854-24.7818-44.3854-15.1651 0-12.5759 32.5493-24.7819 44.3854-4.4386 4.4386.3698 5.5482 3.3289 3.329 11.4663-7.7675 10.7265-21.453 21.453-21.453 10.7264 0 9.9867 13.6855 21.4529 21.453z" fill="#000"/></mask><g clip-path="url(#l)"><path d="m0 0h96v96h-96z" fill="#fafafa"/><path d="m69.034 71.7144c2.9591 2.2192 7.3977.7397 3.3289-3.329-12.206-11.8361-9.6168-44.3854-24.7818-44.3854-15.1651 0-12.5759 32.5493-24.7819 44.3854-4.4386 4.4386.3698 5.5482 3.3289 3.329 11.4663-7.7675 10.7265-21.453 21.453-21.453 10.7264 0 9.9867 13.6855 21.4529 21.453z" fill="#3186ff"/><g mask="url(#m)"><g filter="url(#a)"><path d="m18.7524 12.9759c-.9 7.929 5.9327 15.2151 15.2614 16.274 9.3287 1.0588 17.6206-4.5105 18.5207-12.4395.9-7.92906-5.9328-15.21516-15.2615-16.274007-9.3286-1.058852-17.6206 4.510507-18.5206 12.439507z" fill="#ffe432"/></g><g filter="url(#b)"><path d="m54.7194 38.899c2.3372 10.0631 12.569 16.2844 22.8532 13.8958 10.2843-2.3886 16.7266-12.4827 14.3893-22.5457-2.3372-10.0631-12.5689-16.2844-22.8532-13.8958-10.2842 2.3886-16.7266 12.4827-14.3893 22.5457z" fill="#fc413d"/></g><g filter="url(#c)"><path d="m-6.47694 45.6499c2.95331 10.3853 16.25392 15.7028 29.70774 11.8769 13.4538-3.8259 21.9662-15.3464 19.0129-25.7317-2.9533-10.3854-16.2539-15.7029-29.7078-11.877-13.453798 3.8259-21.96615 15.3464-19.01284 25.7318z" fill="#00b95c"/></g><g filter="url(#d)"><path d="m-6.47694 45.6499c2.95331 10.3853 16.25392 15.7028 29.70774 11.8769 13.4538-3.8259 21.9662-15.3464 19.0129-25.7317-2.9533-10.3854-16.2539-15.7029-29.7078-11.877-13.453798 3.8259-21.96615 15.3464-19.01284 25.7318z" fill="#00b95c"/></g><g filter="url(#e)"><path d="m4.19933 54.2579c7.40357 7.562 20.15407 7.0848 28.47907-1.0658 8.325-8.1507 9.0721-20.8882 1.6685-28.4502-7.4035-7.5619-20.154-7.0847-28.47905 1.0659-8.32503 8.1506-9.07205 20.8882-1.66852 28.4501z" fill="#00b95c"/></g><g filter="url(#f)"><path d="m42.9337 82.7778c2.299 9.8983 11.8896 16.1277 21.4213 13.9139s15.395-12.0326 13.096-21.9309-11.8896-16.1278-21.4213-13.9139c-9.5317 2.2138-15.395 12.0326-13.096 21.9309z" fill="#3186ff"/></g><g filter="url(#g)"><path d="m26.6812 3.71636c-4.814 10.72364.4528 23.53294 11.7637 28.61054s24.3826.5005 29.1966-10.2231c4.8139-10.7236-.4529-23.53296-11.7638-28.61052-11.3108-5.07758-24.3826-.50053-29.1965 10.22308z" fill="#fbbc04"/></g><g filter="url(#h)"><path d="m13.7863 107.221c-11.65414-4.575 8.2624-42.2158 13.215-54.8314 4.9525-12.6156 18.4149-19.1337 30.069-14.5586 11.6542 4.575 25.4677 29.7738 20.515 42.3893-4.9527 12.6156-52.1449 31.5757-63.799 27.0007z" fill="#3186ff"/></g><g filter="url(#i)"><path d="m84.4007 60.372c-3.1203 3.6415-11.2623 1.7846-18.186-4.1477-6.9238-5.9322-10.0074-13.6933-6.8874-17.3348 3.1201-3.6415 11.2622-1.7846 18.186 4.1476 6.9235 5.9322 10.0077 13.6933 6.8874 17.3349z" fill="#749bff"/></g><g filter="url(#j)"><path d="m61.1095 41.8368c12.8326 8.6806 27.6099 9.2509 33.006 1.2737 5.3961-7.9771-.6323-21.4809-13.465-30.1615-12.8326-8.68054-27.6099-9.25081-33.006-1.2737-5.3961 7.9772.6324 21.4809 13.465 30.1615z" fill="#fc413d"/></g><g filter="url(#k)"><path d="m18.9801 27.7178c-3.1792 7.6692-2.1409 15.3851 2.3191 17.234 4.4601 1.8488 10.6529-2.8695 13.8321-10.5387 3.1792-7.6691 2.1408-15.385-2.3192-17.2339s-10.6528 2.8694-13.832 10.5386z" fill="#ffee48"/></g></g></g></svg>