<svg fill="none" height="96" viewBox="0 0 96 96" width="96" xmlns="http://www.w3.org/2000/svg"><path d="m0 0h96v96h-96z" fill="#2a3236"/><g fill="#fff" stroke="#fff" stroke-miterlimit="10" stroke-width=".659418"><path d="m30.468 69.9144c-.8495 0-1.5649-.1456-2.1463-.4355-.5798-.29-1.0193-.7316-1.3139-1.3142-.2946-.5827-.4458-1.2959-.4458-2.1331v-8.6342c0-1.0643-.2135-1.8389-.6359-2.3217-.4255-.4816-1.1799-.7362-2.2615-.7609-.3367 0-.6063-.1257-.8105-.3818-.2073-.253-.3086-.546-.3086-.8726 0-.3543.1013-.647.3086-.8756.2057-.2286.4785-.3543.8105-.3788 1.0816-.0262 1.836-.2792 2.2615-.7608.4255-.4813.6359-1.2437.6359-2.2833v-8.6341c0-1.2683.3367-2.2329 1.0054-2.8908.6686-.6579 1.6365-.9892 2.9006-.9892h10.315c.3881 0 .7076.115.9663.342.2572.2285.3881.5214.3881.8726 0 .3313-.1091.615-.3273.8573s-.5081.3634-.8713.3634h-9.5777c-.544 0-.9555.1396-1.2376.4187-.2836.2791-.4255.7101-.4255 1.2959v8.674c0 .7606-.1559 1.4507-.4644 2.0718-.3087.6226-.7217 1.1103-1.2376 1.4677-.5159.354-1.1191.532-1.8158.532v-.1533c.6967 0 1.2999.178 1.8158.532.5159.3544.9289.8436 1.2376 1.4677.3085.6211.4644 1.3112.4644 2.072v8.7121c0 .586.1419 1.0154.4255 1.2959.2837.2823.6967.4187 1.2376.4187h9.5777c.3601 0 .65.1212.8713.362.2213.2423.3273.5274.3273.8573 0 .3296-.1278.6119-.3881.8543-.2587.242-.5798.3617-.9663.3617h-10.315z"/><path d="m55.7554 69.9149c-.3882 0-.7077-.1211-.9663-.3619-.2589-.2424-.3882-.5275-.3882-.854 0-.3269.109-.615.3274-.8574.2181-.2423.5081-.3619.8713-.3619h9.5778c.5439 0 .9553-.1365 1.2373-.4187.2838-.279.4256-.71.4256-1.2959v-8.7124c0-.7606.1558-1.4506.4646-2.0717.3085-.6226.7216-1.1103 1.2373-1.4677.516-.3541 1.1193-.532 1.8159-.532v.1532c-.6966 0-1.2999-.1779-1.8159-.532-.5157-.3543-.9288-.8435-1.2373-1.4677-.3088-.6211-.4646-1.3112-.4646-2.072v-8.6738c0-.5828-.1418-1.0137-.4256-1.2959-.2835-.2791-.6967-.4187-1.2373-.4187h-9.5778c-.3602 0-.6501-.1211-.8713-.3634-.2184-.2392-.3274-.526-.3274-.8573 0-.3542.1278-.6441.3882-.8726.2571-.2285.5781-.342.9663-.342h10.3149c1.2641 0 2.2288.3313 2.9006.9892.6717.6579 1.0054 1.6225 1.0054 2.8908v8.6339c0 1.0398.2136 1.8037.6359 2.2836.4256.4816 1.1798.7361 2.2616.7608.3365.0244.6063.1502.8105.3788.2072.2283.3085.5213.3085.8756 0 .3312-.1013.6211-.3085.8726-.2042.253-.4786.3818-.8105.3818-1.0818.0244-1.8345.2792-2.2616.7606-.4256.4816-.6359 1.2546-.6359 2.3219v8.634c0 .8389-.1481 1.5473-.4457 2.1333-.2978.5857-.7341 1.0212-1.314 1.3142-.5813.29-1.2969.4356-2.1463.4356h-10.3149z"/><path d="m58.4063 56.3629c1.8783 0 3.401-1.4983 3.401-3.3463 0-1.8477-1.5227-3.3463-3.401-3.3463-1.878 0-3.401 1.4986-3.401 3.3463 0 1.848 1.523 3.3463 3.401 3.3463z"/><path d="m39.3566 56.3629c1.8782 0 3.4009-1.4983 3.4009-3.3463 0-1.8477-1.5227-3.3463-3.4009-3.3463-1.8781 0-3.4009 1.4986-3.4009 3.3463 0 1.848 1.5228 3.3463 3.4009 3.3463z"/><path d="m47.1107 26.5656-.2601 6.8382c0 .3834-.3678.5751-1.1037.5751-.7356 0-1.1034-.1917-1.1034-.5751-.0655-1.7038-.1185-3.0258-.1621-3.9628-.0218-.9585-.0437-1.6409-.0655-2.0458-.0218-.4048-.0327-.6502-.0327-.7345v-.1273c0-.4892.4551-.7346 1.3637-.7346.9087 0 1.3638.2561 1.3638.7668zm5.5206 0-.2601 6.8382c0 .3834-.3678.5751-1.1035.5751-.7356 0-1.1037-.1917-1.1037-.5751-.0654-1.7038-.1184-3.0258-.1619-3.9628-.0219-.9585-.0438-1.6409-.0654-2.0458-.0219-.4048-.0328-.6502-.0328-.7345v-.1273c0-.4892.4551-.7346 1.3638-.7346s1.3636.2561 1.3636.7668z"/></g></svg>