<svg width="32" height="32" viewBox="0 0 32 32" fill="none" xmlns="http://www.w3.org/2000/svg">
<rect width="32" height="32" fill="#E9E9E9"/>
<g clip-path="url(#clip0_413_16)">
<mask id="mask0_413_16" style="mask-type:luminance" maskUnits="userSpaceOnUse" x="6" y="6" width="20" height="11">
<path d="M24.5738 15.5312C24.4827 13.7407 23.8306 12.0242 22.7099 10.6248C21.5892 9.22536 20.0567 8.21394 18.3294 7.73375C18.2956 7.47109 18.1675 7.22966 17.9689 7.05443C17.7703 6.8792 17.5148 6.78212 17.25 6.78125H14.75C14.1956 6.78125 13.7406 7.19812 13.6706 7.73375C11.9433 8.21394 10.4108 9.22536 9.29008 10.6248C8.1694 12.0242 7.51734 13.7407 7.42625 15.5312H6V16.4688H26V15.5312H24.5738ZM13.6562 8.71062V14.125H14.5938V7.875C14.5938 7.83356 14.6102 7.79382 14.6395 7.76451C14.6688 7.73521 14.7086 7.71875 14.75 7.71875H17.25C17.2914 7.71875 17.3312 7.73521 17.3605 7.76451C17.3898 7.79382 17.4062 7.83356 17.4062 7.875V14.125H18.3438V8.71062C19.8126 9.17816 21.105 10.0805 22.05 11.2984C22.9951 12.5163 23.5482 13.9923 23.6363 15.5312H8.36375C8.45183 13.9923 9.00494 12.5163 9.94995 11.2984C10.895 10.0805 12.1874 9.17816 13.6562 8.71062Z" fill="white"/>
<path d="M19.125 10.375V14.75H12.875V10.375H19.125Z" fill="url(#paint0_linear_413_16)"/>
</mask>
<g mask="url(#mask0_413_16)">
<path d="M6 6H26V26H6V6Z" fill="url(#paint1_linear_413_16)"/>
</g>
<path d="M21 25.2188H11C10.2941 25.2179 9.6116 24.9659 9.07454 24.5079C8.53748 24.0499 8.18095 23.4156 8.06875 22.7188H7.875C7.27188 22.7188 6.78125 22.2281 6.78125 21.625V17.875H7.71875V21.625C7.71875 21.7112 7.78875 21.7812 7.875 21.7812H8.96875V22.25C8.96941 22.7885 9.18363 23.3048 9.56442 23.6856C9.94521 24.0664 10.4615 24.2806 11 24.2812H21C21.5385 24.2806 22.0548 24.0664 22.4356 23.6856C22.8164 23.3048 23.0306 22.7885 23.0312 22.25V21.7812H24.125C24.1664 21.7812 24.2062 21.7648 24.2355 21.7355C24.2648 21.7062 24.2812 21.6664 24.2812 21.625V17.875H25.2188V21.625C25.2188 22.2281 24.7281 22.7188 24.125 22.7188H23.9313C23.819 23.4156 23.4625 24.0499 22.9255 24.5079C22.3884 24.9659 21.7059 25.2179 21 25.2188Z" fill="#001D6C"/>
<path d="M19.75 20.375C20.4404 20.375 21 19.8154 21 19.125C21 18.4346 20.4404 17.875 19.75 17.875C19.0596 17.875 18.5 18.4346 18.5 19.125C18.5 19.8154 19.0596 20.375 19.75 20.375Z" fill="#001D6C"/>
<path d="M12.25 20.375C12.9404 20.375 13.5 19.8154 13.5 19.125C13.5 18.4346 12.9404 17.875 12.25 17.875C11.5596 17.875 11 18.4346 11 19.125C11 19.8154 11.5596 20.375 12.25 20.375Z" fill="#001D6C"/>
<path d="M16 23.3437C15.2218 23.3464 14.4642 23.0939 13.8431 22.625C13.7438 22.5502 13.6782 22.4389 13.6608 22.3157C13.6435 22.1925 13.6758 22.0675 13.7506 21.9681C13.8255 21.8687 13.9367 21.8032 14.0599 21.7858C14.1831 21.7685 14.3081 21.8008 14.4075 21.8756C15.33 22.57 16.6681 22.57 17.5944 21.8756C17.6435 21.8375 17.6997 21.8094 17.7597 21.7932C17.8198 21.777 17.8825 21.7729 17.9441 21.7811C18.0058 21.7893 18.0652 21.8098 18.1189 21.8412C18.1725 21.8726 18.2194 21.9144 18.2568 21.9641C18.2942 22.0138 18.3213 22.0705 18.3365 22.1308C18.3517 22.1911 18.3548 22.2538 18.3456 22.3154C18.3364 22.3769 18.315 22.4359 18.2827 22.4891C18.2504 22.5422 18.2078 22.5884 18.1575 22.625C17.5366 23.0938 16.7792 23.3462 16.0013 23.3437H16Z" fill="#001D6C"/>
</g>
<defs>
<linearGradient id="paint0_linear_413_16" x1="16" y1="10.3654" x2="16" y2="14.7406" gradientUnits="userSpaceOnUse">
<stop offset="0.134" stop-opacity="0"/>
<stop offset="0.873"/>
</linearGradient>
<linearGradient id="paint1_linear_413_16" x1="6" y1="26" x2="26" y2="6" gradientUnits="userSpaceOnUse">
<stop offset="0.1" stop-color="#A16EFB"/>
<stop offset="0.9" stop-color="#0E61FA"/>
</linearGradient>
<clipPath id="clip0_413_16">
<rect width="20" height="20" fill="white" transform="translate(6 6)"/>
</clipPath>
</defs>
</svg>
