<svg xmlns="http://www.w3.org/2000/svg" id="Bob" viewBox="0 0 32 32">
  <style>
    #Bob .bob-grad-start {
      stop-color: #bc93fd;
    }
    #Bob .bob-grad-end {
      stop-color: #4587fd;
    }
    #Bob .bob-face {
      fill: #f4f4f4;
    }
    @media (prefers-color-scheme: light) {
      #Bob .bob-grad-start {
        stop-color: #a16efb;
      }
      #Bob .bob-grad-end {
        stop-color: #0e61fa;
      }
      #Bob .bob-face {
        fill: #001d6c;
      }
    }
  </style>
  <defs>
    <linearGradient id="zcq3oy9swa" x1="-1956.953" y1="4139.361" x2="-1945.859" y2="4139.361" gradientTransform="matrix(0 .631 1 0 -4123.361 1241.822)" gradientUnits="userSpaceOnUse">
      <stop offset=".134" stop-opacity="0" />
      <stop offset=".873" />
    </linearGradient>
    <linearGradient id="pdvmtrqaic" x1="0" y1="32" x2="32" y2="0" gradientUnits="userSpaceOnUse">
      <stop class="bob-grad-start" offset=".1" />
      <stop class="bob-grad-end" offset=".9" />
    </linearGradient>
    <mask id="n26cxl4sob" x="0" y="0" width="32" height="32" maskUnits="userSpaceOnUse">
      <path d="M29.718 15.25a13.67 13.67 0 0 0-9.991-12.476A1.747 1.747 0 0 0 18 1.25h-4c-.887 0-1.615.667-1.727 1.524A13.67 13.67 0 0 0 2.282 15.25H0v1.5h32v-1.5h-2.282zM12.25 4.337V13h1.5V3a.25.25 0 0 1 .25-.25h4a.25.25 0 0 1 .25.25v10h1.5V4.337a12.183 12.183 0 0 1 8.468 10.913H3.782A12.183 12.183 0 0 1 12.25 4.337z" style="fill:#fff" />
      <path d="M21 7v7H11V7h10z" style="fill:url(#zcq3oy9swa)" />
    </mask>
  </defs>
  <g style="mask:url(#n26cxl4sob)">
    <path style="fill:url(#pdvmtrqaic)" d="M0 0h32v32H0z" />
  </g>
  <path class="bob-face" d="M24 30.75H8a4.756 4.756 0 0 1-4.69-4H3c-.965 0-1.75-.785-1.75-1.75v-6h1.5v6c0 .138.112.25.25.25h1.75V26A3.254 3.254 0 0 0 8 29.25h16A3.254 3.254 0 0 0 27.25 26v-.75H29a.25.25 0 0 0 .25-.25v-6h1.5v6c0 .965-.785 1.75-1.75 1.75h-.31a4.756 4.756 0 0 1-4.69 4z" />
  <circle class="bob-face" cx="22" cy="21" r="2" />
  <circle class="bob-face" cx="10" cy="21" r="2" />
  <path class="bob-face" d="M16 27.75a5.695 5.695 0 0 1-3.451-1.15.75.75 0 0 1 .903-1.199c1.476 1.111 3.617 1.111 5.099 0a.75.75 0 1 1 .901 1.199 5.696 5.696 0 0 1-3.45 1.15z" />
  <path style="fill:none" d="M0 0h32v32H0z" />
</svg>
