<svg fill="none" height="96" viewBox="0 0 96 96" width="96" xmlns="http://www.w3.org/2000/svg" xmlns:xlink="http://www.w3.org/1999/xlink"><linearGradient id="a" gradientUnits="userSpaceOnUse" x1="48" x2="48" y1="32.0356" y2="44.2862"><stop offset=".134" stop-opacity="0"/><stop offset=".873"/></linearGradient><linearGradient id="b" gradientUnits="userSpaceOnUse" x1="20" x2="76" y1="75.8125" y2="19.8125"><stop offset=".1" stop-color="#a16efb"/><stop offset=".9" stop-color="#0e61fa"/></linearGradient><mask id="c" height="28" maskUnits="userSpaceOnUse" width="56" x="20" y="22"><path d="m72.0066 46.4999c-.255-5.0134-2.0809-9.8196-5.2189-13.738-3.1379-3.9184-7.4289-6.7504-12.2654-8.0949-.0946-.7354-.4533-1.4115-1.0094-1.9021s-1.2715-.7625-2.0129-.7649h-7c-1.5523 0-2.8263 1.1672-3.0223 2.667-4.8365 1.3445-9.1275 4.1765-12.2655 8.0949-3.1379 3.9184-4.9636 8.7246-5.2187 13.738h-3.9935v2.6252h56v-2.6252zm-30.5692-19.0977v15.1603h2.6252v-17.5c0-.116.046-.2273.128-.3094.082-.082.1935-.1281.3094-.1281h7c.1159 0 .2274.0461.3094.1281.082.0821.128.1934.128.3094v17.5h2.6252v-15.1603c4.1127 1.3091 7.7314 3.8357 10.3774 7.2458 2.6463 3.4101 4.195 7.5429 4.4416 11.8519h-42.7631c.2466-4.309 1.7953-8.4418 4.4414-11.8519s6.2648-5.9367 10.3775-7.2458z" fill="#fff"/><path d="m56.75 32.0625v12.25h-17.5v-12.25z" fill="url(#a)"/></mask><path d="m0 0h96v96h-96z" fill="#e9e9e9"/><g mask="url(#c)"><path d="m20 19.8125h56v56h-56z" fill="url(#b)"/></g><g fill="#001d6c"><path d="m62 73.6251h-28c-1.9765-.0025-3.8875-.7081-5.3913-1.9905s-2.502-3.0584-2.8162-5.0095h-.5425c-1.6887 0-3.0625-1.3739-3.0625-3.0626v-10.5h2.625v10.5c0 .2414.196.4374.4375.4374h3.0625v1.3126c.0018 1.5078.6017 2.9534 1.6679 4.0197 1.0662 1.0662 2.5118 1.666 4.0196 1.6677h28c1.5078-.0017 2.9534-.6015 4.0197-1.6677 1.0662-1.0663 1.666-2.5119 1.6677-4.0197v-1.3126h3.0626c.1159 0 .2274-.046.3094-.128s.128-.1935.128-.3094v-10.5h2.6252v10.5c0 1.6887-1.3739 3.0626-3.0626 3.0626h-.5424c-.3144 1.9511-1.3126 3.7271-2.8162 5.0095-1.5039 1.2824-3.4149 1.988-5.3914 1.9905z"/><path d="m58.5 60.0625c1.9331 0 3.5-1.5669 3.5-3.5s-1.5669-3.5-3.5-3.5-3.5 1.5669-3.5 3.5 1.5669 3.5 3.5 3.5z"/><path d="m37.5 60.0625c1.9331 0 3.5-1.5669 3.5-3.5s-1.5669-3.5-3.5-3.5-3.5 1.5669-3.5 3.5 1.5669 3.5 3.5 3.5z"/><path d="m48 68.3746c-2.1789.0075-4.3002-.6995-6.0393-2.0124-.278-.2094-.4617-.5211-.5104-.866-.0485-.345.042-.695.2514-.9733.2097-.2783.5211-.4617.8661-.5104.3449-.0485.6949.042.9732.2514 2.583 1.9443 6.3297 1.9443 8.9234 0 .1374-.1067.2948-.1854.4628-.2307.1683-.0454.3438-.0569.5163-.0339.1728.023.3391.0804.4895.1683.15.0879.2814.2049.3861.3441s.1806.2979.2231.4668c.0426.1688.0513.3444.0255.5168-.0257.1722-.0857.3374-.1761.4864-.0904.1487-.2097.278-.3506.3805-1.7385 1.3127-3.8592 2.0194-6.0373 2.0124z"/></g></svg>