<svg fill="none" height="96" viewBox="0 0 96 96" width="96" xmlns="http://www.w3.org/2000/svg"><path d="m0 0h96v96h-96z" fill="#740de1"/><g fill="#fff"><path d="m36.767 35.832c8.8266 0 13.7756 4.1356 13.9426 10.2227l-7.6227.2307c-.2009-3.3741-3.2273-5.5899-6.3199-5.5237-4.2459.0828-7.3884 2.8779-7.3884 7.3108 0 4.4327 3.1425 7.1779 7.3884 7.178 3.0927 0 6.0525-2.1171 6.3869-5.4914l7.6227.1662c-.2007 6.1861-5.4507 10.3876-14.0096 10.3876-8.5588-.0001-15.2454-4.7971-15.2455-12.2404 0-7.4765 6.4192-12.2404 15.2455-12.2405z"/><path d="m74.5897 36.4919v23.1576h-20.0605v-23.1576z"/></g></svg>