<svg fill="none" height="96" viewBox="0 0 96 96" width="96" xmlns="http://www.w3.org/2000/svg"><path d="m0 0h96v96h-96z" fill="#f3f3f3"/><path d="m65.1195 29.1801-3.0273 5.2483 7.6519 13.2433c.056.1005.0896.2234.0896.335 0 .1117-.0336.2346-.0896.335l-7.6519 13.2546 3.0273 5.2485 10.8805-18.8381-10.8805-18.8378zm-4.2003 4.5671 3.0273-5.2483h-6.0546l-3.0273 5.2483h6.0658zm-6.0658 1.3624 7.0712 12.2271h6.0546l-7.06-12.2271zm6.0658 25.8167 7.06-12.2383h-6.0546l-7.0712 12.2383zm-6.0658 1.3624 3.0273 5.2258h6.0546l-3.0273-5.2258h-6.0658zm-20.521 6.5214c-.1229 0-.2346-.0336-.335-.0896-.1008-.0557-.1901-.145-.2461-.2454l-7.6631-13.2549h-6.0547l10.8806 18.8269h21.7497l-3.0273-5.237h-15.2929zm16.4772-.6813 3.0272 5.237 3.0273-5.2482-3.0273-5.2481-3.0272 5.2481zm1.8542-5.9294h-14.1199l-3.0273 5.2482h14.1199zm-15.3041-.67-7.0712-12.2386-3.0274 5.2485 7.0713 12.2383zm-17.3374-7.6713h6.0547l3.0273-5.2482h-6.0435zm13.6957-26.2749c.0557-.1004.1453-.1898.2458-.2456.1004-.0558.2233-.0893.335-.0893h15.3153l3.0273-5.2483h-21.7609l-10.8805 18.8377h6.0547l7.6409-13.2433zm-4.6137 19.854-3.0273-5.2482h-6.0547l3.0274 5.2482zm5.2057-18.1566-7.06 12.2272 3.0273 5.2485 7.06-12.2275zm15.3153-.6812h-14.1423l3.0273 5.2482h14.1423zm4.2115 4.567 3.0161-5.237-3.0161-5.2482-3.0272 5.237z" fill="#33333b"/></svg>