<svg fill="none" height="96" viewBox="0 0 96 96" width="96" xmlns="http://www.w3.org/2000/svg" xmlns:xlink="http://www.w3.org/1999/xlink"><clipPath id="a"><path d="m23.5 40.8203h50v15.3595h-50z"/></clipPath><path d="m0 0h96v96h-96z" fill="#6b50ff"/><g clip-path="url(#a)" fill="#fffdf5"><path d="m27.2996 52.4022c.5837 0 1.1262-.2438 1.5466-.5861.2594-.2106.527-.1535.5807.0944.0206.0923.0248.1898.0248.2894 0 1.0975-.8772 2.4107-3.0964 2.4107-1.805 0-3.0469-.7977-2.8309-3.225l.2149-2.4605c.1322-1.5457.7118-2.8589 1.838-3.5902.5961-.3828 1.3576-.5986 2.2843-.5986 1.4568 0 1.9207.582 1.9207 1.2137 0 .416-.2149.8641-.53 1.0809-.281-.0498-.5466-.083-.8111-.083-.53 0-1.0104.1162-1.3575.4326-.2976.2655-.497.6815-.5466 1.2634l-.2314 2.527c-.0662.7136.1487 1.2313.9939 1.2313z"/><path d="m33.1185 53.0322c-.0496.5653-.2976.9138-.6458 1.1472-.4969.333-1.0765.4326-1.5725.4326-.5135 0-.6622-.2822-.6126-.8143l.9608-11.0392c.0496-.5156.2149-.9637.5796-1.1805.529-.3153 1.0921-.4647 1.589-.4647.464 0 .7284.2489.6954.5819l-.3978 4.1389h.1984c.2149-.2655.4473-.4823.6788-.6483.4473-.2987.9432-.4491 1.5063-.4491 1.2088 0 1.805.6317 1.6728 2.0943l-.5301 6.1503c-.0496.5156-.2149.9139-.5796 1.1307-.5631.3496-1.0931.4989-1.589.4989-.5135 0-.7119-.2821-.6788-.6317l.53-6.1835c.0331-.333-.0661-.4989-.3482-.4989-.1818 0-.4639.0498-.5961.1327-.281.166-.3978.3496-.4308.6484z"/><path d="m45.3543 52.9824c-.0496.5155-.1984.8973-.5796 1.1307-.5631.3496-1.0766.4989-1.5229.4989-.4639 0-.6623-.2489-.6292-.5819l.0496-.6484h-.1818c-.1158.1826-.2149.3496-.3482.4824-.3978.416-.8937.7479-1.7223.7479-1.5395 0-2.0199-1.3464-1.9042-2.7427l.248-2.8754c.1488-1.7292.7284-2.6763 1.6551-3.3081.8276-.5653 1.8876-.947 3.1295-.947.6623 0 1.2584.0663 1.6221.1659.6788.1826.8276.4492.7945.8973zm-4.0397-1.0809c-.0331.4658.1488.6649.5135.6649.2149 0 .3977-.0664.5465-.1826.1819-.1327.2976-.3495.3141-.5985l.4308-4.9698c-.0661-.0166-.1818-.0332-.3481-.0332-.3317 0-.5962.1328-.7945.3662-.1819.2157-.2976.5487-.3317.9636z"/><path d="m50.2051 46.0828c.2645-.6483.7945-1.3465 1.7048-1.3465.7284 0 1.027.4326 1.027 1.0311 0 .499-.1984 1.0975-.5301 1.6629-.2975-.083-.5961-.1162-.8771-.0996-.8772.0332-1.589.5487-1.6717 1.4626l-.3482 4.2385c-.0496.5654-.2975.9139-.6457 1.1473-.497.333-1.0766.4326-1.5725.4326-.5135 0-.6623-.2822-.6127-.8143l.6457-7.4138c.0496-.5155.2149-.9637.5796-1.1805.5301-.3153 1.0601-.4657 1.556-.4657.4639 0 .6623.2489.6292.5819l-.0661.7645h.1818z"/><path d="m61.0335 53.9789.5468-6.4501c.033-.333-.0167-.4989-.2977-.4989-.1817 0-.4144.0498-.5464.1327-.2647.166-.4144.3994-.4311.665l-.4474 5.1534c-.0493.5156-.2147.9139-.5794 1.1307-.5631.3496-1.0931.4989-1.5892.4989-.5134 0-.7118-.2821-.6788-.6317l.5468-6.4501c.033-.333-.0167-.4989-.2977-.4989-.1817 0-.4308.0498-.5631.1327-.2811.166-.3977.3496-.4307.6484l-.4474 5.2198c-.0496.5653-.2976.9139-.6458 1.1473-.4969.333-1.0765.4325-1.5724.4325-.5135 0-.6623-.2821-.6127-.8143l.6457-7.4137c.0496-.5156.2149-.9637.5796-1.1805.53-.3153 1.06-.4658 1.556-.4658.464 0 .6623.249.6293.582l-.0496.5155h.1817c.1653-.1991.3317-.3827.5134-.5155.497-.3994 1.0601-.582 1.7058-.582 1.0765 0 1.4732.5322 1.6223 1.0975h.132c.182-.2157.4144-.4159.6127-.5653.4804-.3662 1.0272-.5322 1.6562-.5322 1.2089 0 1.7719.6318 1.6386 2.0944l-.5301 6.1503c-.0493.5156-.2147.9139-.5794 1.1307-.5631.3496-1.0931.4989-1.5892.4989-.5134 0-.7118-.2821-.6788-.6317z"/><path d="m65.2522 56.0558c-.4143 0-.6787-.1991-.6787-.6317 0-.7977.2644-1.2801.8274-1.2801h5.5461c.4307 0 .6954.1992.6954.6318 0 .7977-.2647 1.28-.8277 1.28z"/><path d="m72.2714 53.5412h-.182v-.112h.5013v.112h-.1798v.4938h-.1395zm.4751-.112h.2419l.1219.5135h.0238l.1196-.5135h.2461v.6058h-.1261v-.5176h-.0249l-.1219.5176h-.2098l-.1258-.5176h-.0248v.5176h-.12z"/></g></svg>