<svg fill="none" height="96" viewBox="0 0 96 96" width="96" xmlns="http://www.w3.org/2000/svg"><path d="m0 0h96v96h-96z" fill="#1f1f1f"/><path d="m57.6949 44.7012c1.2377-.6773 2.7768-.6773 4.0174 0l3.2083 1.7557c.1033.0558.2128.095.3249.126.0238.0056.0473.014.0711.0195.1092.0252.2215.0392.3336.0421h.0148c.0119 0 .0238-.0029.0354-.0058.1034 0 .207-.014.3072-.0392.018-.0026.0357-.0055.0534-.011.1092-.0282.2126-.07.3159-.1232.009-.0058.0209-.0058.0325-.0113l6.4166-3.5111c.4607-.2517.7444-.7165.7444-1.2205v-7.0219c0-.5041-.2837-.9686-.7444-1.2206l-6.4166-3.5111c-.4607-.252-1.0249-.252-1.4859 0l-6.4162 3.5111s-.0178.0139-.0268.0194c-.0975.0561-.189.1231-.2717.1989-.0119.0111-.0235.0253-.0354.0363-.0709.0729-.1359.1513-.189.2352-.009.0139-.0207.0252-.0268.0392-.056.0923-.0972.1904-.1297.2941-.0061.0224-.0119.0447-.0177.0671-.0268.1065-.0474.2157-.0474.3304v3.5111c0 1.355-.7711 2.6177-2.0088 3.2979-1.2378.6777-2.7769.6777-4.0178 0l-3.2079-1.7554c-.1037-.056-.2129-.0952-.3252-.126-.0235-.0055-.0471-.0139-.0709-.0197-.1091-.025-.2215-.0392-.3339-.0418-.0177 0-.0325 0-.0502 0-.1062 0-.2096.0139-.3101.0392-.0177.0026-.0325.0055-.0502.011-.1092.0282-.2157.0703-.3162.1234-.0087.0055-.0206.0055-.0293.011l-6.4165 3.5111c-.4608.252-.7445.7166-.7445 1.2206v7.0219c0 .504.2837.9688.7445 1.2209l6.4165 3.5108s.0206.0055.0293.0113c.1005.0531.207.0949.3162.1231.0177.0055.0354.0055.0531.011.1005.0227.2039.0366.3072.0392.0119 0 .0238.0058.0357.0058h.0145c.1124 0 .2216-.0168.3339-.0421.0238-.0055.0474-.011.0709-.0194.1123-.0308.2215-.07.3252-.126l3.2079-1.7557c1.238-.6774 2.7771-.6774 4.0178 0 1.2377.6776 2.0088 1.9403 2.0088 3.2953v3.5111c0 .1147.0177.2239.0474.3304.0058.0224.0116.0447.0177.0671.0325.1036.0737.2015.1297.2941.009.0139.0178.0253.0268.0392.0531.0839.1181.1623.189.2352.0119.011.0235.0252.0354.0363.0798.0755.1713.1399.2717.1989.009.0055.0149.0139.0268.0194l6.4162 3.5111c.2305.126.4875.1876.7444.1876.2573 0 .5142-.0645.7445-.1876l6.4165-3.5111c.4607-.252.7444-.7165.7444-1.2206v-7.0219c0-.504-.2837-.9688-.7444-1.2208l-6.4165-3.5108s-.0207-.0055-.0294-.0114c-.1004-.0531-.207-.0949-.3162-.1231-.0177-.0055-.0325-.0055-.0502-.011-.1033-.0226-.2067-.0366-.3133-.0392-.0145 0-.0322 0-.047 0-.1124 0-.2247.0166-.3339.0418-.0235.0058-.0444.0113-.0679.0198-.1124.0307-.2216.0699-.3249.126l-3.2083 1.7554c-1.2377.6776-2.7768.6776-4.0148 0-1.2377-.6777-2.0086-1.9404-2.0086-3.2983s.7709-2.6177 2.0086-3.2954z" fill="#21c29b"/><path d="m22.7444 42.9457 6.4164 3.5108c.2304.126.4875.1878.7445.1878s.5139-.0644.7445-.1878l6.4162-3.5108s.0177-.014.0267-.0198c.0976-.0557.189-.1231.2718-.1986.0119-.0113.0235-.0252.0354-.0365.0708-.0726.1359-.151.189-.2352.009-.0139.0209-.025.0267-.0392.056-.0923.0976-.1902.1301-.2938.0058-.0224.0116-.0447.0177-.0674.0264-.1063.047-.2154.047-.3301v-3.5111c0-1.355.7712-2.6177 2.0089-3.2954 1.2377-.6776 2.7768-.6776 4.0177 0l3.2083 1.7554c.1033.0561.2125.0953.3249.1261.0235.0058.0473.0142.0708.0197.1092.0253.2215.0392.3339.0418h.0148c.0116 0 .0235-.0055.0354-.0055.1034 0 .2067-.0139.3072-.0392.0177-.0026.0354-.0055.0531-.011.1095-.0282.2158-.0703.3162-.1234.0087-.0056.0206-.0056.0293-.0111l6.4166-3.5111c.4607-.252.7444-.7165.7444-1.2205v-7.022c0-.5039-.2837-.9687-.7444-1.2207l-6.4224-3.5081c-.4607-.252-1.0249-.252-1.4859 0l-6.4163 3.5109s-.0177.014-.0267.0196c-.0975.056-.189.1232-.2717.1988-.0119.0112-.0235.0252-.0354.0364-.0709.0728-.1359.1512-.1891.2352-.009.014-.0206.0252-.0267.0392-.056.0924-.0975.1904-.1298.294-.006.0224-.0119.0448-.018.0672-.0264.1064-.047.2155-.047.3303v3.511c0 1.355-.7711 2.6177-2.0089 3.2982-1.2377.6774-2.7768.6774-4.0177 0l-3.2082-1.7556c-.1034-.0561-.2126-.0953-.3248-.1261-.0237-.0055-.0473-.0139-.0709-.0194-.1094-.0253-.2216-.0392-.3339-.0421-.0177 0-.0325 0-.0502 0-.1063 0-.2097.0139-.3102.0392-.0177.0029-.0325.0058-.0502.0113-.1093.0279-.2156.07-.3161.1231-.0089.0055-.0207.0055-.0295.0113l-6.4135 3.5137c-.4608.2521-.7444.7166-.7444 1.2206v7.0219c0 .504.2836.9689.7444 1.2209z" fill="#3969cb"/><path d="m54.9417 62.8356-6.4166-3.5111s-.0206-.0055-.0296-.0111c-.1004-.0531-.2067-.0952-.3159-.1234-.0177-.0055-.0354-.0055-.0531-.011-.1037-.0223-.207-.0363-.3104-.0392-.0177 0-.0325 0-.0502 0-.1121 0-.2244.0169-.3339.0421-.0235.0055-.0441.011-.0679.0195-.1121.0307-.2216.0699-.3249.126l-3.2083 1.7554c-1.2377.6776-2.7768.6776-4.0145 0-1.2377-.6774-2.0089-1.9401-2.0089-3.298v-3.5111c0-.1147-.0177-.2238-.0473-.3304-.0058-.0224-.0116-.0447-.0177-.0671-.0325-.1036-.0738-.2015-.1298-.2941-.009-.0139-.0177-.0249-.0267-.0392-.0531-.0839-.1182-.1623-.189-.2351-.0119-.0111-.0235-.0253-.0354-.0363-.0799-.0755-.1713-.14-.2718-.1989-.009-.0055-.0148-.014-.0267-.0195l-6.4162-3.5111c-.461-.252-1.0252-.252-1.4861 0l-6.4164 3.5111c-.4608.252-.7444.7166-.7444 1.2206v7.0219c0 .504.2836.9689.7444 1.2209l6.4164 3.5108s.0207.0084.0296.0113c.1004.0531.2038.0949.3131.1231.0177.0055.0354.0084.0532.011.1004.0227.2038.0366.3072.0392.0118 0 .0236.0058.0384.0058h.0177c.1123 0 .2216-.0168.3309-.0421.0236-.0055.0473-.0113.0709-.0194.1122-.0311.2217-.0703.3251-.126l3.2079-1.7557c1.238-.6774 2.7771-.6774 4.0178 0 1.2377.6776 2.0088 1.9403 2.0088 3.2953v3.5111c0 .1147.0177.2239.0473.3304.0058.0224.0117.0448.0178.0671.0325.1037.0737.2015.1297.2941.009.014.0177.025.0267.0392.0532.0839.1182.1623.1891.2352.0119.011.0238.025.0354.0363.0798.0755.1713.1399.2717.1989.009.0055.0148.0139.0267.0194l6.4163 3.5111c.2305.126.4875.1876.7444.1876.2573 0 .5142-.0645.7444-.1876l6.4166-3.5111c.4607-.252.7444-.7165.7444-1.2206v-7.0218c0-.5041-.2837-.9689-.7444-1.2209z" fill="#0295df"/></svg>