<svg fill="none" height="96" viewBox="0 0 96 96" width="96" xmlns="http://www.w3.org/2000/svg" xmlns:xlink="http://www.w3.org/1999/xlink"><clipPath id="a"><path d="m0 0h96v96h-96z"/></clipPath><g clip-path="url(#a)"><path d="m0 0h96v96h-96z" fill="#ef6f2e"/><path d="m60.0878 30.1941c-.1023-.0247-.1979-.0707-.2802-.1347-.0823-.0641-.1496-.1447-.197-.2365-.0474-.0917-.0739-.1923-.0778-.2949-.0039-.1028.0151-.2049.0555-.2998 1.3959-3.3129 2.0118-5.9636 1.0179-7.0733-2.6326-2.9441-13.1899 2.9104-16.5559 4.8932-.0902.0529-.191.0862-.2956.0975-.1045.0114-.2103.0006-.3102-.0315s-.1915-.0849-.2685-.1547c-.0772-.0698-.1377-.155-.178-.2498-1.415-3.3059-2.9024-5.6053-4.4101-5.705-3.9963-.2667-7.2174 11.1537-8.1603 14.8759-.0252.0997-.0721.1929-.1376.2732-.0657.0803-.1483.1459-.2423.1921-.0939.0463-.197.0721-.3022.0759-.1051.0038-.2099-.0147-.3071-.0541-3.397-1.3613-6.1163-1.962-7.253-.9925-3.019 2.5672 2.9832 12.863 5.0164 16.1457.0544.0878.0886.1861.1004.2882.0118.1018.0008.2051-.0321.3025-.033.0976-.0872.1871-.1589.2622s-.1592.1341-.2566.1732c-3.3887 1.3799-5.7465 2.8305-5.8499 4.3008-.2723 3.8973 11.4371 7.0386 15.2551 7.9582.102.0248.1973.0708.2794.1348.082.064.1491.1446.1963.2362.0473.0915.0739.192.0777.2945.0039.1024-.015.2045-.0553.2991-1.3959 3.3129-2.0117 5.9649-1.0177 7.0734 2.6324 2.9441 13.1909-2.9093 16.5571-4.8922.09-.053.1909-.0864.2955-.0979.1045-.0115.2105-.0008.3104.0314s.1916.085.2686.155c.077.0699.1377.1552.1778.2501 1.4148 3.3047 2.9011 5.6043 4.41 5.7051 3.9963.2655 7.2174-11.1538 8.159-14.8772.0255-.0996.0727-.1927.1385-.2728.0656-.0803.1485-.1456.2425-.1918.0941-.046.1972-.0719.3024-.0755s.2099.0147.3071.0543c3.397 1.3614 6.1151 1.9607 7.253.9924 3.019-2.5672-2.9844-12.8641-5.0176-16.1469-.054-.0878-.088-.1862-.0994-.2879-.0117-.102-.0005-.2052.0324-.3025.0329-.0974.0869-.1867.1584-.2618.0714-.0751.1587-.1345.2558-.1739 3.3898-1.3798 5.7477-2.8306 5.85-4.3009.2734-3.8972-11.4373-7.0384-15.2539-7.9568zm-4.5849-3.7362c.7681 1.3428-3.1902 10.2901-6.1342 16.5483-.0492.1045-.1301.192-.2319.2504-.1016.0585-.2194.0851-.337.0764-.1178-.0087-.23-.0524-.3214-.1251-.0916-.0728-.1581-.1711-.1905-.2819-1.1891-4.0689-2.548-8.8496-4.0023-12.9081-.057-.1594-.0542-.3333.0081-.4906.0624-.1575.18-.2882.332-.3688 3.6313-1.9341 9.8451-4.5026 10.8772-2.7006zm-17.4026 1.1074c1.5161.4197 5.2044 9.476 7.6597 15.9313.0411.1079.0471.2254.0176.3368-.0296.1113-.0933.2112-.1827.2862-.0896.075-.2003.1214-.3177.1332s-.2355-.0118-.3388-.0674c-3.7942-2.0536-8.2185-4.5003-12.1898-6.3672-.1555-.0736-.2792-.1985-.3491-.3527-.0699-.1541-.0815-.3275-.0326-.4891 1.1688-3.8683 3.6966-9.9735 5.7334-9.4111zm-11.5025 12.7842c1.3757-.7491 10.5513 3.1112 16.9674 5.9823.1073.048.1969.1268.2569.2261.0599.0991.0872.2139.0783.3287-.0091.1148-.0537.2241-.1284.3135-.0746.0892-.1753.154-.2889.1857-4.1711 1.1596-9.0746 2.4849-13.2362 3.9031-.1631.0553-.3412.0524-.5023-.0083-.1612-.0608-.295-.1754-.3776-.3234-1.9797-3.5414-4.6181-9.6012-2.7692-10.6077zm1.1355 16.9714c.4293-1.4784 9.7167-5.0755 16.3359-7.47.1107-.0399.2312-.0458.3453-.017.1143.0288.2166.091.2936.1782.0768.0872.1246.1954.1367.3097.012.1144-.0122.2297-.0693.3305-2.1069 3.7002-4.6158 8.0149-6.53 11.8866-.0748.1522-.2029.2733-.3611.3418-.1582.0684-.3362.0797-.5022.0316-3.9666-1.1329-10.2267-3.605-9.6489-5.5914zm13.1089 11.2176c-.7692-1.3416 3.1902-10.2899 6.1342-16.547.0492-.1046.1302-.1921.2319-.2505.1017-.0585.2194-.0851.337-.0764.1179.0087.23.0524.3214.1251.0916.0728.1581.1711.1905.2819 1.1891 4.0678 2.548 8.8498 4.0023 12.9082.0567.1593.0534.333-.009.4901-.0625.1572-.1804.2877-.3323.368-3.6301 1.9305-9.8451 4.5038-10.8724 2.7006zm17.4026-1.1075c-1.5173-.4184-5.2056-9.4758-7.6609-15.931-.0411-.1081-.0475-.226-.0178-.3376.0295-.1115.0933-.2116.1831-.2866.0896-.0751.2008-.1214.3182-.133.1177-.0117.236.0122.3393.0682 3.793 2.0536 8.2185 4.5016 12.1886 6.3684.1559.0733.2798.1982.3498.3523.07.1543.0812.3279.0319.4896-1.1676 3.8741-3.6954 9.9733-5.7322 9.4097zm11.5025-12.7842c-1.3769.7503-10.5513-3.111-16.9685-5.9821-.1074-.048-.197-.1269-.2569-.2261-.06-.0992-.0872-.2139-.0782-.3288.0089-.1148.0535-.2241.1282-.3134.0746-.0892.1754-.154.289-.1857 4.1722-1.1596 9.0745-2.485 13.2361-3.9031.1634-.0553.3419-.0523.5032.0087s.2952.1759.3779.3241c1.9785 3.5402 4.6169 9.6011 2.7692 10.6064zm-1.1355-16.9713c-.4304 1.4796-9.7167 5.0767-16.3359 7.4712-.1109.0401-.2315.0461-.346.0174-.1143-.0289-.2169-.0912-.294-.1786-.0769-.0875-.1244-.1959-.1363-.3106-.0119-.1145.0124-.2299.07-.3308 2.1057-3.699 4.6146-8.0149 6.5289-11.8866.0753-.1518.2033-.2725.3614-.3407s.336-.0795.5018-.0316c3.9666 1.1388 10.2267 3.6039 9.6501 5.5903z" fill="#fff"/></g></svg>