<svg fill="none" height="96" viewBox="0 0 96 96" width="96" xmlns="http://www.w3.org/2000/svg"><path d="m0 0h96v96h-96z" fill="#4b32c3"/><g fill="#fff"><path d="m36.7517 41.1976 10.8107-6.2415c.2706-.1563.6041-.1563.8746 0l10.8109 6.2415c.2704.1562.4373.4448.4373.7573v12.4831c0 .3123-.1669.6011-.4373.7576l-10.8109 6.2415c-.2705.1562-.604.1562-.8746 0l-10.8107-6.2415c-.2705-.1563-.4372-.4451-.4372-.7576v-12.4831c.0002-.3125.1669-.6011.4372-.7573z" fill-opacity=".8"/><path d="m76.108 46.8833-12.9167-22.4715c-.4692-.8125-1.336-1.4118-2.2741-1.4118h-25.834c-.9384 0-1.8053.5993-2.2745 1.4118l-12.9168 22.4219c-.4692.8127-.4692 1.8384 0 2.6511l12.9168 22.2873c.4692.8125 1.3361 1.2279 2.2745 1.2279h25.8337c.9382 0 1.8052-.4029 2.2741-1.2156l12.9168-22.3237c.4696-.8123.4696-1.7649.0002-2.5774zm-10.6957 10.8058c0 .3303-.1989.6359-.4853.8013l-16.4531 9.4926c-.2862.1652-.6447.1652-.9308 0l-16.4659-9.4926c-.2862-.1654-.4864-.4708-.4864-.8013v-18.9855c0-.3306.1973-.636.4837-.8014l16.4525-9.4926c.2861-.1654.6442-.1654.9303 0l16.467 9.4926c.2864.1654.488.4708.488.8014z"/></g></svg>