<svg fill="none" height="96" viewBox="0 0 96 96" width="96" xmlns="http://www.w3.org/2000/svg" xmlns:xlink="http://www.w3.org/1999/xlink"><clipPath id="a"><path d="m23 23h50v50h-50z"/></clipPath><mask id="b" height="47" maskUnits="userSpaceOnUse" width="50" x="23" y="26"><path d="m23 26.3335h50v46.6667h-50z" fill="#fff"/></mask><mask id="c" height="60" maskUnits="userSpaceOnUse" width="85" x="16" y="26"><path d="m29.0016 85.7188-12.0297-25.3938 71.6188-33.9271 12.0293 25.3938z" fill="#fff"/></mask><mask id="d" height="48" maskUnits="userSpaceOnUse" width="79" x="22" y="26"><path d="m22.9871 73.0221 65.5932-46.6188 12.0297 25.3938z" fill="#fff"/></mask><mask id="e" height="60" maskUnits="userSpaceOnUse" width="65" x="19" y="17"><path d="m25.0646 76.1588-5.1505-5.6896 58.9161-53.3359 5.1505 5.6891z" fill="#fff"/></mask><mask id="f" height="57" maskUnits="userSpaceOnUse" width="62" x="22" y="17"><path d="m22.489 73.3142 56.3344-56.175 5.1505 5.6895z" fill="#fff"/></mask><mask id="g" height="59" maskUnits="userSpaceOnUse" width="69" x="19" y="19"><path d="m26.3713 77.2912-6.8396-8.4947 61.1875-49.2667 6.8396 8.4948z" fill="#fff"/></mask><mask id="h" height="55" maskUnits="userSpaceOnUse" width="66" x="22" y="19"><path d="m22.9517 73.0438 57.7578-53.5062 6.8396 8.4948z" fill="#fff"/></mask><path d="m0 0h96v96h-96z" fill="#000"/><g clip-path="url(#a)"><g mask="url(#b)"><g mask="url(#c)"><g mask="url(#d)"><path d="m29.0016 85.7188-12.0297-25.3938 71.6188-33.9271 12.0293 25.3938z" fill="#fc6c84"/></g></g></g><g mask="url(#e)"><g mask="url(#f)"><path d="m25.0646 76.1588-5.1505-5.6896 58.9161-53.3359 5.1505 5.6891z" fill="#fdffd9"/></g></g><g mask="url(#g)"><g mask="url(#h)"><path d="m26.3713 77.2912-6.8396-8.4947 61.1875-49.2667 6.8396 8.4948z" fill="#ffcc98"/></g></g></g></svg>