<svg fill="none" height="96" viewBox="0 0 96 96" width="96" xmlns="http://www.w3.org/2000/svg"><path d="m0 0h96v96h-96z" fill="#642cc2"/><path d="m69.3127 62.6326c-1.3186 0-2.3394 1.0634-2.3394 2.3394 0 1.3187-1.0634 2.3395-2.3395 2.3395s-2.4246-1.0208-2.4246-2.2969v-11.9952c.2978-.5955.4679-1.2336.4679-1.9567v-13.7391c0-8.167-6.6356-14.8026-14.76-14.8026s-14.8026 6.6356-14.8026 14.8026v13.7391c0 .9358.2978 1.8291.8082 2.5522v11.3997c0 1.3186-1.0634 2.3395-2.382 2.3395s-2.3395-1.0634-2.3395-2.3395-1.0634-2.3395-2.3395-2.3395c-1.3186 0-2.3395 1.0634-2.3395 2.3395 0 3.7432 2.935 6.7632 6.5931 7.0184.1702.0426.2978.0426.4679.0426.1702 0 .3403 0 .4679-.0426 3.6581-.2552 6.5931-3.2752 6.5931-7.0184v-9.443s-.1276-1.9992 1.5738-1.9992c1.7015 0 1.5739 1.9992 1.5739 1.9992v9.3579c0 1.3186 1.0634 2.3395 2.3395 2.3395 1.276 0 2.3395-1.0634 2.3395-2.3395v-9.3579s-.3403-1.9992 1.5738-1.9992 1.5738 1.9992 1.5738 1.9992v9.3579c0 1.3186 1.0634 2.3395 2.3395 2.3395 1.3186 0 2.3395-1.0634 2.3395-2.3395v-9.3579s-.1276-1.9992 1.5738-1.9992c1.7015 0 1.5739 1.9992 1.5739 1.9992v9.443c0 3.7432 2.935 6.7632 6.5931 7.0184.1701.0426.2977.0426.4679.0426.1701 0 .3403 0 .4679-.0426 3.7006-.2552 6.5931-3.2752 6.5931-7.0184.085-1.3186-.9784-2.382-2.2545-2.382zm-29.1372-13.3564c-1.3186 0-2.3395-1.3186-2.3395-2.935 0-1.6163 1.0634-2.935 2.3395-2.935s2.3395 1.3187 2.3395 2.935c.0425 1.6164-1.0209 2.935-2.3395 2.935zm15.7384 0c-1.3187 0-2.3395-1.3186-2.3395-2.935 0-1.6163 1.0634-2.935 2.3395-2.935s2.3395 1.3187 2.3395 2.935c.0425 1.6164-1.0209 2.935-2.3395 2.935z" fill="#fff"/></svg>