<svg fill="none" height="96" viewBox="0 0 96 96" width="96" xmlns="http://www.w3.org/2000/svg"><path d="m0 0h96v96h-96z" fill="#121212"/><path d="m48.7374 45.9639 22.7231-23.9812c.1581-.1666.2639-.3759.3043-.602s.0136-.4591-.0771-.6702c-.0907-.211-.2413-.3908-.4332-.5171s-.4166-.1935-.6463-.1934h-10.5749c-.1553-.0001-.309.0306-.4523.0904s-.2733.1474-.3824.2578l-26.0444 26.2912c-.4043.4095-1.0028.0438-1.0028-.6125v-24.8509c0-.6475-.525-1.1742-1.1742-1.1742h-7.8047c-.311 0-.6092.1235-.8291.3434-.2199.2198-.3434.5181-.3434.829v53.6516c0 .6475.525 1.1742 1.1742 1.1742h7.803c.6475 0 1.1742-.525 1.1742-1.1742v-10.6992c-.0061-.2259.0755-.4453.2275-.6125l8.0393-8.2072c.0835-.0934.1983-.153.3228-.1675.1244-.0145.2499.0171.3527.0888l21.4998 16.2832c3.1429 2.1787 7.145 3.6049 10.8111 4.2016.1624.025.3283.0142.4861-.0315.1578-.0458.3037-.1254.4275-.2334s.2225-.2417.2893-.3918.1-.313.0974-.4773v-9.6894c-.0038-.2802-.1034-.5506-.2824-.7662-.1789-.2156-.4264-.3633-.7011-.4185-2.1262-.4585-4.4886-1.3265-6.2823-2.5689l-18.6089-13.8719c-.385-.2659-.434-.9519-.091-1.3019" fill="#fff"/></svg>