<svg fill="none" height="96" viewBox="0 0 96 96" width="96" xmlns="http://www.w3.org/2000/svg" xmlns:xlink="http://www.w3.org/1999/xlink"><mask id="a" height="57" maskUnits="userSpaceOnUse" width="47" x="24" y="20"><path d="m70.9987 20.026h-46.0601v56h46.0601z" fill="#fff"/></mask><path d="m0 0h96v96h-96z" fill="#9046ff"/><g mask="url(#a)"><path d="m33.8075 63.4223c-5.7924 12.8272 6.545 16.0468 15.6448 8.5396 2.6776 8.4172 12.705 2.1354 16.31-4.3924 7.9276-14.3847 4.725-29.0499 3.9025-32.0774-5.635-20.6324-33.8098-20.6675-38.6573.105-1.1375 3.64-1.155 7.77-1.785 12.0575-.315 2.17-.56 3.5525-1.3825 5.8273-.49 1.3128-1.1375 2.4676-2.1875 4.4275-1.61 3.0453-.9275 8.9077 7.4025 5.8628l.7875-.3499z" fill="#fff"/><g fill="#000"><path d="m50.5406 44.4358c-2.3099 0-2.6599-2.765-2.6599-4.41 0-1.4875.2625-2.6599.7702-3.4125.4374-.6649 1.0849-.9975 1.8897-.9975.8052 0 1.5051.3326 1.995 1.015.56.7701.8576 1.9425.8576 3.395 0 2.765-1.0672 4.41-2.8348 4.41z"/><path d="m60.0575 44.4358c-2.3099 0-2.6598-2.765-2.6598-4.41 0-1.4875.2624-2.6599.7701-3.4125.4374-.6649 1.0849-.9975 1.8897-.9975.8052 0 1.5051.3326 1.995 1.015.5601.7701.8576 1.9425.8576 3.395 0 2.765-1.0672 4.41-2.8348 4.41z"/></g></g></svg>