<svg fill="none" height="96" viewBox="0 0 96 96" width="96" xmlns="http://www.w3.org/2000/svg"><path d="m0 0h96v96h-96z" fill="#7fc8ff"/><g fill="#fff"><path d="m37.5724 57.2776c3.2944-3.2945 5.1463-7.7676 5.1463-12.4264 0-4.6587-1.8535-9.1319-5.1463-12.4264l-12.4261-12.4248c-3.2928 3.2945-5.1463 7.7677-5.1463 12.4264s1.8535 9.1319 5.1463 12.4264z"/><path d="m63.5725 58.4272c-3.2927-3.293-7.7674-5.1467-12.4243-5.1467-4.6571 0-9.1317 1.8537-12.4261 5.1467l12.4261 12.4261c3.2927 3.293 7.7675 5.1467 12.4259 5.1467 4.6587 0 9.1316-1.8537 12.4262-5.1467z"/><path d="m25.1763 70.8243c3.2944 3.2929 7.7675 5.1466 12.4261 5.1466v-17.5728h-17.574c.0016 4.6585 1.8535 9.1319 5.1479 12.4262z"/><path d="m68.3705 40.0547c-3.2945-3.2929-7.7674-5.1481-12.4277-5.1464-4.6584 0-9.1316 1.8535-12.426 5.148l12.426 12.4265z"/></g></svg>