<svg fill="none" height="96" viewBox="0 0 96 96" width="96" xmlns="http://www.w3.org/2000/svg" xmlns:xlink="http://www.w3.org/1999/xlink"><filter id="a" color-interpolation-filters="sRGB" filterUnits="userSpaceOnUse" height="107.942" width="108.108" x="-9.84636" y="-4.08855"><feFlood flood-opacity="0" result="BackgroundImageFix"/><feBlend in="SourceGraphic" in2="BackgroundImageFix" mode="normal" result="shape"/><feGaussianBlur result="effect1_foregroundBlur_94_292" stdDeviation="8.35116"/></filter><filter id="b" color-interpolation-filters="sRGB" filterUnits="userSpaceOnUse" height="107.942" width="129.078" x="-16.2302" y="-24.5392"><feFlood flood-opacity="0" result="BackgroundImageFix"/><feBlend in="SourceGraphic" in2="BackgroundImageFix" mode="normal" result="shape"/><feGaussianBlur result="effect1_foregroundBlur_94_292" stdDeviation="8.35116"/></filter><filter id="c" color-interpolation-filters="sRGB" filterUnits="userSpaceOnUse" height="98.8641" width="108.108" x="2.055" y="-27.0138"><feFlood flood-opacity="0" result="BackgroundImageFix"/><feBlend in="SourceGraphic" in2="BackgroundImageFix" mode="normal" result="shape"/><feGaussianBlur result="effect1_foregroundBlur_94_292" stdDeviation="8.35116"/></filter><filter id="d" color-interpolation-filters="sRGB" filterUnits="userSpaceOnUse" height="78.2313" width="78.3309" x="9.80842" y="-9.69304"><feFlood flood-opacity="0" result="BackgroundImageFix"/><feBlend in="SourceGraphic" in2="BackgroundImageFix" mode="normal" result="shape"/><feGaussianBlur result="effect1_foregroundBlur_94_292" stdDeviation="8.35116"/></filter><linearGradient id="e" gradientUnits="userSpaceOnUse" x1="38.5685" x2="55.3134" y1="29.8381" y2="75.9867"><stop offset=".025" stop-color="#ff8e63"/><stop offset=".56" stop-color="#ff7eb0"/><stop offset=".95" stop-color="#4b73ff"/></linearGradient><mask id="f" height="56" maskUnits="userSpaceOnUse" width="56" x="20" y="20"><path clip-rule="evenodd" d="m36.5561 20c9.1437 0 16.5561 7.4155 16.5561 16.5629v6.295h5.5099c9.1436 0 16.5563 7.4154 16.5563 16.5628s-7.4127 16.5628-16.5563 16.5628h-38.6221v-39.4206c0-9.1474 7.4124-16.5629 16.5561-16.5629z" fill="url(#e)" fill-rule="evenodd"/></mask><path d="m0 0h96v96h-96z" fill="#f7f4ed"/><g mask="url(#f)"><g filter="url(#a)"><path d="m44.2075 87.151c20.6286 0 37.3514-16.6858 37.3514-37.2686 0-20.5829-16.7228-37.2686-37.3514-37.2686-20.6287 0-37.35154 16.6857-37.35154 37.2686 0 20.5828 16.72284 37.2686 37.35154 37.2686z" fill="#4b73ff"/></g><g filter="url(#b)"><path d="m48.309 66.7003c26.4196 0 47.8369-16.6857 47.8369-37.2686 0-20.58289-21.4173-37.26861-47.8369-37.26861-26.4195 0-47.836832 16.68572-47.836832 37.26861 0 20.5829 21.417332 37.2686 47.836832 37.2686z" fill="#ff66f4"/></g><g filter="url(#c)"><path d="m56.1088 55.1481c20.6287 0 37.3515-14.6537 37.3515-32.7298 0-18.07619-16.7228-32.7298-37.3515-32.7298-20.6286 0-37.3515 14.65361-37.3515 32.7298 0 18.0761 16.7229 32.7298 37.3515 32.7298z" fill="#ff0105"/></g><g filter="url(#d)"><path d="m48.9738 51.8357c12.406 0 22.4631-10.0347 22.4631-22.4132s-10.0571-22.41322-22.4631-22.41322-22.4631 10.03472-22.4631 22.41322 10.0571 22.4132 22.4631 22.4132z" fill="#fe7b02"/></g></g></svg>