<svg fill="none" height="96" viewBox="0 0 96 96" width="96" xmlns="http://www.w3.org/2000/svg"><path d="m0 0h96v96h-96z" fill="#2d2d2d"/><path d="m17.4709 45.1557v-18.6666h4.3467l7.7333 12.6933h-2.2933l7.52-12.6933h4.3467l.0533 18.6666h-4.8533l-.0534-11.28h.8267l-5.6267 9.44h-2.3466l-5.7867-9.44h1.0133v11.28zm34.7494.3734c-1.4756 0-2.8445-.2312-4.1067-.6934-1.2444-.48-2.3289-1.1555-3.2533-2.0266-.9067-.8712-1.6178-1.8934-2.1334-3.0667-.5155-1.1911-.7733-2.4978-.7733-3.92s.2578-2.72.7733-3.8933c.5156-1.1912 1.2267-2.2223 2.1334-3.0934.9244-.8711 2.0089-1.5378 3.2533-2 1.2622-.48 2.6311-.72 4.1067-.72 1.7244 0 3.2622.3022 4.6133.9067 1.3689.6044 2.5067 1.4755 3.4133 2.6133l-3.36 3.04c-.6044-.7111-1.2711-1.2533-2-1.6266-.7111-.3734-1.5111-.56-2.4-.56-.7644 0-1.4666.1244-2.1066.3733s-1.1911.6133-1.6534 1.0933c-.4444.4622-.8 1.0222-1.0666 1.68-.2489.6578-.3734 1.3867-.3734 2.1867s.1245 1.5289.3734 2.1867c.2666.6577.6222 1.2266 1.0666 1.7066.4623.4622 1.0134.8178 1.6534 1.0667s1.3422.3733 2.1066.3733c.8889 0 1.6889-.1866 2.4-.56.7289-.3733 1.3956-.9155 2-1.6266l3.36 3.04c-.9066 1.12-2.0444 1.9911-3.4133 2.6133-1.3511.6044-2.8889.9067-4.6133.9067zm10.3809-.3734v-18.6666h8.5333c1.7067 0 3.1733.2755 4.4.8266 1.2445.5511 2.2044 1.3511 2.88 2.4.6756 1.0311 1.0133 2.2578 1.0133 3.68 0 1.4045-.3377 2.6222-1.0133 3.6534-.6756 1.0311-1.6355 1.8311-2.88 2.4-1.2267.5511-2.6933.8266-4.4.8266h-5.6l2.3467-2.2933v7.1733zm5.28-6.6133-2.3467-2.4267h5.28c1.1022 0 1.92-.24 2.4533-.72.5512-.48.8267-1.1466.8267-2 0-.8711-.2755-1.5466-.8267-2.0266-.5333-.48-1.3511-.72-2.4533-.72h-5.28l2.3467-2.4267z" fill="#fbfbfb"/><path d="m23.5169 70.4179c-1.3689 0-2.6134-.2311-3.7334-.6933-1.1022-.48-2.0177-1.1644-2.7466-2.0533l2.88-3.4134c.4977.64 1.0133 1.1289 1.5466 1.4667.5334.32 1.0934.48 1.68.48 1.5645 0 2.3467-.9067 2.3467-2.72v-8.0267h-6.4533v-4.08h11.68v11.7867c0 2.4356-.6134 4.2578-1.84 5.4667-1.2267 1.1911-3.0134 1.7866-5.36 1.7866zm8.1331-.3733 8.24-18.6667h5.2l8.2667 18.6667h-5.4934l-6.4533-16.08h2.08l-6.4533 16.08zm4.5067-3.6267 1.36-3.8933h9.12l1.36 3.8933zm18.6969 3.6267v-18.6667h4.3466l7.7334 12.6934h-2.2934l7.52-12.6934h4.3467l.0533 18.6667h-4.8533l-.0533-11.28h.8266l-5.6266 9.44h-2.3467l-5.7867-9.44h1.0134v11.28z" fill="#f2735b"/></svg>