<svg fill="none" height="96" viewBox="0 0 96 96" width="96" xmlns="http://www.w3.org/2000/svg" xmlns:xlink="http://www.w3.org/1999/xlink"><clipPath id="a"><path d="m0 0h96v96h-96z"/></clipPath><g clip-path="url(#a)"><path d="m96 0h-96v19.2h96z" fill="#ffd800"/><path d="m96 19.2002h-96v19.2h96z" fill="#ffaf00"/><path d="m96 38.3999h-96v19.2h96z" fill="#ff8205"/><path d="m96 57.6001h-96v19.2h96z" fill="#fa500f"/><path d="m96 76.7998h-96v19.2h96z" fill="#e10500"/><g fill="#fff"><path d="m37.0732 59.0625h7.5391v7.5176h-22.6123v-7.5176h7.5342v-7.5137h7.539z"/><path d="m52.1523 59.0625h7.5342v-7.5137h7.5391v7.5137h7.541v7.5176h-22.6143v-7.5147h-7.539v-7.5166h7.539z"/><path d="m44.6104 44.0312h7.5419v-7.5136h15.0752v7.5166h-.0048v7.5137l-37.6885.0009v-15.0312h15.0762z"/><path d="m37.0732 36.5166-7.539.001v-7.5176h7.539z"/><path d="m67.2256 36.5166h-7.5391v-7.5166h7.5391z"/></g></g></svg>