<svg fill="none" height="96" viewBox="0 0 96 96" width="96" xmlns="http://www.w3.org/2000/svg"><path d="m0 0h96v96h-96z" fill="#e1e1e1"/><path d="m74.08 36.4c1.12 1.12 1.8399 2.64 1.8399 4.4v14.48c0 1.7601-.7199 3.2799-1.8399 4.3999l-14.4799 14.4802c-1.12 1.1998-2.7202 1.8399-4.4002 1.8399h-14.4799c-1.76 0-3.28-.6401-4.48-1.8399l-14.48-14.4802c-1.12-1.12-1.76-2.6398-1.76-4.3999v-14.48c0-1.76.64-3.28 1.76-4.48l14.48-14.48c1.2-1.12 2.72-1.84 4.48-1.84h14.4799c1.68 0 3.2802.72 4.4002 1.92zm-11.4234 20.0966v-16.9132c0-3.44-2.8-6.32-6.2401-6.32h-16.9131c-3.52 0-6.32 2.88-6.32 6.32v16.9132c0 3.4401 2.8 6.2401 6.32 6.2401h16.9131c3.4401 0 6.2401-2.8 6.2401-6.2401z" fill="#000"/></svg>