<svg fill="none" height="96" viewBox="0 0 96 96" width="96" xmlns="http://www.w3.org/2000/svg"><path d="m0 0h96v96h-96z" fill="#020101"/><path d="m38.8106 27.0001c-.1949.0043-.2451.0532-.3179.089-.0728.0357-.1433.0763-.226.125-1.2949.7629-2.3405 2.3454-3.1196 4.3042-.7791 1.9589-1.2717 4.3083-1.3111 6.6413l-.0126.7359.2728-.0226c-.5544.0457-1.4406.1972-2.0239.3439-.1389.035-.264.064-.3754.0893-.0848-.1546-.195-.3811-.311-.6454-.2394-.5453-.5013-1.2368-.6488-1.7486-.5678-1.9713-.7585-4.7072-.4786-5.9802l.0943-.4287c.0211-.0958.0131-.1958-.0229-.2871s-.0984-.1698-.1792-.2255-.1764-.0861-.2745-.0872-.1944.027-.2765.0808l-.1142.0748c-.3216.2108-.4729.478-.6941.8232-.2212.3453-.4337.7354-.5699 1.0883-.88 2.2798-.5838 5.7612.627 8.4556-.0304.0164-.0371.0208-.0737.0405-2.5983 1.3967-4.3049 3.5682-4.8966 5.8331-.5666 2.1686-.0739 4.4437 1.6231 6.0668-1.0487.5966-1.9698 1.6553-2.4788 2.8363-.079.1835-.1201.2551-.1256.2659-.0006.0003.0003-.0002-.0004 0-2.09.8188-3.0063 3.077-2.8861 5.3752.1203 2.2982 1.2409 4.7356 3.3496 6.1376 1.6197 1.0769 3.921 1.5949 5.7595 1.6223.9192.0137 1.7165-.0819 2.3161-.387.2115-.1077.4058-.2539.5489-.4459.0867.1501.1945.2837.3287.3953.2529.2103.6059.3074.9388.2546s.6399-.2285.9246-.4904c.7928-.7295 1.1939-.9901 1.8384-1.2176l.2591-.0915.6911.3459c1.8375.9197 3.4878 1.4531 4.9848 1.5854.2072.0183.5571.0511.7713.0724 2.3986.2375 5.0228-.2681 6.9594-1.3606.123-.0693.2349-.1302.3224-.1766.0366.0134.0645.023.1119.0413.1705.0657.4012.1593.6488.263.4953.2073 1.0659.4585 1.378.6113.5198.2545.9856.3826 1.4175.3634s.8512-.2317 1.0641-.5949.2235-.7984.1168-1.2456c-.0817-.3422-.236-.7039-.4612-1.0848.1883-.0755.3646-.1757.5239-.2924.3377-.2475.6601-.5592.6559-1.0667-.0039-.4789-.2268-.9055-.5261-1.3313s-.695-.8452-1.1351-1.2258c-.8315-.7189-1.7727-1.3239-2.6851-1.3896-.0306-.0264-.0671-.0585-.1045-.0989-.8261-.8917-2.1837-1.3538-3.5051-1.2568-.1507.0111-.5921-.1253-.9213-.3471-.0598-.0402-.1118-.0832-.164-.1257.4477-.0856.8303-.175 1.1723-.2919.1081-.0369.1977-.0578.2898-.0738.0394.0068.0688.0089.0966.0101.0683.0028.1244.0152.2657-.0414.0005-.0002.0013-.0008.0017-.0009.0063-.0001.0111-.0006.0175-.0006 1.3655-.0148 3.1795-.5075 4.1501-1.1987l-.0001.0003-.0516.0366.1593.0535c3.633 1.2196 7.9025 1.0534 11.7811-.1364 3.8785-1.1899 7.3787-3.4054 9.4339-6.3869 1.1712-1.6991 1.8649-3.231 2.1364-4.5392s.1229-2.4286-.5031-3.1903c-.6259-.7616-1.6818-1.0502-2.898-.8491-1.1961.1977-2.5977.8399-4.1766 1.9763-.0286-.004-.0632-.007-.1906-.0325-1.5303-.306-3.4355.2352-4.9958 1.2967.1229-.2688.2123-.5455.2536-.8154l-.1428.0232c.0485-.0079.0959-.0209.1441-.0303.0038-.0248.0117-.0504.0146-.075l-.0086.0738c2.375-.4628 4.3871-2.6256 4.7128-5.0735v-.0001l.0224-.168-.0161.0051c1.507-.4754 2.8918-1.639 3.8536-2.9537.9621-1.3151 1.5535-2.8012 1.1363-4.0573-.2866-.8628-1.1449-1.3448-2.1851-1.5591-1.0401-.2144-2.3358-.1962-3.78.0068-2.8884.406-6.3641 1.5644-9.3217 3.3311-3.7439 2.2365-8.6302 6.7456-10.9718 10.122-.7525-1.2847-2.1189-2.3908-3.7942-3.2406-1.8173-.9219-4.0015-1.5371-6.1935-1.656l.1658.0091-.0061-.0717c-.2569-3.0129.7044-7.8062 2.1545-10.6857.0749-.1487.1287-.2502.1714-.3856.0213-.0677.0657-.14.0201-.3344-.0228-.0973-.0986-.2347-.215-.3135s-.2338-.0917-.3099-.0901zm-1.1695 2.0918c-1.1895 3.0264-1.8772 6.9691-1.6357 9.8015l.0426.4994c.0102.1187.0628.2297.1483.3125.0855.0829.1981.1321.317.1386l.2629.0143h.0001c2.0423.1107 4.1106.6935 5.8003 1.5506 1.6896.857 2.9876 1.9961 3.5401 3.123.0511.1042.0848.1845.1446.284.0299.0497.0634.1094.1532.1841s.2866.1503.4504.1202c.3275-.0602.3582-.2106.4267-.3026.0686-.092.1339-.1931.2245-.3271 2.15-3.1806 7.1592-7.8331 10.7797-9.9958 2.8269-1.6887 6.2144-2.8161 8.9527-3.201 1.3691-.1925 2.5777-.196 3.4432-.0176.8656.1784 1.3144.5036 1.4471.9031.2384.7178-.141 1.9941-.9961 3.1628-.855 1.1688-2.1331 2.2102-3.3547 2.5953v.0001l-.2822.089c-.0895.0283-.1691.0814-.2295.1533-.0603.0718-.099.1594-.1114.2524l-.0639.4794v.0001c-.2688 2.0208-2.1083 3.9455-4.0444 4.2609l-.2167.0353c-.1058.0173-.2032.0686-.2774.1461-.0741.0776-.121.1771-.1335.2837l-.0339.2887c-.0271.2304-.203.6998-.4057 1.0054-.0507.0764-.0925.134-.1385.2173s-.135.2432-.0709.4746c.064.2313.2257.3248.3087.372.0831.0471.1482.0739.2305.112v-.0001l.2578.1194c.0814.0378.1716.0526.2609.0429.0892-.0097.1741-.0435.2456-.0978l.2577-.196c1.4125-1.0742 3.3474-1.609 4.5673-1.3651.1782.0356.2901.0611.4394.0617.1493.0007.3586-.0797.4474-.1443 1.5273-1.1111 2.8437-1.6914 3.8353-1.8553.9915-.1639 1.6069.0553 1.9739.5018.367.4466.533 1.2346.2989 2.3625-.234 1.1279-.866 2.5598-1.9825 4.1795-1.8859 2.7358-5.2028 4.8657-8.9104 6.0031-3.7075 1.1374-7.7931 1.2803-11.1771.1444l-.3978-.1335c-.0739-.0248-.1525-.0318-.2296-.0204-.077.0115-.1503.0409-.2138.0861l-.1533.109c0 .0001-.0001.0001-.0001.0001-.6188.4407-2.4945 1.0037-3.588 1.0156-.0798.0008-.1559.0034-.23.0083-.0162.0079-.032.0168-.0473.0265-.0219-.0073-.0442-.013-.0669-.0171-.2197.0223-.4255.0702-.6356.1419-.3694.1262-.7611.2197-1.3624.3206-.1104.0185-.2102.0376-.291.0554-.0404.0088-.0747.0168-.1126.0277-.019.0054-.0372.0103-.0714.0241-.0171.0069-.0373.0144-.0768.0382s-.1321.0254-.2145.2643c-.0179.0518-.0269.1062-.0269.161v.0001.0001c0 .3207.1486.5507.3144.7509.1658.2003.3717.375.6002.529.4569.3078.9806.5543 1.5454.5129 1.026-.0754 2.1513.3417 2.7083.943.0783.0846.1573.1589.2376.223.0402.032.0795.0613.1312.0918s.0827.0877.2996.0877c.4245 0 1.4225.4899 2.1997 1.1619.3886.3361.7356.7087.9731 1.0467.2375.3379.3455.6469.3466.7715-.0006-.068-.0581.1196-.2521.2618-.1941.1421-.4684.2392-.6174.2392-.0454 0-.0905-.018-.2409.035-.0753.0266-.1971.0931-.2753.2218-.0783.1288-.082.2721-.0689.3552.026.1661.0703.2068.1046.2634s.071.1102.117.1773c.3007.4387.4728.8245.5413 1.1113.0685.2869.0286.4542-.0081.5168-.0367.0627-.0663.0993-.256.1078-.1897.0084-.5183-.0576-.9393-.2637-.3533-.173-.9236-.423-1.431-.6354-.2537-.1062-.4899-.2023-.6749-.2736-.0925-.0356-.1716-.065-.2389-.0879-.0336-.0114-.0638-.0211-.0971-.0304-.0333-.0092-.0394-.0255-.1699-.0255-.1318 0-.1386.0189-.1609.0263-.0222.0073-.0347.0125-.0463.0173-.0232.0097-.0404.0179-.0596.0271-.0384.0185-.0816.0407-.1324.0674-.1015.0534-.2312.1242-.3697.2024-1.712.9657-4.1904 1.4544-6.3768 1.2379-.2195-.0217-.5685-.0545-.7818-.0733-1.3272-.1173-2.8677-.6029-4.6296-1.4848-.0001 0-.0001-.0001-.0002-.0001l-.8785-.4397c-.0593-.0297-.124-.0471-.1902-.0512-.0662-.0042-.1326.0051-.1952.0272l-.457.1613c-.7619.2689-1.3438.6543-2.1783 1.4221-.1828.1683-.33.2291-.4106.2419-.0806.0127-.1007.0045-.1527-.0388-.1041-.0865-.2889-.4708-.2226-1.1302 0 0 0 0 0-.0001l.0362-.3615c.0094-.0938-.0082-.1882-.0508-.2723-.0425-.084-.1082-.1541-.1893-.2021-.0811-.0479-.1742-.0717-.2683-.0684-.0942.0032-.1854.0334-.263.0868l-.3607.2484c-.1009.0694-.1971.1367-.2726.1902-.0377.0268-.0701.0499-.0965.0692s-.0274.016-.0801.0625c-.1278.1127-.155.2327-.1665.3037-.0116.071-.0076.1149-.0038.1516.0075.0733.0213.1186.036.165.0295.0927.068.1792.117.2713.0843.1587.0672.1981.0555.228-.0116.0299-.0633.1042-.2274.1877-.3284.1671-1.0259.2921-1.8535.2798-1.6554-.0246-3.856-.5456-5.2273-1.4572-1.799-1.1961-2.8048-3.3556-2.9101-5.3668-.1052-2.0112.6539-3.7748 2.2599-4.404.1176-.046.306-.1532.4181-.3019.112-.1488.1646-.2834.2548-.4928.4645-1.0778 1.4437-2.1097 2.3365-2.515l.3145-.1427c.0753-.0343.1409-.0869.1906-.1531.0497-.0663.0819-.1439.0938-.2258.0118-.082.0029-.1656-.026-.2432s-.0769-.1466-.1394-.2008l-.3216-.2786c-1.6049-1.3903-2.0574-3.3219-1.5445-5.285.5129-1.9632 2.0282-3.9332 4.4087-5.2129.1236-.0664.2183-.1144.3133-.1732.0949-.0588.2214-.1332.3107-.3219.0893-.1888.0531-.3979.0162-.5075-.0369-.1095-.0757-.1836-.1196-.2804-1.1052-2.4374-1.3424-5.8157-.6293-7.7-.0237 1.5029.2165 3.3116.6544 4.832.1673.5808.4379 1.29.6936 1.8723.1278.2911.2504.5479.3616.7481.0556.1001.1063.1848.168.2665.0308.0408.0626.0812.1188.1303s.139.1414.3625.1414c.1333 0 .1242-.0115.1736-.0209.0494-.0093.1071-.0214.1737-.0361.1332-.0294.3-.0689.4733-.1125.5026-.1263 1.4118-.2801 1.8641-.3173h.0002l.1728-.0143c.1221-.0101.236-.0652.3197-.1546.0838-.0895.1313-.2068.1333-.3293l.0201-1.1828c.0372-2.2043.5101-4.4543 1.2414-6.2929.4462-1.122.9967-2.0821 1.5763-2.7915zm8.8756 15.1108c-.0035.0048-.014.0207-.017.0247-.0227.0305-.0398.0075.017-.0247zm1.4858 12.7606c.0041.0009.0116.0014.0145.0015.0007 0 .0072-.0004.0315.0039.016.0029.0477.0095.0943.0303-.0448-.0187-.092-.0308-.1403-.0357zm-.0619.0109c-.0637.0204-.1226.0534-.1731.0972l-.0049-.017c.0437-.0312.0866-.0507.1124-.0611.0347-.0139.0465-.0144.0656-.0191zm3.1833 3.1723c.0217.0111.0253.0228.0299.0255.0096.0056-.0015-.0008-.0168-.0131-.0031-.0024-.0095-.0095-.0131-.0124z" fill="#fff"/><path d="m38.8214 27.4942c-.048.001-.1468.053-.304.1457-2.2568 1.3296-4.111 5.9911-4.1877 10.5284l-.02 1.1829-.1728.0142c-.5033.0414-1.4011.1941-1.9441.3307-.3381.085-.6531.1545-.7002.1545-.1649 0-.9152-1.7089-1.2299-2.8015-.5913-2.0527-.8043-4.7776-.4864-6.2229l.0942-.4287-.1141.0748c-.2655.174-.8407 1.0718-1.0741 1.6763-.8046 2.0844-.5361 5.5352.631 8.1091.1847.4074.2014.3721-.3047.6442-4.9788 2.6763-6.4435 8.2828-2.9537 11.3061l.3216.2786-.3144.1427c-1.0438.4738-2.0707 1.5735-2.586 2.7692-.1763.4091-.2125.4571-.3994.5304-3.6961 1.4479-3.3509 8.0437.5568 10.6417 2.991 1.9885 9.004 2.0781 7.9621.1186-.0738-.1387-.1152-.2689-.092-.2893.0232-.0205.2044-.149.4027-.2856l.3606-.2484-.0362.3616c-.1518 1.5114.6766 2.2001 1.6116 1.3399.8136-.7487 1.3051-1.0717 2.0083-1.3199l.4571-.1613.8785.4397c1.7998.9008 3.3952 1.4103 4.8073 1.5351.2102.0185.5597.0514.7766.0729 2.2925.227 4.8438-.2702 6.668-1.2993.2699-.1522.5068-.2768.5264-.2768.1128 0 1.7291.6767 2.3945 1.0025 1.8817.9213 2.5921-.2905 1.2866-2.1949-.1794-.2616-.1822-.2797-.0438-.2797.6033 0 1.3669-.5594 1.3633-.9988-.01-1.2072-2.6269-3.4699-4.0131-3.4699-.0439 0-.1817-.1099-.3062-.2443-.6915-.7465-1.933-1.1861-3.1067-1.0999-.7155.0525-1.9301-.7657-1.9301-1.3003v-.0001-.0001c.004-.0114.174-.0489.3812-.0836.6161-.1035 1.0398-.2036 1.4402-.3403.1832-.0626.3425-.0993.5258-.1179-.031.0148-.0161.0257.0405.028.0554.0023.0865-.0101.069-.0276-.0034-.0034-.0078-.0062-.0129-.0084.0636-.0042.1308-.0065.2032-.0073 1.2295-.0133 3.0743-.5411 3.869-1.107l.1533-.1091.3978.1335c7.017 2.3555 16.7102-.6181 20.6512-6.3354 4.5755-6.6376 1.4548-10.4349-4.8226-5.868-.0921.067-.1541.0668-.4995-.0023-1.4348-.2869-3.4475.3037-4.963 1.4562l-.2578.1961-.2577-.1195c-.3436-.1591-.3372-.1362-.1259-.4548.2472-.3727.4428-.8654.4846-1.2207l.0339-.2888.2166-.0353c2.1886-.3564 4.1538-2.4226 4.4546-4.6832l.0638-.4793.2822-.0891c2.7291-.8602 5.3267-4.4108 4.671-6.3847-.8385-2.5246-8.7804-1.4083-14.5649 2.0471-3.7131 2.2181-8.7138 6.8564-10.9355 10.1433-.3703.5477-.3312.5405-.5469.1005-1.252-2.5533-5.5228-4.7196-9.7572-4.9493l-.2629-.0142-.0426-.4995c-.269-3.155.6982-7.9566 2.2055-10.9498.1445-.2868.1933-.4094.1184-.4077z" fill="#f70514"/><path d="m42.7701 68.1339c-.2169-.0215-.5663-.0543-.7766-.0729-1.4121-.1247-3.0075-.6342-4.8072-1.5351l-.8786-.4397-.457.1613c-.7032.2482-1.1947.5712-2.0084 1.3199-.935.8603-1.7634.1715-1.6116-1.3399l.0363-.3615-.3607.2484c-.1983.1366-.3795.2651-.4027.2855s.0182.1506.092.2894c1.0419 1.9595-4.9712 1.8699-7.9621-.1186-3.9078-2.5981-4.2529-9.1939-.5568-10.6418.1869-.0732.2231-.1213.3994-.5304.5153-1.1957 1.5423-2.2954 2.586-2.7692l.3144-.1427-.3216-.2786c-3.4898-3.0232-2.0251-8.6297 2.9537-11.3061.5061-.272.4894-.2368.3047-.6441-1.1671-2.574-1.4356-6.0248-.631-8.1091.2333-.6046.8086-1.5024 1.0741-1.6764l.1141-.0747-.0942.4286c-.3179 1.4454-.1049 4.1703.4864 6.223.3147 1.0925 1.065 2.8014 1.2299 2.8014.0471 0 .3621-.0695.7002-.1545.543-.1366 1.4408-.2893 1.9441-.3307l.1729-.0142.02-1.1829c.0767-4.5373 1.9307-9.1987 4.1876-10.5284.4024-.2371.4226-.2086.1856.262-1.5073 2.9932-2.4744 7.7948-2.2054 10.9499l.0426.4994.2628.0143c4.2344.2296 8.5053 2.396 9.7572 4.9493.2157.4399.1767.4471.5469-.1006 2.2218-3.2868 7.2224-7.9252 10.9355-10.1432 5.7845-3.4555 13.7264-4.5717 14.565-2.0472.6556 1.9739-1.9419 5.5245-4.671 6.3848l-.2823.089-.0638.4794c-.3007 2.2606-2.266 4.3267-4.4546 4.6831l-.2166.0353-.0339.2888c-.0418.3553-.2373.848-.4845 1.2207-.2114.3187-.2177.2957.1258.4549l.2578.1194.2577-.1961c1.5155-1.1525 3.5282-1.7431 4.963-1.4562.3454.0691.4074.0694.4995.0023 6.2774-4.5668 9.3982-.7696 4.8227 5.8681-3.9411 5.7172-13.6342 8.6909-20.6512 6.3354l-.3979-.1336-.1532.1091c-.7948.5659-2.6396 1.0938-3.8691 1.1071-.3295.0035-.5506.0392-.8256.1331-.4004.1368-.8241.2369-1.4402.3403-.2096.0352-.3812.073-.3812.0839 0 .5346 1.2146 1.3528 1.9301 1.3003 1.1737-.0862 2.4152.3533 3.1067 1.0998.1245.1344.2623.2444.3062.2444 1.3862 0 4.0032 2.2626 4.0132 3.4698.0036.4394-.76.9989-1.3634.9989-.1383 0-.1355.018.0439.2797 1.3054 1.9043.5951 3.1161-1.2866 2.1948-.6654-.3258-2.2818-1.0025-2.3946-1.0025-.0196 0-.2565.1246-.5264.2768-1.8242 1.0292-4.3755 1.5263-6.668 1.2993zm-12.6275-.994c.6806-.1361.6747-.1636-.1741-.8078-1.5345-1.1648-2.6525-2.7354-2.9726-4.176-.0402-.181-.1195-.317-.2844-.4876-.3384-.3501-.8174-1.2404-.8174-1.5194 0-.0248.1833.1364.4074.3582.4319.4274.8926.7272 1.5378 1.0004.5568.2358 1.181.584 1.649.9198.3646.2615.4017.2773.4049.1719.0019-.0638.0142-.2983.0272-.5212.1476-2.5284-1.9999-4.17-4.4206-3.3794-.0578.0189.0605-.0744.2629-.2073.2024-.133.5336-.2918.736-.353.5023-.1517.5019-.1499.1226-.5265-2.808-2.7878-6.2479.6748-4.8253 4.8572 1.0597 3.1158 5.0253 5.3349 8.3466 4.6707zm23.1158-.3766c0-.7495-.5099-1.5198-1.006-1.5198-.406 0-1.448-.1494-2.2243-.3188-.3888-.0849-.7198-.1544-.7356-.1544-.0825 0 3.1313 2.0315 3.65 2.3072.2905.1544.3159.1291.3159-.3142zm-19.3895-.249c.3449-.3455.767-.711.9495-.8224.4459-.2721.4451-.2755-.2156-.8637-.8735-.7778-2.0155.8502-1.4858 2.118.1026.2454.0394.2817.7519-.4319zm10.5813.3593c2.9403-.417 4.0679-2.6124 1.9021-3.7031l-.3768-.1897-.4855.3891c-1.7836 1.4294-4.0172 2.2885-6.2154 2.3905l-.7892.0366.398.1956c1.6863.8284 3.6954 1.1464 5.5668.881zm4.5321-.6215c.1929-.144.2376-.2031.1936-.256-.0495-.0598-.7805.4972-.7805.5948 0 .0423.3371-.1523.5869-.3388zm-18.0149-.3193c.0868-.0544.3627-.2886.6131-.5206.4329-.4007 1.1749-.9809 1.6607-1.2984.2762-.1805.2774-.2336.0111-.5225-.48-.5207-.9886-.4912-1.6641.0965-.8499.7395-1.4016 2.7346-.6208 2.245zm9.8156-.868c1.5504-.3295 3.0392-1.0115 4.2337-1.9396l.5379-.4179-.3802-.3009c-.4603-.3643-1.0482-.9773-1.3566-1.4145-.274-.3885-.1903-.3881-.7886-.0041-2.6603 1.7076-6.5675 2.6765-8.2371 2.0426-.179-.068-.149-.0149.2332.4121 1.4311 1.599 3.3384 2.1364 5.7577 1.6223zm-10.7882-.1138c0-.547.894-1.667 1.7136-2.1467l.3963-.232-.6475-.3444-.6475-.3444-.0607.4051c-.1991 1.3301-.5286 1.7394-1.0524 1.3079-.9536-.7855-1.1659-.7531-.7245.1106.362.7083 1.0227 1.5118 1.0227 1.2439zm23.3032-.5453c.6891-.1763.7416-.2193.7088-.581-.0814-.8982-1.3985-2.0253-2.7727-2.3728-1.3173-.3331-2.9195.1999-3.2938 1.0957l-.0781.187.2272.2345c.7362.7596 2.1648 1.3748 3.6181 1.5579.3531.0445 1.1924-.0195 1.5905-.1213zm-15.6801-1.9724c1.7534-.2362 3.5733-.9218 4.9693-1.872.6791-.4623.6429-.3825.3943-.8685-.2224-.4349-.4264-1.0131-.5314-1.5059-.0618-.2901-.0754-.3076-.3753-.4863-.3782-.2253-.3448-.2249-.6837-.0083-3.0277 1.9354-7.945 2.6203-9.8347 1.3698-.28-.1853-.2803-.1605-.0048.3758 1.2491 2.4316 3.1787 3.3844 6.0663 2.9954zm9.8849-.3923c.4277-.6097 1.2391-1.1248 2.0444-1.2978.526-.1131.5258-.1241-.0083-.3876-1.7789-.8778-4.5544.1749-3.3485 1.2699.8675.7877 1.0179.8353 1.3124.4155zm-14.7742-.0783c0-.0117-.1013-.0807-.225-.1532-.3313-.1941-1.0559-.8415-2.0283-1.812-.9341-.9325-1.0639-1.0225-.6129-.4252.161.2132.3725.555.4701.7596.2711.5684.7321.9285 1.8178 1.4201.4884.2212.5783.2539.5783.2107zm12.751-1.5583c.1435-.1459.3851-.3509.5369-.4556.5344-.3686-.3913-.544-1.1496-.2178-.3119.1341-.3136.0848.0193.5506.3288.4602.2729.4486.5934.1228zm-9.6963-1.4152c1.8651-.265 4.44-1.3028 5.3001-2.1362.012-.0117-.0529-.1143-.1443-.2281-.5227-.6503-.7619-1.4556-.7674-2.583l-.004-.8183-.4507.1954c-1.6864.7314-3.4917 1.0451-5.1203.8899-.6896-.0658-1.0747-.1482-.7241-.155.8848-.0172 3.2535-.6647 4.7141-1.2885 3.448-1.4728 5.7382-3.8872 6.161-6.4952.4876-3.0079-3.2512-5.9426-7.5691-5.9411l-.323.0001-.0013.6176c-.0026 1.2578-.4201 1.6003-.685.5619-.9527-3.7337-.3608-8.8172 1.4647-12.5791.3867-.7969.3807-.8551-.0295-.285-2.2524 3.1305-3.1443 9.5318-1.8545 13.3109.1503.4405.1275.4986-.1784.4538-.4304-.063-.8397-.6758-1.0665-1.5967l-.1204-.489-.2629.0343c-.38.0496-1.1973.219-1.6708.3465-.4765.1282-.4696.0746-.1036.8006.6757 1.3403.2783 1.5762-.5553.3297-1.9232-2.8761-3.1072-7.856-2.4643-10.3639.0985-.3839.0786-.427-.0563-.1221-.9407 2.1267-.5786 5.4533.9547 8.77.6228 1.3471 1.3779 2.627 1.7193 2.9143.1455.1225.1459.1243.0315.155-.4894.1312-1.0179-.2142-1.6393-1.0716-.1362-.1879-.2557-.35-.2656-.3602-.0319-.0329-.8647.4114-1.305.6962-3.6692 2.3734-4.1065 6.7933-.9073 9.1715 1.3107.9743 3.2957 1.891 4.8688 2.2484l.184.0419-.2629.0373c-1.0006.142-2.4738-.0389-3.5275-.4331-.3696-.1383-.3558-.1886-.1784.6481.7697 3.6309 3.1168 5.2516 6.8395 4.7227zm-3.7644-8.4869c-.2603-.038-.6413-.1198-.8469-.1819-.4182-.1263-.6609-.1407-.9092-.0542-.2147.0749-.2391.0463-.1461-.1712.1097-.2567.3433-.4524.682-.5715.4971-.1747.6148-.1372.3765.1198l-.1339.1444.1451.0552c1.5295.5815 5.8128-.3725 7.8468-1.7477.407-.2752.4396-.3412.1916-.3877-.2552-.0479-.239-.0777.1412-.2601.5948-.2854 1.3262-.1947 1.9368.24.355.2528-.1457.3471-.8196.1544-.2023-.0579-.3715-.1052-.376-.1052-.0046 0-.0678.1014-.1404.2253-.9067 1.5471-5.2479 2.9347-7.9479 2.5404zm-3.2156-2.4108c-.5849-.5383-.8068-1.2807-.6874-2.3001l.04-.3417-.3198-.1434c-.3479-.156-.3604-.218-.0606-.3012.7548-.2097 2.1023.1133 3.737.8957.9041.4328 1.2528.3862 1.5949-.2127.1551-.2717.1822-.2665.2248.0436.0881.6408-.4033 1.2689-.9927 1.2689-.1041 0-.1891.0059-.189.0131.0001.0073.071.2025.1575.4338.2296.6136.2367.5989-.2497.5192-.8647-.1417-1.7007-.0768-2.4903.1932-.5556.1901-.476.1972-.7647-.0684zm2.4509-1.3772c.2265-.273-.3381-.6858-.6846-.5004-.1529.0818-.1331.3338.0369.4674.1649.1297.5511.1494.6477.033zm6.7905.1495c-.2069-.2351-.4268-.7074-.4268-.9166 0-.1215-.0336-.1254-.2103-.0243-.3674.21-.88-.0084-1.0955-.4668-.1491-.3172-.1496-.3164.1098-.1812.2758.1438.721.1564.9859.0279.1984-.0963.4408-.2908 1.2137-.9738 1.184-1.0464 2.1144-1.424 2.7504-1.1161.3203.1551.3072.1853-.1264.2916-.3976.0974-.4178.1223-.2713.3336.3083.4444.6776 1.7866.5465 1.9858-.0213.0323-.2043.0757-.4067.0964-.6241.0639-1.5944.453-2.4974 1.0016-.371.2254-.3176.2308-.5719-.0581zm2.1709-1.9176c.2806-.3334.1174-.8311-.2485-.7579-.5542.1109-.629.9197-.0851.9197.156 0 .2261-.034.3336-.1618zm-12.5428 12.2142c.8984-3.3948-1.2768-4.9091-3.0097-2.0953-.3654.5933-.3699.5738.1559.6731.8056.1521 1.5595.6141 2.2891 1.4028.475.5135.4342.5121.5647.0194zm16.1821-.1233c-.4182-.1351-1.3932-.8615-1.2915-.9622.0125-.0124.1883.034.3907.103.2663.0908.4843.1256.7886.126.6037.0008.6205-.0254.2767-.4306-1.0228-1.2058-1.5706-3.237-1.1506-4.2667.1044-.256.041-.2136-.5589.3735-.8917.8727-1.0644 1.2166-1.0644 2.1191 0 1.5233 1.3433 3.0623 2.6549 3.0417l.2629-.0042zm4.9085-.8294c.3281-.1053 1.19-.5693 1.1437-.6156-.0123-.0123-.1623.0259-.3333.0848-2.0825.7177-3.9423.0102-4.9038-1.8653-.2741-.5346-.2507-.5445.223-.0945.2775.2637.5231.4365.8514.5992l.4613.2286.6348-.0001c.5085-.0002.6689-.0187.8058-.0934.2138-.1167.2235-.0801-.1243-.4697-1.1435-1.2811-1.9274-4.2689-1.4557-5.5485.0827-.2244.0778-.2227-.4326.1458-3.7358 2.6969-1.1487 9.0029 3.1297 7.6287zm11.093-.9546c4.6761-.4108 9.2216-2.759 11.955-6.1759 1.7111-2.1389 2.8826-4.8252 2.4631-5.6478-.5042-.9889-3.3877-.0741-5.3597 1.7004l-.2733.2459-.2114-.1078c-1.3-.6632-3.4736-.0507-5.2648 1.4835l-.3975.3405-.1834-.094c-.8733-.4481-1.8425-.3214-3.1749.415-2.1872 1.2088-4.0711 1.5449-5.8151 1.0374-.7165-.2085-1.3606-.5248-.8076-.3966.5574.1293 2.0715-.008 3.1785-.2882 2.3175-.5866 4.103-1.9274 4.8866-3.6695.2591-.576.2597-.5652-.0325-.5654-.4802-.0002-2.7361-.3768-3.4077-.5688-.1041-.0298.2893-.0556 1.1566-.076 3.9566-.093 6.3117-1.3271 7.5926-3.9787.2706-.5601.2703-.581-.0089-.5816-.1959-.0004-1.0434-.0897-1.932-.2035-.3458-.0443-.2835-.0725.4205-.1905 2.6261-.4402 4.862-1.928 6.2839-4.1815 1.1807-1.8713.5519-2.4829-2.3311-2.2673-5.8535.4377-12.4071 4.1633-17.5405 9.9714-2.5568 2.8929-3.324 5.3076-2.4486 7.7064.1448.3966.2543.617.5859 1.1785l.1242.2103-.2814-.2366c-1.154-.9704-1.8173-2.9575-1.5179-4.5476l.0396-.2103-.1259.2366c-2.4738 4.6484 4.7361 10.1376 12.4277 9.4617zm3.4989-7.8733c.8136-.7588 2.1513-1.4083 3.3394-1.6212.4329-.0775 1.4469-.1593 1.1002-.0887-.1716.035-1.3943.5352-2.1292.871-.318.1454-.9332.4044-1.3669.5756s-.8668.3571-.9625.4131c-.2734.1602-.268.1178.019-.1498zm5.2359-1.146c.626-1.0789 2.6451-2.2761 3.8343-2.2736.5363.0012.5429.0027.3113.0694-.8329.2401-2.5385 1.1594-3.6425 1.9633-.6863.4997-.6407.4779-.5031.2409zm-13.9922-5.0294c-.743-.5072-.482-1.0431 1.4409-2.9589 2.8366-2.8262 7.0338-5.0878 10.3827-5.5945.2139-.0323.4127-.0735.4419-.0915.0291-.018.0373-.0075.0182.0235-.0192.0309-.1943.1076-.3893.1703-3.564 1.1466-6.3323 3.1676-8.936 6.5235-1.3023 1.6787-2.3362 2.3523-2.9584 1.9276zm-2.3657 14.0289c0-.0117-.127-.0929-.2822-.1805-1.2737-.7188-2.6738-1.9905-3.5202-3.1974-.3381-.4822-.5808-.705-1.132-1.0394-.1008-.0612-.0472.0945.2534.7352.6331 1.35 1.6989 2.4464 3.0311 3.1181.5588.2818 1.6499.6548 1.6499.564z" fill="#020101"/><g fill="#fff"><path d="m52.9424 67.0771c.0678.0361.1215.0618.164.076-.0421-.0133-.0958-.0397-.164-.076z"/><path d="m24.8145 66.0225c.2228.1376.4568.2632.697.3811-.2387-.1181-.4711-.2415-.697-.3811z"/><path d="m38.8833 65.9922c.4211.2069.894.3918 1.3782.5431-.476-.1454-.938-.3269-1.3782-.5431z"/><path d="m51.6606 65.1978c.2464.0289.4551.0458.5917.0458.4962 0 1.0061.7702 1.0061 1.5197 0 .021-.0001.0411-.0002.0602-.0994-.3544-.6081-.9462-1.1959-1.3666-.1373-.0982-.2497-.1952-.2497-.2155 0-.012-.0598-.0282-.152-.0436z"/><path d="m49.9707 64.9126c.0294.0064.0269.0054.0571.012.0213.0047.0429.0093.0646.0139-.0429-.0086-.0792-.0172-.1217-.0259z"/><path d="m43.6422 63.9985c-.4232.2284-.8633.4293-1.3199.6007.4537-.1696.8951-.3751 1.3199-.6007z"/><path d="m31.3931 63.8887c-.2157.2528-.4175.593-.565.9264.1412-.33.3382-.6657.565-.9264z"/><path d="m44.2323 63.6616c-.125.0786-.2519.1529-.3812.2265.1298-.0727.2561-.1489.3812-.2265z"/><path d="m35.0293 63.4473c.3221.3591.6872.6766 1.0747.9405-.3842-.2564-.7423-.5699-1.0747-.9405z"/><path d="m46.3521 63.1704c.1321.0665.2492.1381.3572.2122-.1108-.0722-.2225-.1443-.3572-.2122z"/><path d="m38.4547 62.2695c-.2793.0593-.5589.1264-.8368.1638-.1169.0158-.2322.0293-.3459.0407.3852-.0417.7837-.1178 1.1827-.2045z"/><path d="m25.1683 62.1274c.0481-.0008.1681.071.3881.1936.6895.3841.7049.398.8743.7876.4873 1.121 1.6136 2.5231 2.5604 3.1872.176.1235.32.2329.32.2432 0 .0495-.121-.0051-.6327-.2854-1.4969-.8198-2.8011-2.2461-3.3979-3.716-.1168-.2879-.174-.4091-.1122-.4102z"/><path d="m32.6704 61.9141c.0361.0249.0581.0428.0581.0482 0 .0028-.0003.0051-.0011.0072-.0011-.0107-.0199-.0289-.057-.0554z"/><path d="m30.8094 61.8833.6475.3444.6475.3443-.3964.2321c-.8195.4797-1.7135 1.5997-1.7135 2.1466 0 .268-.6607-.5355-1.0227-1.2438-.4415-.8637-.2291-.8962.7244-.1107.5239.4316.8533.0222 1.0525-1.3078z"/><path d="m50.3486 61.352c.2982-.0044.5986.027.8854.0996 1.3742.3475 2.6912 1.4747 2.7726 2.3728.0063.0694.0094.127.0056.1761-.0818-.1914-.7448-.8474-1.2125-1.1906-1.751-1.2844-3.865-1.5058-4.6566-.5902.435-.5185 1.3108-.8545 2.2055-.8677z"/><path d="m41.3642 61.2681c-.8349.4165-1.7469.7387-2.6713.9548.9131-.2174 1.8339-.5423 2.6713-.9548z"/><path d="m43.5452 60.7002c.0881.0005.1356.0975.2726.2917.0219.0311.0453.063.0698.0957-.0323-.0328-.0509-.0225-.0759.0223-.1609.2874-1.6319 1.06-2.6566 1.3951-.9062.2964-2.3259.5457-2.64.4635-.0515-.0134-.2922.0209-.5349.0763-.2252.0515-.5244.0885-.8513.111 1.8412-.2341 4.1428-1.0398 5.9003-2.1679.2992-.192.4279-.2882.516-.2877z"/><path d="m42.5733 60.5703c-.3725.2526-.778.4825-1.2012.694.4261-.2103.8305-.4427 1.2012-.694z"/><path d="m47.7757 60.0376c.5863-.0376 1.2209.0505 1.7629.318.5341.2635.5344.2745.0083.3876-.0185.004-.0371.0081-.0556.0124l-.2639-.0956c-.9043-.3276-.8769-.3224-1.7248-.3349l-.8136-.0121-.2379.1595c-.3025.203-.4889.3788-.5522.5541.0569-.5143.8998-.9264 1.8768-.989z"/><path d="m27.7129 59.4654c.0647-.001.1452.0241.2327.0844.1723.1187.2577.2318.2598.3441.0029.1633-.3453.1212-.5308-.0643-.1893-.1894-.1271-.3618.0383-.3642z"/><path d="m26.8191 58.5001c1.8259.0545 3.221 1.5234 3.101 3.5777-.0083.143-.0163.2909-.0215.3954-.0121-.6035-.3872-1.5623-.8733-2.209-.6881-.9154-1.9108-1.4955-3.2726-1.5528l-.2605-.011c.002-.0003.0045-.001.0074-.0019.4539-.1483.8982-.211 1.3195-.1984z"/><path d="m42.3672 57.9238c.037.0584.055.1331.0817.2583-.026-.1217-.0489-.2006-.0817-.2583z"/><path d="m41.7164 57.5308c.078.0002.1638.0539.3366.1572l-.1692.2015c-.9317 1.1098-3.8617 2.0769-5.7118 1.8855-.2892-.0299-1.0226-.0614-1.6298-.0698-.7901-.0111-1.2087-.0399-1.472-.1015-.0401-.0093-.0809-.0194-.1224-.03 2.3199.4291 5.9978-.3182 8.4431-1.8813.1683-.1076.2448-.1619.3255-.1616z"/><path d="m24.9524 57.3689c.0872.0041.1778.018.2697.0435.3539.0983.485.4892.2219.6617-.216.1415-.8492.1573-1.0568.0264-.4869-.3072-.0451-.7599.5652-.7316z"/><path d="m25.6705 56.9067c.3197.163.6391.3954.9508.7048.3793.3766.3797.3748-.1226.5266-.2024.0612-.5336.22-.736.3529-.1699.1116-.2805.1953-.2775.2082 0 0 .0001.0002.0001.0003v.0001c.0001 0 .0002.0002.0002.0003l.0001.0001.0001.0001.0002.0001-.0582-.0025.3252-.2089c.1789-.115.479-.2622.6669-.3273.188-.065.2924-.1188.2321-.1196-.0906-.0011-.656-.6475-.9072-1.0371-.0225-.0349-.0473-.0676-.0742-.0981z"/><path d="m49.8972 55.5899c.0049.0001.0082.0008.0096.0022.021.021-.1445.1277-.3624.248.2964-.1748.4007-.254.3155-.2458.0165-.0031.0292-.0046.0373-.0044z"/><path d="m52.1123 55.1475c.0728.0449.1207.0783.1207.0855 0 .0019-.0006.0035-.0015.005-.0108-.0176-.0508-.0478-.1192-.0905z"/><path d="m61.8678 54.9419c-.3879.0803-.7774.1455-1.1696.1995.3919-.0542.7822-.1192 1.1696-.1995z"/><path d="m63.4603 54.5352c-.3899.1183-.7826.2234-1.18.3154.3968-.0921.7905-.197 1.18-.3154z"/><path d="m49.9756 54.3164c.3428.2187.7093.4103 1.099.5717-.18-.0728-.352-.1486-.4911-.2188-.2104-.1061-.4115-.2263-.6079-.3529z"/><path d="m49.5264 54c.122.0928.247.1824.3763.2673-.1286-.0853-.2544-.1737-.3763-.2673z"/><path d="m65.0325 53.9785c-.3983.1616-.8011.3104-1.2112.4442.4094-.1338.8132-.2825 1.2112-.4442z"/><path d="m49.1128 53.6553c.0735.0661.1484.1309.2251.1937-.0764-.0632-.1517-.1272-.2251-.1937z"/><path d="m48.7261 53.2754c.0478.0508.0956.1016.145.1508-.0494-.0494-.0973-.0999-.145-.1508z"/><path d="m66.5755 53.269c-.4127.2139-.833.4134-1.2635.5963.4297-.1828.851-.3823 1.2635-.5963z"/><path d="m48.3574 52.8467c.039.0495.0772.0998.1176.148-.0405-.0483-.0785-.0985-.1176-.148z"/><path d="m68.069 52.4062c-.4278.2773-.8697.5361-1.3244.7778.4538-.2414.8962-.5006 1.3244-.7778z"/><path d="m47.9917 52.333c.0454.0707.0895.1426.1374.2112-.0482-.0687-.0918-.1406-.1374-.2112z"/><path d="m47.5522 51.5513c.0835.178.1752.3496.2719.5171-.0975-.168-.1888-.3401-.2719-.5171z"/><path d="m70.6209 50.3892c-.7527.7354-1.5997 1.3975-2.5071 1.9894.9048-.5893 1.7474-1.2557 2.5071-1.9894z"/><path d="m36.646 49.958c-.179.0579-.3568.1088-.5425.1601.1834-.0499.3641-.1033.5425-.1601z"/><path d="m48.5801 49.0859c.0372.1021.0674.2025.1135.3078-.0299-.0732-.059-.1493-.0897-.2333-.009-.0248-.0151-.0497-.0238-.0745z"/><path d="m48.2676 47.2466c-.0001.1741.0079.3483.0237.5229-.017-.1736-.0239-.3481-.0237-.5229z"/><path d="m61.3984 46.7406c.3198-.0149.6183.0302.9042.134-.2861-.1038-.5846-.1488-.9042-.134z"/><path d="m48.2955 46.6904c-.0173.1737-.0267.3471-.0279.5205.0013-.1727.0097-.3462.0279-.5205z"/><path d="m63.4136 46.5591c-.1038.081-.2032.1562-.3255.2616l-.3167.273-.0038-.0019.3976-.3405c.0809-.0694.166-.1267.2484-.1922z"/><path d="m30.7806 46.1678c.3192.0105.6575.3246.4734.5464-.0966.1164-.4828.0968-.6477-.0329-.17-.1337-.1899-.3857-.0369-.4675.065-.0348.1376-.0485.2112-.046z"/><path d="m48.3802 46.124c-.0318.1588-.0548.3171-.0731.4751.0192-.1577.0401-.3157.0731-.4751z"/><path d="m41.5152 45.8296c-.0017.004-.0036.0076-.0055.0112-.0448.0839-.0152.0967.2882.125 1.0949.1023.9326.4021-.2182.4032-1.042.001-2.5322.2916-3.0215.5893-.194.1179-.2469.1633-.3263.1053.0826.0574.1453.0035.3845-.1418.903-.5485 1.8733-.9376 2.4974-1.0015.1907-.0196.3642-.0592.4014-.0907z"/><path d="m68.7973 45.2354c-.02.0212-.0426.0413-.0659.0592z"/><path d="m67.3106 45.0038c.4146.0119.7941.0979 1.1191.2637l.1844.0941c-.0164.0057-.0312.0089-.0436.0089-.0547 0-.1748.0566-.2669.1258-.092.0692-.2738.1429-.4039.1638-.1541.0247-.5983.1855-1.1345.4047.4943-.205.9318-.3753 1.0293-.3952.32-.0651-.5188-.0005-.9904.0708.2315-.043.4735-.0793.7276-.1095.2202-.0262-.0229-.0348-.6835-.0241-.8952.0144-1.0951.034-1.5772.1541-.8435.2102-1.2287.3445-1.6548.6412 1.2327-.9221 2.5868-1.43 3.6944-1.3983z"/><path d="m74.223 44.6724c-.1106.4145-.2789.8801-.5179 1.388.2257-.5053.4077-.9992.5179-1.388z"/><path d="m40.0329 44.1807c.3184-.0044.4453.4526.1823.7652-.1075.1277-.1776.1617-.3335.1617-.544 0-.4691-.8087.0851-.9196.0229-.0046.0449-.007.0661-.0073z"/><path d="m73.2719 44.0635c.0786.0014-.0005.2783-.2531.8153-.3.6376-.8446 1.2969-1.3209 1.5989-.4513.2863-.3781.1039.3459-.8607.2413-.3217.5644-.7631.7179-.9809.272-.3858.4452-.5738.5102-.5726z"/><path d="m41.0967 44.0547c.146.2926.2832.7007.365 1.0605-.0856-.3585-.2241-.7721-.365-1.0605z"/><path d="m73.2466 43.0259c.501-.0221.8745.1025 1.0279.4033.1293.2537.0941.6961-.0483 1.2336.1089-.3869.1457-.6681.0801-.7471-.3615-.4356-1.9812-.2768-3.9038.3828-.292.1001-.5707.1887-.6194.1966-.0712.0116-.4332.2708-.7088.4945-.114.0925-.2099.1771-.2677.2374l.1082-.0973c.0525-.0473.1058-.094.1595-.1401 1.3506-1.1563 3.0701-1.9151 4.1723-1.9637z"/><path d="m57.9474 42.9043c-.4291.0167-.6105.0361-.5358.0575.6395.1829 2.9411.5435 2.8237.5208-.124-.024-.2138-.0319-.1996-.0177.0468.0469-.2677.6089-.608 1.0865-.8873 1.2456-2.1607 2.2067-3.5878 2.708-.6133.2154-.6125.1853.0052-.1974 1.0055-.623 1.8708-1.4315 2.5522-2.3845.3703-.5178.3717-.4796-.0263-.6785-.4948-.2473-1.18-.7734-1.3044-1.0017-.0407-.0745.0381-.0861.8808-.093z"/><path d="m58.9355 42.8628c-.1254.0054-.2385.02-.3673.023-.1084.0025-.1812.0055-.2747.0082.2239-.0036.4281-.0208.642-.0312z"/><path d="m30.0718 41.856c.0098.0101.1294.1722.2656.3602.1554.2143.3049.3967.4495.5476-.1446-.1509-.2942-.3333-.4496-.5476-.1362-.188-.2557-.3501-.2655-.3602z"/><path d="m37.1787 40.4287c3.3511-.0011 6.3533 1.7662 7.3019 3.9637-.0443-.0417-.0544.1247-.0544.5025 0 .7684-.0873.9826-.181.4439-.4059-2.3354-3.0628-4.0163-7.0532-4.4623l-.2946-.033-.0286.4167c-.0189.2769-.0588.4956-.1115.6519.059-.1999.0963-.4925.0971-.8657l.0013-.6176z"/><path d="m64.0318 38.0562c-.0524.0262.0192.0439.1877.0655.8887.1138 1.7362.2031 1.9321.2035.1632.0003.2311.0077.2053.1256.0254-.1208-.0505-.1251-.2353-.1251h-.2533l-.3018.4442c-.6842 1.0073-1.7118 1.9128-2.7561 2.4286-.4687.2316-.7961.3402-.6368.2112.012-.0097.2095-.155.4389-.3228 1.1075-.8104 2.2637-2.1861 1.9697-2.3435-.4545-.2432-.9322-.6753-.7438-.6728.0478.0007.1136-.0044.1934-.0144z"/><path d="m34.3237 37.4502c-.0073.0008-.0124.0199-.0139.0563-.0022.0554.0102.0865.0277.069.0174-.0175.0194-.0628.0042-.1007-.0068-.0171-.013-.0251-.018-.0246z"/><path d="m65.9087 33.8619c.1646-.0027.285.0403.2991.1397.0245.1722-.1559.3926-.4541.555-.6871.3739-1.2547.1086-.7477-.3496.2316-.2091.6284-.3406.9027-.3451z"/><path d="m65.3587 32.8628c-.362.0886-.7306.1947-1.1033.3169.3722-.1222.7407-.2282 1.1033-.3169z"/><path d="m69.4778 32.1802c.1685.0107.0939.1076-.2104.4329-.511.5463-1.1906.9797-1.8591 1.1857-.7931.2444-1.3359.0214-.9145-.3757.6381-.6013 1.8526-1.1478 2.7338-1.23.1108-.0104.194-.0164.2502-.0129z"/><path d="m69.7837 31.4439c1.0283.0255 1.5739.2487 1.683.7146l-.4021-.104c-.9357-.2419-3.4262-.1612-5.3204.1725-.3036.0535-.8477.1476-1.2092.209-.6364.1082-1.323.3031-2.0443.5744 2.0595-.8548 4.1209-1.3796 6.1022-1.5278.4517-.0338.8481-.0472 1.1908-.0387z"/></g></svg>