<svg fill="none" height="96" viewBox="0 0 96 96" width="96" xmlns="http://www.w3.org/2000/svg" xmlns:xlink="http://www.w3.org/1999/xlink"><clipPath id="a"><path d="m0 0h96v96h-96z"/></clipPath><clipPath id="b"><path d="m-.04541 8h96v96h-96z"/></clipPath><g clip-path="url(#a)"><path d="m0 0h96v96h-96z" fill="#91ede9"/><g clip-path="url(#b)"><path d="m7.95459 16h80.00001v80h-80.00001z" fill="#91ede9"/><path d="m101.025 99.9998h-105.08188v-21.1624s9.33092-7.6866 13.86502-8.0271c5.76006-.433 7.19036 1.7513 12.89206 2.6757 5.9984.973 9.8515-5.3028 15.811-4.1352 6.0811 1.187 13.9477 5.7698 18.9732 5.5946 10.625-.3697 9.9974-2.3692 18.7299-.4864 3.712.8027 7.672-7.0153 13.8651-5.838 3.1378.5936 10.9456 1.2163 10.9456 1.2163z" fill="#48acba"/><path d="m97.62 100h-103.13636v-19.4597s9.57417-5.2541 14.10828-5.5947c5.76008-.4329 6.94708 3.8579 12.64878 4.7871 5.9985.973 8.1488-4.9817 14.1083-3.8141 6.0811 1.1871 11.0288 6.986 16.0542 6.8109 10.625-.3697 11.2137-5.5314 19.9462-3.6487 3.7119.8027 4.6217 2.6757 13.3785.6519 8.7569-2.0238 12.8921.8076 12.8921.8076z" fill="#2b3c5a"/><path d="m47.9546 11.2031c1.7367 0 3.4209.5949 4.7725 1.6856 1.3515 1.0906 2.2893 2.6111 2.6562 4.3086.3669 1.6976.1409 3.47-.6396 5.0215-.6988 1.3887-1.8054 2.5241-3.1641 3.2617l.1289 3.7734 8.7978.6641h.002c.5022.0387.9712.2662 1.3135.6357.3422.3695.533.8547.5332 1.3584v2.5762l-.0088.1875c-.0411.4355-.2248.8474-.5244 1.1709-.3423.3694-.8114.596-1.3135.6347l-8.5342.6573.4199 15.9482.0342.9473c.1017 2.2255.3704 4.5304 1.0635 6.4414.7854 2.165 2.0625 3.6994 4.1621 4.1592h.002c.4922.1091.9948.1635 1.499.164 1.1717 0 2.5744-.7401 4.0254-2.0761 1.2176-1.1213 2.3807-2.5835 3.3564-4.1182-.3411-.1328-.6844-.2599-1.0312-.377l-.6416-.207c-1.1668-.359-1.3929-1.9466-.3799-2.6191 3.1444-2.086 5.6266-4.8817 7.1474-8.0918.2451-.5216.7448-.8019 1.2364-.8233.4996-.0215 1.0409.2271 1.3037.7813h.001c.5719 1.1993 1.0547 2.4394 1.4433 3.7099l.2022.6944c.9639 3.4826 1.1877 7.1318.6523 10.7109l-.0166.1065-.001.0058-.0195.1289v.001c-.1885 1.1905-1.6123 1.5039-2.374.7598v-.001c-.3701-.3585-.7545-.7016-1.1494-1.0322-2.2089 5.9941-6.474 10.5133-11.0635 13.5693-4.8486 3.2285-10.1397 4.8789-13.8916 4.8789-3.7498 0-9.0386-1.6486-13.8867-4.875-4.5894-3.0542-8.8571-7.5711-11.0694-13.5654-.3943.3302-.7778.6733-1.1474 1.0312l-.001.001c-.7693.7428-2.1717.4218-2.3682-.7559l-.04-.2402-.0029-.0127.0009-.001c-.5726-3.8194-.2795-7.7185.8584-11.4091l.1504-.4747c.3627-1.1052.7967-2.1861 1.2998-3.2353.5497-1.1491 2.0746-.9502 2.544.0381 1.5244 3.2135 4.0186 6.0134 7.1787 8.0996l.0019.001c1.0046.6667.8014 2.2569-.375 2.6191l-.0019.001c-.5793.1764-1.1516.3755-1.7158.5947.9752 1.5313 2.1369 2.9902 3.3525 4.1094 1.4489 1.334 2.8497 2.0741 4.0215 2.0742.5075 0 1.0103-.0568 1.5049-.165l.3838-.0987c1.8694-.5552 3.037-2.0305 3.7734-4.0605.7922-2.184 1.031-4.8824 1.0986-7.3887l.419-15.9482-8.5322-.6533h-.001c-.5032-.0388-.9731-.2661-1.3155-.6368-.3425-.3709-.5327-.8583-.5312-1.3632v-2.5694c-.0009-.504.1893-.99.5312-1.3603.3425-.3708.8123-.5989 1.3155-.6377h.0019l8.7969-.6641.1289-3.7734c-1.3584-.7376-2.4645-1.8732-3.1631-3.2617-.7806-1.5515-1.0065-3.3239-.6396-5.0215s1.3047-3.218 2.6562-4.3086c1.3516-1.0907 3.0357-1.6856 4.7725-1.6856zm0 4.3965c-.8486 0-1.6626.3375-2.2627.9375-.6001.6001-.9374 1.4141-.9375 2.2627 0 .8486.3375 1.6626.9375 2.2627.6001.6001 1.414.9375 2.2627.9375s1.6626-.3374 2.2627-.9375c.6-.6001.9375-1.4141.9375-2.2627-.0001-.8486-.3375-1.6626-.9375-2.2627-.6001-.6-1.4141-.9375-2.2627-.9375z" fill="#ff915c" stroke="#2b3c5a" stroke-width="1.6"/><g fill="#8a380f"><path d="m34.3545 34.8602c-.0006.2022.0754.3971.2127.5455s.3257.2393.5273.2545l9.66.74 2.652-2.652c.0452-.0445.0762-.1015.0889-.1636.0128-.0622.0068-.1267-.0172-.1855-.024-.0587-.065-.109-.1176-.1444-.0527-.0354-.1147-.0544-.1781-.0545h-12.828zm38.448 12.664c.0347-.054.0832-.0977.1405-.1267.0572-.029.1212-.0421.1853-.038.064.0041.1258.0252.1789.0612.0532.036.0957.0855.1233.1435.564 1.1787 1.0386 2.3982 1.42 3.648 1.1223 3.6529 1.3932 7.5142.792 11.288-.08.48-.676.652-1.028.312-1.336-1.2923-2.8259-2.4154-4.436-3.344-.1333-.0767-.2334-.2003-.2807-.3467-.0473-.1463-.0385-.3051.0247-.4453 1.348-3.032 2.34-6.668 2.82-10.988.0074-.0572.028-.112.06-.16z"/><path d="m50.7546 24.7998.2 5.2-2.328 2.172c-.057.0529-.1281.088-.2048.101-.0766.0131-.1553.0036-.2266-.0274s-.132-.0821-.1747-.147c-.0428-.0649-.0657-.1409-.0659-.2186v-7.08zm22.8 31.2c-1.6 16-17.6 24-25.6 24v-46.2c0-.1591.0632-.3117.1757-.4243.1125-.1125.2652-.1757.4243-.1757h13v1.316c-.0005.2971-.1112.5835-.3107.8037s-.4737.3586-.7693.3883l-9.32.692.44 16.708c.136 5.044.948 11.24 5.88 12.312.5424.1202 1.0964.1806 1.652.18-.2748.0019-.5463.0604-.7975.1719s-.4767.2736-.6625.4761c-1.948 2.32-4.16 4.656-7.428 5.712 8.6.4 20.44-5.452 22.516-24.36z"/><path d="m48.7546 23.9598c-.44.044-.8.4-.8.84s.36.804.8.752c1.5164-.1796 2.9282-.8644 4.008-1.944 1.2675-1.2673 1.9834-2.9837 1.992-4.776 0-.0042-.0008-.0084-.0024-.0122-.0017-.0039-.004-.0075-.007-.0104-.003-.003-.0065-.0054-.0104-.007-.0038-.0016-.008-.0024-.0122-.0024-.0078-.0001-.0154.0028-.0213.0079-.0059.0052-.0097.0123-.0107.0201-.42 2.692-2.868 4.812-5.936 5.132z"/></g></g></g></svg>