<svg fill="none" height="96" viewBox="0 0 96 96" width="96" xmlns="http://www.w3.org/2000/svg"><path d="m0 0h96v96h-96z" fill="#000"/><path d="m75.5439 53.7358v-9.4647c0-5.3772-2.3401-9.6923-6.413-11.8403l-21.0364-11.0924-.1055.2014-.1055.2013c3.9196 2.0665 6.1683 6.2354 6.1683 11.4376v9.4646c0 .2853-.0072.585-.0216.8847-.0024.0575-.0072.115-.0119.175l-.0096.1414c-.012.1894-.024.3812-.0432.5706-.0072.0767-.0168.1558-.0264.2325l-.0215.1798c-.0192.1582-.036.3141-.06.4723-.012.0887-.0264.175-.0407.2637l-.0216.1367c-.0264.1606-.0528.3212-.0839.4818-.0456.2397-.0935.4771-.1462.7144l-.0168.0695c-.0528.2302-.1103.4579-.1726.6857l-.0552.2013c-.0647.2302-.1318.4603-.2038.6905l-.0647.1989c-.0815.2518-.1678.5035-.2589.7528-.024.0671-.0503.1319-.0767.199l-.0407.1079c-.0744.1917-.1487.3859-.2278.5777-.0456.1127-.0959.2253-.1439.338l-.0167.0408c-.0624.1462-.1271.2925-.1942.4363-.0575.1295-.1199.2565-.1798.3836-.0695.1438-.1367.2852-.2086.4267-.0671.1318-.1342.2613-.2037.3908-.0672.127-.1367.2565-.2062.3835-.0719.1295-.1463.2589-.2206.3884-.0719.1247-.1438.2517-.2205.374-.0767.1294-.1559.2565-.2373.3836-.0768.1222-.1511.2421-.2302.362-.0815.127-.1654.2493-.2613.3931-.0767.1127-.1534.2254-.2301.3356-.0816.1151-.1631.2278-.2589.3596-.0888.1223-.1775.2421-.2686.362-.0887.1175-.1774.2302-.2685.3452-.0935.1175-.1869.2374-.2805.3524-.0815.1007-.1654.199-.2493.2973l-.0167.0192c-.1103.1318-.223.2613-.3381.3907-.0911.1031-.1822.2038-.2733.3045-.115.1271-.2301.2493-.3476.374-.0887.0935-.1798.1846-.2709.2781-.1558.1582-.314.3117-.4746.4651l-.0696.0671c-.0575.0551-.1126.1079-.1702.163-.2014.187-.4051.3692-.6137.5488l-.0575.0504c-.0216.0193-.0456.0409-.0672.0602l-.0982.0815c-.1703.1439-.3428.2829-.5154.4219-.0528.0432-.108.0837-.1631.1269l-.0407.0311c-.1463.1128-.2925.2231-.4531.3405-.0671.0481-.1319.0985-.199.1462-.1702.1223-.3404.2398-.513.3549l-.1343.0936c-.2253.1484-.4531.2924-.6832.4314l-.1463.0863c-.1822.108-.3643.2133-.5489.3163-.0552.0315-.1103.0603-.1654.0887l-.0864.0458c-.1534.0814-.3044.1606-.4579.2398-.0839.0405-.1678.0814-.2517.1219l-.0287.0144c-.1487.072-.2949.1394-.4459.2064-.096.0432-.1918.0864-.2901.1269-.151.0648-.3045.1273-.4555.1872l-.0815.031c-.0671.0265-.1343.0527-.2014.0792-.1654.0625-.3332.1197-.501.1772l-.0911.0315c-.0504.0167-.1007.036-.1511.0526-.266.0864-.513.1606-.7527.2277l-1.4696.4026c-.2181.0602-.4363.1152-.652.1655-.0408.0095-.0792.0167-.1199.0239l-.163.0337c-.1223.0265-.2422.0527-.3644.0743-.0504.0098-.1031.017-.1534.0265l-.1966.0333c-.0959.0171-.1918.0337-.2877.0458-.0552.0072-.1103.0144-.1654.019l-.199.0242c-.0887.0118-.1774.0216-.2661.0311-.036.0023-.0719.0049-.1055.0094l-.0815.0072c-.139.0122-.2781.0243-.4171.0311-.0528.0027-.1031.0049-.1559.0049h-.0767c-.1222.0072-.2421.0121-.362.0121-.0575 0-.1174 0-.1749 0h-.072c-.1127 0-.2277-.0026-.3404-.0071-.0623 0-.1247-.005-.187-.0095h-.0623c-.1175-.0099-.2326-.0171-.35-.0265l-.1535-.0144c-.1462-.0144-.29-.0288-.4363-.0481l-.0935-.0118c-.1702-.0242-.3404-.0504-.5106-.0818l-.1271-.0238c-.1055-.0216-.2109-.0432-.3164-.0671-.1654-.036-.3284-.0769-.4915-.1223l-.0695-.019c-.0311-.0072-.0599-.017-.0911-.0242-.2157-.0621-.4267-.1292-.6257-.1989l-.1486-.0553c-.1462-.0526-.2949-.1102-.4387-.1701-.0552-.0238-.1103-.0481-.1654-.0719l-.036-.0167c-.1271-.0553-.2517-.1129-.3764-.1727l-.0575-.0288c-.0144-.0078-.0256-.0134-.0336-.0167l-1.5654-.82 1.1339 1.134h.0384l20.9861 11.0637c.0719.0383.1439.0743.2182.1125.024.0121.0479.0216.0719.0337l.0455.0216c.1295.0621.2589.1224.3932.1799l.0383.0167c.0576.0239.1127.0504.1703.0743.151.0625.302.12.4554.1772l.0504.0193c.0264.0095.0504.0194.0719.0288l.0312.0095c.211.0746.4315.1439.652.2064.0336.0095.0672.019.1007.0262l.0648.017c.1678.0455.3404.0886.513.1269l.0407.0095c.0216.0049.0408.0098.0624.0144.0503.0121.1031.0215.1558.0314l.2038.0383c.175.031.35.0598.5274.0863l.0983.0118c.1486.0193.2996.0359.4507.0503l.2948.0265c.0456.0023.0911.005.1391.0072l.1151.005c.0767.0045.151.0094.2301.0117.1079.0049.2182.0049.3261.0072h.091.1343.0551c.1175 0 .235-.0045.3764-.0117h.0767c.0528-.005.1079-.005.1631-.0099.1414-.0072.2852-.0189.4291-.031l.0767-.0072c.0383-.0023.0767-.005.1366-.0122.0839-.0094.1678-.0189.2517-.0287l.1894-.0239c.0624-.0072.1247-.0144.187-.0239.1007-.0144.199-.0314.2997-.0481l.1918-.031c.0551-.0095.1102-.0167.1654-.0288.1247-.0239.2493-.0504.374-.0769l.1534-.0311c.0455-.0094.0911-.0189.1366-.0288.223-.0503.446-.1079.6713-.17l1.4695-.4027c.2422-.0674.4963-.1416.772-.2325.0527-.0171.1031-.0338.1534-.0531l.0959-.0333c.1726-.0598.3452-.1201.5154-.1822.0743-.0265.1463-.0576.2182-.0864l.0695-.0287c.1558-.0625.3141-.1247.4675-.1917.0983-.0432.1966-.0864.2973-.1295.1534-.0697.3044-.1391.4554-.211l.0504-.0239c.0791-.0386.1582-.0769.2373-.1151.1582-.0792.3141-.1606.4699-.2447l.0863-.0455c.0576-.031.1151-.0598.1702-.0913.1894-.103.374-.2132.561-.3234l.0621-.036c.0288-.0167.0576-.0337.089-.0504.2228-.1341.4436-.2731.6618-.417l.1507-.1031 4.6196 2.1049c2.6995 1.2299 5.768-.7432 5.768-3.7112v-17.0976c0-.0016 0-.0032 0-.0048z" fill="#2adb5c"/><path d="m48.1065 21.3436c-.0719-.0384-.1439-.0744-.2158-.1103-.0383-.0192-.0791-.036-.1175-.0552-.1294-.0623-.2588-.1222-.3883-.1798-.0695-.0311-.1366-.0599-.2086-.091-.1486-.0624-.2996-.1199-.4531-.1751-.0407-.0143-.0815-.0335-.1246-.0479-.0096-.0024-.0192-.0072-.0288-.0096-.2134-.0743-.4291-.1438-.6473-.2062-.0551-.0167-.1103-.0287-.1654-.0431-.1678-.0456-.338-.0887-.5082-.1247-.036-.0072-.0696-.0191-.1031-.0263-.0743-.0168-.1486-.0288-.223-.0432-.0431-.0096-.0886-.0168-.1318-.0264-.1726-.0311-.3476-.0599-.525-.0839-.0336-.0048-.0672-.0072-.1007-.012-.1486-.0191-.2949-.0359-.4459-.0503-.0527-.0048-.1055-.0096-.1582-.0144-.0456-.0048-.0911-.0096-.1367-.012-.0743-.0048-.1486-.0072-.2229-.012-.0863-.0048-.1726-.0095-.2589-.0119-.1151-.0048-.2326-.0048-.3501-.0072-.0839 0-.1701-.0024-.2541 0-.1222 0-.2469.0072-.3716.0096-.079.0024-.1606.0047-.2397.0095-.1414.0072-.2853.0192-.4267.0312-.0647.0048-.1294.0096-.1942.0144-.0072 0-.0144 0-.0192 0-.1151.012-.2325.0288-.35.0431-.0935.012-.1845.0216-.2781.0336-.1318.0192-.2637.0432-.3955.0647-.0863.0144-.1726.0264-.2589.0432-.1486.0288-.2997.0599-.4507.0935-.0719.0144-.1415.0288-.2134.0455-.2229.0504-.4459.1079-.6688.1702l-1.4696.4028c-.2589.0719-.5154.1486-.7719.2325-.084.0264-.1655.0576-.2494.0863-.1726.06-.3452.1199-.5154.1822-.0959.036-.1918.0743-.2901.1127-.1558.0623-.3116.1247-.4674.1918-.0983.0431-.199.0863-.2973.1294-.1534.0696-.3044.1391-.4555.211-.0959.0456-.1918.0911-.2877.1391-.1582.0791-.314.1606-.4699.2445-.0862.0455-.1726.0911-.2565.1366-.1893.1031-.3739.2134-.5609.3237-.0504.0287-.1007.0575-.151.0887-.223.1342-.4436.2757-.6641.4195-.012.0072-.024.0168-.036.024-.0479.0311-.0935.0647-.139.0959-.1774.1198-.3524.2397-.525.3644-.072.0527-.1439.1054-.2158.1558-.151.1127-.3021.2253-.4507.3404-.0695.0528-.139.1079-.2062.1606-.1774.1415-.3548.2853-.5298.4315-.0335.0288-.0671.0552-.1007.0815-.0072.0049-.0143.012-.0215.0168-.036.0312-.0696.0648-.1055.0959-.211.1822-.4219.3692-.6257.561-.0839.0767-.163.1558-.2469.2349-.1631.1558-.3237.3141-.4843.4747-.0431.0431-.0863.0839-.1295.127-.0503.0504-.0958.1055-.1462.1559-.1199.1271-.2397.2541-.3572.3836-.0935.103-.187.2061-.2805.3092-.1174.1318-.2301.2661-.3452.398-.0575.0671-.1151.1318-.1702.1989-.0335.0408-.0671.0839-.1007.1247-.0983.1199-.1942.2397-.2877.362-.0911.1175-.1846.235-.2757.3524-.0934.1223-.1845.2469-.2757.3716-.0575.0791-.1174.1558-.175.2373-.0311.0432-.0575.0863-.0887.1295-.0839.1198-.1654.2421-.2493.362-.0863.127-.1726.2541-.2565.3835-.0791.1223-.1582.247-.2349.3716-.0528.0815-.1055.163-.1558.2469-.0288.048-.0552.0983-.0864.1463-.0767.127-.151.2541-.2229.3836-.0767.1318-.151.2637-.2254.3979-.0719.1295-.1414.2613-.2109.3908-.0432.0815-.0911.163-.1319.2469-.0263.0503-.0479.1007-.0743.151-.0743.1463-.1438.2925-.2157.4387-.0624.1295-.1247.2589-.1846.3908-.0672.1486-.1319.2973-.1966.4459-.0384.0887-.0815.1774-.1175.2685-.0168.0384-.0312.0791-.0479.1199-.0815.1941-.1559.3907-.2326.5897-.0407.1055-.0815.2086-.1198.314-.0935.2542-.1798.5107-.2637.7696-.0144.0431-.0312.0863-.0456.1319 0 .0048-.0024.0119-.0048.0167-.0072.0192-.012.0408-.0192.06-.0743.2349-.1414.4698-.2085.7048-.0192.0695-.0384.1366-.0552.2062-.0623.2325-.1222.4674-.175.7024-.0048.0239-.012.0479-.0168.0719-.0479.2062-.0911.4123-.1318.6209-.0072.0383-.012.0743-.0192.1127-.0336.1726-.0599.3452-.0887.5202-.0216.1271-.0431.2565-.0623.3836-.0264.1822-.0456.3643-.0671.5465-.0144.1199-.0312.2398-.0408.3596-.0192.2014-.0336.4052-.0455.609-.0072.1006-.0168.1989-.0216.2996-.0096.2949-.0168.5994-.0168.9014v9.4646c0 3.4498.9781 6.3959 2.6562 8.6159.1678.2231.3428.4364.5226.6451.2733.3117.5586.6064.8607.8821.7024.6447 1.4839 1.1962 2.3302 1.642l21.0364 11.0902c-3.8644-2.0378-6.3672-6.2642-6.3696-11.7852v-9.4647c0-.302.0072-.6065.0215-.9086.0049-.1007.0144-.1989.0216-.2996.0144-.2038.0264-.4052.0456-.6089.012-.1199.0287-.2398.0407-.3597.0216-.1821.0408-.3643.0672-.5465.0191-.1271.0407-.2565.0623-.3836.0288-.1726.0575-.3476.0887-.5202.0456-.2446.0959-.4891.151-.7312.0048-.024.012-.0479.0168-.0719.0551-.235.1127-.4699.175-.7024.0192-.0672.036-.1367.0551-.2038.0648-.2349.1343-.4723.2086-.7048.0072-.0192.012-.0408.0192-.0599.0144-.048.0336-.0983.0503-.1463.0839-.2565.1703-.5154.2637-.7695.0384-.1055.0792-.2086.1199-.3141.0743-.1966.151-.3931.2325-.5897.0528-.1295.1103-.2589.1655-.386.0647-.1486.1294-.2972.1965-.4459.06-.1318.1223-.2613.1846-.3908.0696-.1462.1415-.2924.2158-.4387.0671-.1342.1366-.2661.2062-.4003.0695-.1319.139-.2613.2109-.3908.0743-.1342.1487-.2661.2254-.398.0743-.127.1486-.2565.2229-.3835.0791-.1319.1606-.2613.2422-.3907.0767-.1247.1558-.247.2349-.3717.0839-.1294.1702-.2565.2565-.3835.0815-.1223.163-.2422.2493-.362.0863-.1223.175-.2446.2637-.3644.0911-.1247.1822-.2493.2757-.3716.0911-.1199.1822-.2349.2757-.3524.0959-.1199.1918-.2421.2877-.362.0887-.1079.1798-.2158.2709-.3236.1151-.1343.2278-.2685.3452-.4004.0911-.1031.1846-.2061.2781-.3092.1175-.1295.2373-.2566.3572-.3836.0911-.0959.1822-.1894.2757-.2829.1582-.1606.3212-.3189.4842-.4747.0816-.0791.1631-.1582.247-.2349.2061-.1918.4147-.3788.6257-.561.0431-.0359.0839-.0767.127-.1127.0336-.0287.0672-.0551.1007-.0815.175-.1462.35-.29.5298-.4315.0696-.0551.1391-.1078.2086-.1606.1486-.1151.2997-.2302.4507-.3404.0719-.0527.1438-.1055.2157-.1582.1727-.1247.3501-.247.5251-.3644.0455-.0312.091-.0648.139-.0935.2301-.1534.4627-.2997.6976-.4435.0504-.0288.1007-.0576.1487-.0863.187-.1103.3739-.2206.5633-.3237.084-.0479.1702-.0911.2566-.1366.1558-.0839.314-.1654.4722-.2446.0959-.0479.1894-.0934.2853-.139.151-.0719.3045-.1438.4579-.2133.0983-.0432.1966-.0864.2949-.1295.1558-.0671.3116-.1295.4698-.1918.0959-.0383.1918-.0767.2877-.1127.1702-.0647.3428-.1246.5154-.1822.0839-.0287.1655-.0575.2494-.0863.2565-.0839.513-.1606.7719-.2325l1.4696-.4028c.2254-.0623.4481-.1174.6689-.1678.0765-.0167.1508-.0311.2254-.0479.1462-.0312.2924-.0647.4363-.0911.0887-.0168.1773-.0288.2659-.0431.1296-.0216.2591-.0456.3883-.0648.0935-.0144.1871-.0216.2806-.0335.1224-.0144.2444-.0312.3667-.0432.0648-.0072.1273-.0096.192-.0144.1436-.012.2875-.024.4288-.0312.0792-.0048.1583-.0048.2375-.0095.1246-.0048.2492-.0097.3739-.012h.2541c.1174 0 .2352 0 .35.0072.0864.0023.1727.0072.2591.012.1197.0071.2398.0143.3572.0239.0526.0048.1053.0096.1583.0144.1485.0144.2973.0312.4458.0503.0337.0048.0671.0072.1008.012.1772.024.3522.0528.525.0839.0431.0072.0886.0168.1318.0264.1102.0216.2182.0456.3284.0695.1701.0384.3405.0815.5083.1247.0549.0144.1102.0288.1651.0431.2182.0624.4341.1295.6474.2038.053.0192.103.0384.156.0576.1508.0551.3019.1126.4508.175.0693.0287.139.0599.2083.0911.1318.0575.2614.1174.3886.1798.1125.0551.2227.1078.333.1654z" fill="#fff"/></svg>