<svg fill="none" height="96" viewBox="0 0 96 96" width="96" xmlns="http://www.w3.org/2000/svg" xmlns:xlink="http://www.w3.org/1999/xlink"><radialGradient id="a" cx="0" cy="0" gradientTransform="matrix(0 65.9749 -65.1841 0 47.229 54.4158)" gradientUnits="userSpaceOnUse" r="1"><stop offset="0" stop-color="#665cee"/><stop offset="1" stop-color="#332e91"/></radialGradient><path d="m0 0h96v96h-96z" fill="url(#a)"/><g fill="#fff"><path d="m48.8006 23c.37 0 .7061.1972.8826.5129l2.9673 5.1943h12.8669c.37 0 .7063.1968.8829.5126l3.4832 5.8564c.2784.4888.2784 1.0932 0 1.5821l-3.4832 5.8564 6.5997 11.4581-1.1677-1.4903c.2783.4889.2784 1.0933 0 1.5822l-3.4832 5.8563c-.1765.3157-.5129.5126-.8829.5126h-5.8939l-6.5997 11.4549c-.1765.3156-.5126.5125-.8825.5125h-6.0908l13.573-25.3574 3.4494 6.0907h6.6001l-6.6001-11.4548 3.4836-5.8564h-26.5763l3.4832-6.0908-3.4832-6.2194-7.4826 12.3102h-7.7541l14.3538 24.1384h-6.5997l-3.945 6.2198h12.8672l3.8499 6.2197-.069-.0023c-.3425-.0228-.6484-.2143-.8139-.5102l-2.967-5.1947h-12.8672c-.37 0-.706-.1968-.8826-.5125l-3.4835-5.8564c-.2784-.4889-.2784-1.0933 0-1.5822l2.9673-5.1943-5.8938-10.6296c-.2784-.4888-.2784-1.0933 0-1.5821l3.4835-5.8564c.1765-.3157.5125-.5125.8826-.5126h6.8715l6.5997-11.4548c.1766-.3157.5129-.5129.8829-.5129z"/><path d="m57.0571 44.1545h-17.5589l8.5011 14.3541z"/></g></svg>