<svg fill="none" height="96" viewBox="0 0 96 96" width="96" xmlns="http://www.w3.org/2000/svg"><path d="m0 0h96v96h-96z" fill="#fd5400"/><g fill="#fff"><path d="m47.0968 37.9446c-.0009.0523-.0223.1022-.0596.1388-.0373.0367-.0875.0572-.1398.0572-9.7609-.021-15.6048-.0163-17.5317.014-2.978.049-5.1476-.5634-5.312-3.7513-.0467-.9378-.0607-4.1047-.042-9.5007.007-2.9535.7313-4.9026 4.0312-4.9026 6.5601.0047 11.4895.007 14.7882.007 1.2668 0 2.1311.0105 3.034.7209.8071.6345 1.2166 1.5222 1.2282 2.663.0444 4.7008.0455 9.552.0035 14.5537z"/><path d="m47.1983 38.1021c0-.0251.01-.0491.0277-.0668s.0417-.0277.0668-.0277l20.5936.07c1.0747.0039 2.1038.4189 2.8611 1.1539s1.1808 1.7297 1.1772 2.7654l-.042 11.9817c-.0018.5129-.1084 1.0204-.3137 1.4936-.2053.4731-.5053.9026-.8829 1.264-.3776.3613-.8254.6474-1.3177.8419-.4924.1946-1.0198.2937-1.552.2918l-20.5936-.07c-.025 0-.0491-.0099-.0668-.0277-.0177-.0177-.0277-.0417-.0277-.0668z"/><path d="m47.1038 58.0344c.0444 5.004.0455 9.8588.0035 14.5642-.0116 1.1408-.4211 2.0285-1.2282 2.663-.9029.7139-1.7672.7244-3.034.7244-3.301.0023-8.2339.007-14.7987.014-3.3034.0035-4.0277-1.9491-4.0347-4.9026-.0234-5.4006-.0117-8.5699.035-9.5077.1644-3.1914 2.334-3.8038 5.3155-3.7583 1.9269.0303 7.7743.0327 17.5422.007.0523 0 .1025.0205.1398.0572.0373.0366.0587.0865.0596.1388z"/></g></svg>