<svg fill="none" height="96" viewBox="0 0 96 96" width="96" xmlns="http://www.w3.org/2000/svg"><path d="m0 0h96v96h-96z" fill="#249edc"/><path clip-rule="evenodd" d="m73.9999 44.1881-6.6 3.816 6.6 3.804c.4074.2219.7662.523 1.0555.8857.2892.3626.503.7794.6287 1.2259s.1609.9137.1033 1.374c-.0575.4603-.2065.9044-.4382 1.3062-.2318.4018-.5415.7533-.9111 1.0336s-.7915.4839-1.241.5987c-.4494.1148-.9172.1385-1.376.0698-.4587-.0687-.8991-.2285-1.2952-.4699l-11.822-6.824c-.7608-.4361-1.326-1.1466-1.58-1.986-.1152-.3652-.168-.7472-.156-1.13.008-.274.048-.548.12-.822.244-.8803.8225-1.6304 1.612-2.09l11.818-6.816c.3954-.228.8318-.3758 1.2844-.4351.4525-.0593.9123-.0288 1.353.0897.4408.1185.8538.3227 1.2156.6009s.6653.625.893 1.0205c.2304.3942.3804.83.4416 1.2825.0611.4524.032.9125-.0854 1.3537-.1175.4411-.3212.8547-.5992 1.2168-.2781.3621-.6251.6676-1.021.895zm-6.25 18.492-11.812-6.812c-.6082-.3561-1.3117-.5154-2.014-.456-.8752.0642-1.6936.4577-2.2903 1.1012-.5968.6435-.9275 1.4892-.9257 2.3668v13.64c-.0111.4636.0706.9248.2404 1.3564.1697.4315.424.8248.748 1.1566.324.3319.711.5956 1.1384.7756s.8865.2728 1.3502.2728c.4638 0 .9229-.0928 1.3502-.2728.4274-.18.8145-.4437 1.1385-.7756.3239-.3318.5783-.7251.748-1.1566.1697-.4316.2514-.8928.2403-1.3564v-7.63l6.614 3.818c.3948.2294.831.3786 1.2836.4391.4526.0604.9126.0309 1.3538-.0869.4411-.1179.8547-.3216 1.2169-.5997.3622-.278.6659-.6248.8937-1.0205.4613-.8004.5862-1.7511.3474-2.6435-.2389-.8923-.822-1.6535-1.6214-2.1165zm-13.632-13.344-4.912 4.906c-.1681.1568-.3864.2489-.616.26h-1.442c-.2292-.0126-.447-.1045-.616-.26l-4.912-4.906c-.1528-.1685-.2426-.3848-.254-.612v-1.444c0-.2.112-.478.254-.62l4.908-4.904c.1693-.1545.3871-.245.616-.256h1.446c.2 0 .474.112.616.256l4.912 4.906c.14.14.254.418.254.62v1.444c-.0128.2269-.1024.4407-.254.61zm-3.926-1.36c-.0157-.2301-.1079-.4483-.262-.62l-1.42-1.418c-.1702-.1545-.3884-.2456-.618-.258h-.056c-.2279.0133-.4441.1052-.612.26l-1.42 1.416c-.1506.1727-.2387.3911-.25.62v.056c0 .198.108.472.248.612l1.422 1.42c.14.142.414.26.612.26h.056c.229-.0141.4463-.1058.616-.26l1.422-1.42c.154-.1684.2457-.3843.26-.612zm-22.206-14.664 11.818 6.82c.636.366 1.34.512 2.016.456.8755-.0661 1.6936-.4606 2.2903-1.1045.5968-.6439.9282-1.4896.9277-2.3675v-13.64c-.0217-.9077-.3976-1.7709-1.0473-2.4052s-1.5217-.9894-2.4297-.9894-1.7799.3551-2.4296.9894-1.0256 1.4975-1.0474 2.4052v7.632l-6.62-3.824c-.7993-.4615-1.7493-.5865-2.6408-.3476-.8916.2389-1.6517.8222-2.1132 1.6216s-.5865 1.7493-.3476 2.6408c.239.8916.8243 1.6517 1.6236 2.1132zm25.94 7.276c.7015.0574 1.4038-.1017 2.012-.456l11.812-6.82c.7992-.4622 1.3822-1.2227 1.6211-2.1144.2388-.8917.114-1.8418-.3471-2.6416-.461-.7983-1.2202-1.3807-2.1106-1.6192-.8904-.2386-1.8391-.1137-2.6374.3472l-6.616 3.826v-7.638c0-.9219-.3662-1.806-1.0181-2.4579-.6518-.6519-1.536-1.0181-2.4579-1.0181s-1.806.3662-2.4579 1.0181-1.0181 1.536-1.0181 2.4579v13.642c-.0019.878.3287 1.7242.9254 2.3683.5966.6442 1.415 1.0385 2.2906 1.1037zm-12.106 14.824c-.7029-.0598-1.4072.0995-2.016.456l-11.82 6.812c-.7983.464-1.3802 1.2255-1.6182 2.1177-.2381.8921-.1128 1.8423.3482 2.6423.4617.797 1.2208 1.3782 2.1107 1.616.8898.2377 1.8377.1126 2.6353-.348l6.62-3.818v7.632c0 .9222.3664 1.8065 1.0184 2.4586.6521.6521 1.5365 1.0184 2.4586 1.0184.9222 0 1.8066-.3663 2.4586-1.0184.6521-.6521 1.0184-1.5364 1.0184-2.4586v-13.642c.0024-.8774-.3279-1.7231-.9243-2.3666-.5964-.6436-1.4146-1.0371-2.2897-1.1014zm-3.204-6.39c.116-.37.164-.752.156-1.13-.0166-.5942-.1857-1.1741-.4911-1.6841s-.7369-.9328-1.2529-1.2279l-11.808-6.816c-.3954-.2286-.832-.3769-1.2848-.4365-.4528-.0595-.9129-.0292-1.3539.0894-.4411.1185-.8544.3229-1.2164.6014-.3619.2785-.6653.6257-.8929 1.0217-.2292.3949-.3781.8311-.4383 1.2837-.0601.4526-.0302.9126.088 1.3536s.3224.8544.6008 1.2162c.2784.3619.6256.6652 1.0215.8925l6.6 3.818-6.604 3.804c-.404.2238-.7594.5258-1.0454.8884-.286.3627-.497.7786-.6205 1.2237-.1235.445-.1572.9102-.099 1.3683.0581.4582.207.9002.4378 1.3002.2308.4001.539.7501.9066 1.0298.3676.2796.7872.4833 1.2343.599s.9128.1413 1.3699.0751.8964-.2227 1.2923-.4605l11.81-6.824c.8-.456 1.34-1.176 1.59-1.986z" fill="#fff" fill-rule="evenodd"/></svg>