<svg fill="none" height="96" viewBox="0 0 96 96" width="96" xmlns="http://www.w3.org/2000/svg"><path d="m0 0h96v96h-96z" fill="#000"/><path d="m48.34 71.6617c5.4687-19.5525 5.31-19.6412 9.2625-33.5825l.95.55c.5175.2963.94.0525.94-.5425v-6.65c1.05-3.6725 1.87-6.5125 2.1125-7.3625h4.2813l7.1137 6.5875-4.6725 4.0375 3.5338 3.8213-23.2863 33.1412c-.1125.1875-.2713.145-.235 0zm2.5438-42.145c.2125 0 .3825.1163.3825.2625v3.4063c0 .1425-.1713.2587-.3825.2587h-5.7501c-.2125 0-.3837-.1162-.3837-.26v-3.4075c0-.1437.1712-.2625.3825-.2625h5.75zm7.1-3.7725-6.3275 3.6525c.0725.1125.1174.2413.1174.3813v3.4087c0 .175-.0699.335-.1824.4625l6.3912 3.69c.435.2525.7925.0463.7925-.4562v-10.6813c0-.5037-.355-.7087-.7912-.4575zm-13.7425 7.4425v-3.41c0-.14.0449-.2687.1174-.38l-6.3275-3.655c-.435-.25-.7925-.045-.7925.4575v10.6813c0 .5025.3576.7087.7938.4562l6.39-3.69c-.1125-.1287-.18-.2875-.18-.4625zm3.1837 38.475h.235c-5.4675-19.5525-5.31-19.6412-9.2625-33.5825l-.95.55c-.5163.2963-.94.0525-.94-.5425v-6.65c-1.05-3.6712-1.87-6.5125-2.1125-7.3625h-4.28l-7.115 6.5875 4.6712 4.0375-3.5337 3.8225zm.4012-31.1012c.9541 0 1.7276-.7735 1.7276-1.7275 0-.9541-.7735-1.7275-1.7276-1.7275-.954 0-1.7274.7734-1.7274 1.7275 0 .954.7734 1.7275 1.7274 1.7275zm0 10.2687c.9541 0 1.7276-.7734 1.7276-1.7275s-.7735-1.7275-1.7276-1.7275c-.954 0-1.7274.7734-1.7274 1.7275s.7734 1.7275 1.7274 1.7275zm0 10.2713c.9541 0 1.7276-.7735 1.7276-1.7275 0-.9541-.7735-1.7275-1.7276-1.7275-.954 0-1.7274.7734-1.7274 1.7275 0 .954.7734 1.7275 1.7274 1.7275z" fill="#fff"/></svg>