<svg fill="none" height="96" viewBox="0 0 96 96" width="96" xmlns="http://www.w3.org/2000/svg" xmlns:xlink="http://www.w3.org/1999/xlink"><filter id="a" color-interpolation-filters="sRGB" filterUnits="userSpaceOnUse" height="51.6576" width="65.3674" x="15.2993" y="28.8643"><feFlood flood-opacity="0" result="BackgroundImageFix"/><feColorMatrix in="SourceAlpha" result="hardAlpha" type="matrix" values="0 0 0 0 0 0 0 0 0 0 0 0 0 0 0 0 0 0 127 0"/><feOffset/><feGaussianBlur stdDeviation="2.33334"/><feColorMatrix type="matrix" values="0 0 0 0 0 0 0 0 0 0 0 0 0 0 0 0 0 0 0.25 0"/><feBlend in2="BackgroundImageFix" mode="overlay" result="effect1_dropShadow_1_283"/><feBlend in="SourceGraphic" in2="effect1_dropShadow_1_283" mode="normal" result="shape"/></filter><filter id="b" color-interpolation-filters="sRGB" filterUnits="userSpaceOnUse" height="65.0447" width="26.8333" x="53.8333" y="15.4777"><feFlood flood-opacity="0" result="BackgroundImageFix"/><feColorMatrix in="SourceAlpha" result="hardAlpha" type="matrix" values="0 0 0 0 0 0 0 0 0 0 0 0 0 0 0 0 0 0 127 0"/><feOffset/><feGaussianBlur stdDeviation="2.33334"/><feColorMatrix type="matrix" values="0 0 0 0 0 0 0 0 0 0 0 0 0 0 0 0 0 0 0.25 0"/><feBlend in2="BackgroundImageFix" mode="overlay" result="effect1_dropShadow_1_283"/><feBlend in="SourceGraphic" in2="effect1_dropShadow_1_283" mode="normal" result="shape"/></filter><linearGradient id="c" gradientUnits="userSpaceOnUse" x1="47.9659" x2="47.9659" y1="20.1444" y2="75.8557"><stop offset="0" stop-color="#fff"/><stop offset="1" stop-color="#fff" stop-opacity="0"/></linearGradient><clipPath id="d"><path d="m20 20h56v56h-56z"/></clipPath><mask id="e" height="56" maskUnits="userSpaceOnUse" width="56" x="20" y="20"><path clip-rule="evenodd" d="m59.7107 75.6176c.882.3436 1.8877.3216 2.7779-.1068l11.5294-5.5478c1.2116-.5829 1.982-1.809 1.982-3.1542v-37.6174c0-1.3451-.7704-2.5712-1.9819-3.1542l-11.5295-5.5479c-1.1683-.5622-2.5356-.4245-3.561.321-.1465.1065-.286.2254-.417.3564l-22.0717 20.1365-9.6141-7.2978c-.895-.6794-2.1468-.6237-2.978.1324l-3.0835 2.8049c-1.0167.9249-1.0179 2.5244-.0025 3.4508l8.3376 7.6066-8.3376 7.6065c-1.0154.9263-1.0142 2.5259.0025 3.4508l3.0835 2.8049c.8312.7561 2.083.8118 2.978.1324l9.6141-7.2978 22.0717 20.1365c.3492.3493.7592.6124 1.2001.7842zm2.2978-40.3302-16.7474 12.7127 16.7474 12.7126z" fill="#fff" fill-rule="evenodd"/></mask><path d="m0 0h96v96h-96z" fill="#fff"/><g clip-path="url(#d)"><g mask="url(#e)"><path d="m74.0184 26.0459-11.5386-5.5556c-1.3356-.6431-2.9317-.3718-3.9798.6764l-37.7728 34.4399c-1.016.9263-1.0148 2.5259.0025 3.4507l3.0854 2.8049c.8317.7561 2.0843.8118 2.9798.1325l45.4872-34.5076c1.526-1.1576 3.7179-.0692 3.7179 1.8462v-.1339c0-1.3446-.7702-2.5702-1.9816-3.1535z" fill="#0065a9"/><g filter="url(#a)"><path d="m74.0184 69.9541-11.5386 5.5556c-1.3356.6432-2.9317.3718-3.9798-.6763l-37.7728-34.4399c-1.016-.9264-1.0148-2.526.0025-3.4508l3.0854-2.8049c.8317-.7561 2.0843-.8118 2.9798-.1325l45.4872 34.5076c1.526 1.1576 3.7179.0692 3.7179-1.8462v.134c0 1.3445-.7702 2.5701-1.9816 3.1534z" fill="#007acc"/></g><g filter="url(#b)"><path d="m62.4804 75.5107c-1.336.6427-2.9321.3709-3.9804-.6774 1.2916 1.2916 3.5.3768 3.5-1.4497v-50.7672c0-1.8266-2.2084-2.7413-3.5-1.4498 1.0483-1.0482 2.6444-1.3198 3.9804-.6774l11.5365 5.548c1.2122.583 1.9831 1.8091 1.9831 3.1542v37.6174c0 1.3451-.7709 2.5712-1.9832 3.1542z" fill="#1f9cf0"/></g><path clip-rule="evenodd" d="m59.6766 75.6176c.882.3436 1.8878.3216 2.7779-.1068l11.5295-5.5477c1.2115-.583 1.9819-1.8091 1.9819-3.1543v-37.6173c0-1.3452-.7704-2.5713-1.9819-3.1543l-11.5295-5.5479c-1.1682-.5622-2.5356-.4245-3.561.321-.1464.1065-.286.2254-.4169.3564l-22.0718 20.1365-9.614-7.2978c-.895-.6794-2.1468-.6237-2.978.1324l-3.0836 2.8049c-1.0167.9249-1.0179 2.5244-.0025 3.4508l8.3376 7.6065-8.3376 7.6066c-1.0154.9264-1.0142 2.5259.0025 3.4507l3.0836 2.805c.8312.7561 2.083.8118 2.978.1324l9.614-7.2979 22.0718 20.1366c.3491.3493.7591.6125 1.2.7842zm2.2978-40.3302-16.7474 12.7126 16.7474 12.7127z" fill="url(#c)" fill-rule="evenodd" opacity=".25"/></g></g></svg>