<svg fill="none" height="96" viewBox="0 0 96 96" width="96" xmlns="http://www.w3.org/2000/svg"><path d="m0 0h96v96h-96z" fill="#faf3e9"/><path clip-rule="evenodd" d="m75.4881 32.0088h-.5336c-2.8085-.0044-5.0879 2.2705-5.0879 5.0791v11.3593c0 2.2683-1.8746 4.1058-4.1058 4.1058-1.3256 0-2.649-.6672-3.4342-1.7871l-11.6022-16.5697c-.9624-1.3759-2.5285-2.1962-4.2237-2.1962-2.6447 0-5.0246 2.2487-5.0246 5.0245v11.4249c0 2.2683-1.8593 4.1058-4.1058 4.1058-1.33 0-2.6512-.6672-3.4364-1.7872l-12.9824-18.5405c-.2931-.4178-.9515-.2122-.9515.2997v9.9068c0 .5009.1531.9865.4397 1.3977l12.7745 18.2453c.7546 1.0783 1.8681 1.8789 3.1521 2.1699 3.2133.7306 6.1707-1.7433 6.1707-4.8954v-11.4183c0-2.2684 1.8375-4.1058 4.1057-4.1058h.0067c1.3671 0 2.649.6671 3.4342 1.7871l11.602 16.5675c.9646 1.378 2.45 2.1962 4.2217 2.1962 2.7038 0 5.02-2.251 5.02-5.0246v-11.4226c0-2.2684 1.8375-4.1058 4.1059-4.1058h.4527c.2845 0 .5141-.2297.5141-.5141v-10.7905c0-.2844-.2296-.514-.5141-.514z" fill="#000" fill-rule="evenodd"/></svg>