<svg fill="none" height="96" viewBox="0 0 96 96" width="96" xmlns="http://www.w3.org/2000/svg"><path d="m0 0h96v96h-96z" fill="#110f0f"/><path d="m38.9874 52.2301c-3.7059-1.3382-7.9901 1.4379-10.0562 4.3794-3.7377 5.797-.3221 13.5059 4.7514 17.3638 2.3088 1.8075 6.339 3.3294 8.5072.3084.9911-1.3721 1.4084-3.064 1.6761-4.4725.2154-1.2814.4082-2.5356.4377-3.7988.0408-4.3251-.9231-11.7346-5.3162-13.7758zm28.1049 8.1738c-1.1521-.601-2.2861-1.1703-3.4768-1.5921-4.1005-1.3767-11.4465-2.7488-14.7442.8006-2.4177 3.1116-1.1022 8.0422 1.0569 10.9181 4.3568 5.3456 12.7461 4.4815 17.9806.8459 2.4313-1.6375 5.1257-5.0009 2.9212-7.9946-1.0002-1.3676-2.4789-2.2862-3.7354-2.9779zm8.9223-22.3805c-.8051-2.8191-3.1707-6.4207-6.7019-5.2481-1.6103.5284-2.9393 1.6511-3.9871 2.6331-.9276.9117-1.819 1.8121-2.5878 2.8168-2.5764 3.4746-6.1508 10.0359-3.7966 14.2702 2.2113 3.2614 7.3074 3.5335 10.7094 2.3678 6.432-2.4925 8.2011-10.7367 6.3617-16.8398zm-20.7272 2.6898c3.7853-1.0954 5.6178-5.8582 5.5634-9.453-.3833-6.8856-7.6771-11.1176-14.0502-11.2537-2.9302-.1043-7.0852 1.0319-7.0625 4.7514.0045 1.6942.6623 3.3067 1.2724 4.604.5806 1.1635 1.1612 2.2907 1.8778 3.3317 2.5084 3.5222 7.6432 8.9518 12.3991 8.0196zm-23.7934 9.1513c4.1254-1.2972 10.875-4.5042 11.4601-9.3146.127-3.9395-3.8351-7.1532-7.2734-8.2124-6.6679-1.7645-12.9457 3.867-15.0436 9.8839-1.0047 2.7534-1.2088 7.058 2.336 8.1852 1.6126.5194 3.3499.3924 4.7719.2132 1.2859-.1928 2.5379-.3969 3.749-.7575z" fill="#f24a07"/></svg>