<svg fill="none" height="20" viewBox="0 0 97 20" width="97" xmlns="http://www.w3.org/2000/svg"><g fill="#000"><path d="m12.5457.526909-1.9664-.526909-1.65714 6.18453-1.49606-5.583436-1.96649.526906 1.61645 6.03247-4.02615-4.02612-1.43954 1.43955 4.4162 4.41622-5.499664-1.47366-.526906 1.96641 6.00906 1.61013c-.06882-.2967-.1052-.6059-.1052-.9236 0-2.24869 1.82291-4.07164 4.07165-4.07164 2.24869 0 4.07159 1.82295 4.07159 4.07164 0 .3156-.0359.6229-.1039.9179l5.4611 1.4633.5268-1.9664-6.0328-1.61656 5.5-1.4737-.527-1.96642-6.0326 1.61642 4.0261-4.02611-1.4396-1.43954-4.3549 4.35494z"/><path d="m13.9373 11.1102c-.1686.7127-.5246 1.3531-1.0129 1.8661l3.9563 3.9564 1.4395-1.4396z"/><path d="m12.8843 13.0178c-.4943.5048-1.1189.8815-1.8194 1.0757l1.4397 5.3727 1.9664-.5268z"/><path d="m10.9918 14.113c-.325.0835-.6656.1279-1.01661.1279-.37611 0-.74028-.0509-1.08603-.1464l-1.44094 5.3777 1.96641.5269z"/><path d="m8.8194 14.0747c-.68976-.2038-1.3033-.5853-1.78748-1.0916l-3.96607 3.9661 1.43954 1.4396z"/><path d="m6.99947 12.9481c-.47586-.5095-.82248-1.1413-.98748-1.843l-5.47895 1.468.5269 1.9664z"/><path d="m92.4348 16.5431c-.96 0-1.794-.204-2.502-.612-.708-.42-1.254-1.008-1.638-1.764s-.576-1.638-.576-2.646.192-1.88998.576-2.64598.924-1.338 1.62-1.746c.708-.42 1.53-.63 2.466-.63.912 0 1.71.204 2.394.612s1.212.996 1.584 1.764c.384.768.576 1.69198.576 2.77198v.522h-6.822c.036.84.264 1.476.684 1.908.42.42.972.63 1.656.63 1.044 0 1.71-.444 1.998-1.332l2.358.144c-.264.936-.786 1.674-1.566 2.214-.768.54-1.704.81-2.808.81zm-2.322-5.922h4.446c-.06-.77998-.288-1.35598-.684-1.72798-.384-.384-.882-.576-1.494-.576-.624 0-1.134.198-1.53.594s-.642.966-.738 1.70998z"/><path d="m85.1433 16.3271c-.96 0-1.668-.216-2.124-.648-.444-.444-.666-1.146-.666-2.106v-5.07598h-1.512v-1.782h1.512v-2.25h2.304v2.25h2.538v1.782h-2.538v4.85998c0 .456.096.768.288.936.204.168.504.252.9.252h1.35v1.782z"/><path d="m77.5049 16.3271v-9.61198h2.304v9.61198zm-.036-10.88998v-2.052h2.394v2.052z"/><path d="m71.8653 16.5431c-.96 0-1.794-.204-2.502-.612-.708-.42-1.26-1.008-1.656-1.764-.384-.756-.576-1.638-.576-2.646s.192-1.88998.576-2.64598c.396-.756.948-1.338 1.656-1.746.708-.42 1.542-.63 2.502-.63 1.224 0 2.238.318 3.042.954.816.636 1.296 1.524 1.44 2.66398l-2.376.126c-.096-.61198-.336-1.07398-.72-1.38598-.372-.324-.834-.486-1.386-.486-.744 0-1.32.276-1.728.828s-.612 1.32598-.612 2.32198.204 1.77.612 2.322.984.828 1.728.828c.564 0 1.032-.162 1.404-.486.384-.324.618-.828.702-1.512l2.376.108c-.132 1.152-.606 2.07-1.422 2.754-.804.672-1.824 1.008-3.06 1.008z"/><path d="m60.6285 16.5431c-1.008 0-1.818-.228-2.43-.684s-.918-1.104-.918-1.944c0-.828.258-1.476.774-1.944s1.302-.804 2.358-1.008l3.186-.63c0-1.36798-.618-2.05198-1.854-2.05198-.552 0-.99.132-1.314.396-.324.252-.54.618-.648 1.098l-2.34-.108c.192-1.008.66-1.788 1.404-2.34s1.71-.828 2.898-.828c1.368 0 2.4.348 3.096 1.044.708.684 1.062 1.668 1.062 2.95198v3.492c0 .252.042.426.126.522.096.096.234.144.414.144h.306v1.674c-.204.048-.486.072-.846.072-.516 0-.954-.108-1.314-.324-.36-.228-.588-.636-.684-1.224-.24.504-.654.912-1.242 1.224-.576.312-1.254.468-2.034.468zm.468-1.674c.768 0 1.374-.222 1.818-.666.456-.444.684-1.032.684-1.764v-.54l-2.484.504c-.516.108-.888.27-1.116.486-.216.204-.324.474-.324.81 0 .78.474 1.17 1.422 1.17z"/><path d="m51.5737 16.3271v-9.61198h2.16l.054 1.872c.192-.648.474-1.122.846-1.422s.858-.45 1.458-.45h.882v1.98h-.9c-.732 0-1.284.168-1.656.504-.36.324-.54.85198-.54 1.58398v5.544z"/><path d="m48.1062 16.3271c-.96 0-1.668-.216-2.124-.648-.444-.444-.666-1.146-.666-2.106v-5.07598h-1.512v-1.782h1.512v-2.25h2.304v2.25h2.538v1.782h-2.538v4.85998c0 .456.096.768.288.936.204.168.504.252.9.252h1.35v1.782z"/><path d="m42.4906 16.3271c-.708 0-1.272-.18-1.692-.54-.408-.36-.612-.936-.612-1.728v-10.51198h2.304v10.27798c0 .48.24.72.72.72h.702v1.782z"/><path d="m33.0726 16.6151c-1.044 0-1.95-.198-2.718-.594s-1.362-.954-1.782-1.674c-.408-.732-.612-1.596-.612-2.592v-8.22598h2.34v8.22598c0 .912.24 1.614.72 2.106.48.48 1.164.72 2.052.72s1.572-.24 2.052-.72c.492-.492.738-1.194.738-2.106v-8.22598h2.34v8.22598c0 .996-.21 1.86-.63 2.592-.42.72-1.014 1.278-1.782 1.674-.756.396-1.662.594-2.718.594z"/></g></svg>