<svg fill="none" height="151" viewBox="0 0 579 151" width="579" xmlns="http://www.w3.org/2000/svg"><g fill="#202123"><path d="m568.68 112.38c-5.05 0-9-1.37-11.82-4.12s-4.23-6.57-4.23-11.41v-30h-9.06v-11.23h9.11l1.62-15h10.71v15h13.93v11.25h-13.98v28.35c-.029 1.55.548 3.0502 1.61 4.18.542.5768 1.203 1.03 1.936 1.328.734.299 1.523.436 2.314.402h8.07v11.25z"/><path d="m514.19 113.44c-6.733 0-12.15-1.607-16.25-4.82-4.073-3.185-6.866-7.728-7.87-12.8001h13.39c.586 1.9496 1.886 3.6065 3.64 4.6401 2.15 1.242 4.609 1.849 7.09 1.75 7.14 0 10.73-2 10.73-5.8601 0-1.9266-1.123-3.3966-3.37-4.41-2.611-1.1198-5.342-1.9352-8.14-2.43-3.18-.61-6.37-1.4-9.61-2.36-3.224-.9522-6.085-2.8552-8.21-5.46-2.233-2.6666-3.353-6.1733-3.36-10.52-.035-2.2837.457-4.5448 1.439-6.6071.982-2.0624 2.426-3.8702 4.221-5.2828 3.787-3.16 9.037-4.7367 15.75-4.7301 6.713.0067 12.047 1.5067 16 4.5 3.932 2.9717 6.633 7.2855 7.59 12.12h-13.42c-1.43-3.55-4.8-5.36-10.14-5.37-5.73 0-8.59 1.79-8.59 5.37.01.8208.239 1.6239.662 2.327.424.703 1.027 1.2805 1.748 1.673 1.836 1.1083 3.877 1.8361 6 2.14 2.657.4519 5.285 1.0596 7.87 1.82 2.682.7671 5.311 1.7092 7.87 2.82 2.496 1.1283 4.607 2.9641 6.07 5.28 1.698 2.7202 2.544 5.8856 2.43 9.09.054 2.3859-.463 4.7501-1.506 6.8961-1.044 2.146-2.584 4.013-4.494 5.444-3.98 3.18-9.827 4.773-17.54 4.78z"/><path d="m474.26 60.2299c-4.127-3.7133-9.907-5.57-17.34-5.57-5.927 0-10.897 1.5967-14.91 4.79-3.962 3.1139-6.759 7.4716-7.94 12.37h12.66c.644-1.8552 1.872-3.4517 3.5-4.55 1.976-1.3251 4.323-1.987 6.7-1.89 3.48 0 6.22.9 8.23 2.68 1.02.949 1.818 2.1115 2.336 3.4046.519 1.293.746 2.6846.664 4.0754v2.71h-14.49c-6.667 0-11.903 1.6833-15.71 5.05-1.82 1.5535-3.273 3.4909-4.255 5.673-.983 2.182-1.469 4.5545-1.425 6.947-.068 2.3649.368 4.7171 1.28 6.9001s2.279 4.147 4.01 5.76c3.52 3.333 8.187 5 14 5 3.601.082 7.165-.747 10.36-2.41 2.569-1.257 4.743-3.198 6.28-5.61h.52l1.05 7h10.71v-37.0001c-.02-6.4933-2.097-11.6033-6.23-15.33zm-6.09 30.32c.074 1.6835-.223 3.3628-.871 4.9183s-1.631 2.9491-2.879 4.0817c-2.487 2.2071-5.88 3.3131-10.18 3.3201-3.13 0-5.53-.72-7.18-2.12-.802-.651-1.444-1.4775-1.877-2.4152-.434-.9377-.647-1.9622-.623-2.9949 0-5 3.27-7.48 9.68-7.48h13.93z"/><path d="m400.14 113.56c-8.127 0-14.62-2.607-19.48-7.82s-7.293-12.4267-7.3-21.6401c0-9.1933 2.423-16.4 7.27-21.62s11.35-7.8266 19.51-7.82c6.627 0 12.12 1.7667 16.48 5.3 4.277 3.4132 7.325 8.1283 8.68 13.43h-12.29c-1.203-2.349-3.055-4.3028-5.337-5.6289-2.282-1.3262-4.897-1.9687-7.533-1.8511-2.001-.0718-3.991.3195-5.816 1.1434-1.825.824-3.435 2.0582-4.704 3.6066-2.667 3.18-4 7.66-4 13.44s1.333 10.26 4 13.44c1.267 1.5521 2.876 2.7901 4.701 3.6171 1.825.828 3.816 1.222 5.819 1.153 2.637.113 5.251-.533 7.532-1.86 2.281-1.3278 4.134-3.2816 5.338-5.6301h12.28c-1.352 5.3061-4.4 10.0251-8.68 13.4401-4.347 3.533-9.837 5.3-16.47 5.3z"/><path d="m327.69 133.95 8.57-21.44-23.01-56.76h13.39l15.53 40.17h.52l15.55-40.17h13.39l-31.08 78.2z"/><path d="m301.67 60.2299c-4.127-3.7133-9.907-5.57-17.34-5.57-5.93 0-10.91 1.59-14.91 4.79-3.964 3.1118-6.762 7.4703-7.94 12.37h12.66c.639-1.858 1.868-3.456 3.5-4.55 1.975-1.3276 4.322-1.9898 6.7-1.89 3.48 0 6.223.8934 8.23 2.68 1.022.9473 1.822 2.1095 2.34 3.403.519 1.2935.744 2.6859.66 4.077v2.71h-14.5c-6.667 0-11.903 1.6833-15.71 5.05-1.822 1.5521-3.276 3.4893-4.258 5.6717-.983 2.1823-1.468 4.5555-1.422 6.9483-.072 2.3644.362 4.7171 1.273 6.9001s2.277 4.147 4.007 5.76c3.52 3.333 8.187 5 14 5 3.601.082 7.165-.747 10.36-2.41 2.569-1.257 4.742-3.198 6.28-5.61h.52l1.05 7h10.7v-37.0001c0-6.4933-2.067-11.6033-6.2-15.33zm-6.1 30.32c.076 1.6837-.221 3.3634-.869 4.9191-.648 1.5558-1.632 2.9492-2.881 4.0809-2.48 2.2131-5.873 3.3201-10.18 3.3201-3.13 0-5.54-.71-7.18-2.12-.801-.652-1.442-1.4787-1.875-2.4161-.433-.9375-.647-1.9615-.625-2.994.033-4.98 3.26-7.4733 9.68-7.48h13.93z"/><path d="m232.21 84.0999c1.909-.5103 3.754-1.2349 5.5-2.16 2.037-1.1163 3.942-2.458 5.68-4 2.1-1.9334 3.719-4.3303 4.73-7 1.217-3.1357 1.818-6.4767 1.77-9.84 0-7.14-2.28-12.8599-6.84-17.16-4.56-4.3-10.493-6.4433-17.8-6.43h-31.07v75.0001h13.39v-27.8301h10.16l19.3 27.8301h15zm-24.64-11.28v-23.5h16.59c3.8 0 6.8 1.03 9 3.09s3.307 4.9467 3.32 8.66c0 3.7134-1.113 6.6067-3.34 8.68-2.448 2.1321-5.628 3.2325-8.87 3.07z"/></g><path clip-rule="evenodd" d="m150 75-7.82 7.82-29.67-29.67v-15.65zm-75-75-7.82 7.82 29.67 29.67h15.65zm-16.79 16.82-7.83 7.83 12.88 12.88h15.65zm54.29 54.29v15.65l12.88 12.88 7.83-7.83zm-4.48 29.1 4.48-4.48h-58.2v-58.23l-4.48 4.48-8.4-8.4-7.85 7.84 8.4 8.4-4.48 4.48v9l-12.88-12.88-7.83 7.83 20.71 20.71v17.86l-29.66-29.64-7.83 7.83 75 75 7.83-7.83-29.67-29.67h17.93l20.71 20.71 7.83-7.83-12.88-12.88h9l4.48-4.48 8.4 8.4 7.83-7.83z" fill="#ff6363" fill-rule="evenodd"/></svg>