<svg fill="none" height="113" viewBox="0 0 512 113" width="512" xmlns="http://www.w3.org/2000/svg"><path d="m74.1259 5.78668c-2.1637-3.59105-6.0501-5.78668-10.2426-5.78668-4.1926 0-8.079 2.19563-10.2427 5.78668l-16.8492 28.85872c26.1925 13.0768 43.4904 39.0578 45.4518 68.2676h-11.8302c-1.9577-25.0368-17.0173-47.1683-39.588-58.1786l-15.5944 26.9639c12.6725 5.6834 21.5796 17.4276 23.6349 31.1637h-27.1686c-.6546-.047-1.2418-.42-1.5618-.993-.31995-.573-.32969-1.268-.0259-1.85l7.5284-12.8031c-2.5506-2.1281-5.4656-3.7764-8.60383-4.8653l-7.45154 12.8034c-1.5669602 2.6877-1.991241 5.891-1.177941 8.894.813301 3.003 2.796311 5.555 5.505461 7.085 1.76711.995 3.75885 1.524 5.78715 1.536h37.2065c1.4054-17.3431-6.3655-34.1574-20.4854-44.3252l5.9152-10.2427c17.8254 12.243 27.8551 32.9936 26.3748 54.5679h31.5218c1.4939-32.6895-14.5119-63.7062-42.0205-81.4293l11.9583-20.4853c.5546-.9293 1.7546-1.23786 2.6887-.6914 1.3572.7426 51.9557 89.0344 52.9037 90.059.339.609.327 1.353-.032 1.951-.36.598-1.012.957-1.71.942h-12.188c.153 3.261.153 6.513 0 9.757h12.24c3.139.02 6.156-1.216 8.379-3.434 2.222-2.217 3.465-5.232 3.451-8.371.001-2.0533-.547-4.0692-1.588-5.8386zm244.0831 66.62852-37.796-48.8063h-9.423v65.4251h9.551v-50.1379l38.871 50.1379h8.348v-65.4251h-9.551zm-95.18-12.1375h33.877v-8.5014h-33.903v-19.6916h38.231v-8.5014h-47.961v65.4507h48.447v-8.5014h-38.717zm-39.844-8.2966c-13.188-3.1752-16.875-5.6847-16.875-11.7791 0-5.4798 4.84-9.1927 12.061-9.1927 6.576.1926 12.919 2.4803 18.104 6.5297l5.121-7.2467c-6.564-5.1457-14.707-7.8601-23.046-7.682-12.957 0-21.996 7.682-21.996 18.616 0 11.7791 7.682 15.8505 21.663 19.2562 12.445 2.868 16.26 5.5311 16.26 11.4974 0 5.9664-5.121 9.6537-13.034 9.6537-7.877-.036-15.457-3.0132-21.253-8.3477l-5.762 6.8882c7.425 6.3792 16.894 9.878 26.683 9.8586 14.032 0 23.046-7.554 23.046-19.2307-.077-9.8842-5.916-15.1847-20.972-18.8209zm317.804-28.3722-19.691 30.728-19.564-30.728h-11.42l25.837 39.5623v25.8884h9.833v-26.1956l26.016-39.2551zm-165.496 8.8599h21.433v56.5908h9.833v-56.5908h21.433v-8.8599h-52.673zm98.176 31.0353c9.884-2.7399 15.364-9.6537 15.364-19.5379 0-12.5728-9.193-20.4853-24.019-20.4853h-29.089v65.5275h9.73v-23.507h16.517l16.593 23.5582h11.369l-17.924-25.1458zm-28.039-6.4016v-24.8385h18.36c9.577 0 15.057 4.5324 15.057 12.3936 0 7.8613-5.864 12.4449-14.955 12.4449z" fill="#362d59"/></svg>