<svg width="244" height="44" viewBox="0 0 61 11" fill="none" xmlns="http://www.w3.org/2000/svg"><path d="M22.0043 7.84385H18.8284L18.437 9.00744C18.3734 9.1968 18.1578 9.35173 17.958 9.35173H16.2426C16.0428 9.35173 15.9395 9.19972 16.0129 9.01393L19.1218 1.14933C19.1953 0.963536 19.4188 0.811523 19.6186 0.811523H21.2273C21.4271 0.811523 21.6505 0.963618 21.7237 1.14951L24.8202 9.01374C24.8934 9.19964 24.7898 9.35173 24.59 9.35173H22.8746C22.6748 9.35173 22.4593 9.1968 22.3956 9.00744L22.0043 7.84385ZM21.4438 6.1625L20.4163 3.06665L19.3888 6.1625H21.4438Z" fill="#09101F"/><path d="M32.1329 9.35173C31.9331 9.35173 31.6851 9.21187 31.5817 9.04092L30.115 6.61621L28.6484 9.04092C28.545 9.21187 28.2969 9.35173 28.0971 9.35173H26.008C25.8082 9.35173 25.7376 9.21719 25.8511 9.05275L28.6738 4.96155L26.1003 1.11347C25.9892 0.947399 26.0618 0.811523 26.2616 0.811523H28.1905C28.3903 0.811523 28.6398 0.950507 28.7449 1.12038L30.115 3.33359L31.4729 1.12111C31.5774 0.950836 31.8264 0.811523 32.0261 0.811523H33.9685C34.1683 0.811523 34.2404 0.947059 34.1287 1.11271L31.5428 4.94816L34.3788 9.05288C34.4924 9.21725 34.4218 9.35173 34.2221 9.35173H32.1329V9.35173Z" fill="#09101F"/><path d="M38.0859 8.98849C38.0859 9.18827 37.9225 9.35173 37.7227 9.35173H36.1806C35.9809 9.35173 35.8174 9.18827 35.8174 8.98849V1.17477C35.8174 0.974986 35.9809 0.811523 36.1806 0.811523H37.7227C37.9225 0.811523 38.0859 0.974986 38.0859 1.17477V8.98849Z" fill="#09101F"/><path d="M39.4531 5.05486C39.4531 2.57288 41.3212 0.571289 44.1902 0.571289C47.0593 0.571289 48.9274 2.57288 48.9274 5.05486C48.9274 7.55023 47.0593 9.55181 44.1902 9.55181C41.3212 9.55181 39.4531 7.55023 39.4531 5.05486ZM46.6055 5.05486C46.6055 3.76052 45.6981 2.58618 44.1902 2.58618C42.6958 2.58618 41.7749 3.76052 41.7749 5.05486C41.7749 6.34928 42.6958 7.55023 44.1902 7.55023C45.6848 7.55023 46.6055 6.34928 46.6055 5.05486Z" fill="#09101F"/><path d="M58.6103 9.35173C58.4105 9.35173 58.226 9.18963 58.2003 8.99151L57.6065 4.41446L55.892 9.01139C55.8222 9.19858 55.6016 9.35173 55.4018 9.35173H54.6471C54.4473 9.35173 54.2271 9.19843 54.1578 9.01105L52.4423 4.37438L51.8482 8.99146C51.8226 9.18961 51.6383 9.35173 51.4385 9.35173H49.99C49.7902 9.35173 49.649 9.1898 49.6762 8.99187L50.7515 1.17139C50.7787 0.973462 50.9644 0.811523 51.1642 0.811523H52.5061C52.7059 0.811523 52.9274 0.964336 52.9983 1.15111L55.0177 6.46943L57.0498 1.15085C57.1211 0.964215 57.3429 0.811523 57.5427 0.811523H58.8846C59.0844 0.811523 59.2701 0.973462 59.2973 1.17139L60.3726 8.99187C60.3998 9.1898 60.2586 9.35173 60.0588 9.35173H58.6103V9.35173Z" fill="#09101F"/><path d="M12.1176 7.2689L9.64471 2.96163C9.53134 2.76367 9.25193 2.6017 9.02379 2.6017H7.47996C7.12111 2.6017 6.97399 2.34725 7.15299 2.03626L7.99961 0.565449C8.06681 0.448719 8.06665 0.305017 7.99923 0.188413C7.93181 0.0718102 7.80735 0 7.67266 0H5.51896C5.29083 0 5.01078 0.161604 4.89661 0.359128L0.711635 7.60059C0.597493 7.79811 0.597405 8.12137 0.711482 8.31893L1.78831 10.1841C1.96772 10.4949 2.26196 10.4952 2.44214 10.1849L3.28358 8.73587C3.46376 8.42556 3.758 8.42592 3.93741 8.73669L4.70023 10.058C4.81428 10.2555 5.09427 10.4172 5.3224 10.4172H10.2991C10.5272 10.4172 10.8072 10.2555 10.9213 10.058L12.1163 7.98805C12.2304 7.79048 12.231 7.46686 12.1176 7.2689ZM8.77799 7.0616C8.95629 7.373 8.80858 7.62778 8.44975 7.62778H4.57868C4.21985 7.62778 4.07304 7.37352 4.25245 7.06276L6.18951 3.70769C6.36893 3.39693 6.6625 3.39694 6.8419 3.70771L8.77799 7.0616Z" fill="#09101F"/></svg>